SplineFontDB: 3.0
FontName: KAN-KaveriItalic
FullName: KAN Kaveri Italic
FamilyName: KAN Kaveri
Weight: Book
Copyright: Copyright (c) 2009-2015, NLCI (http://www.nlci.in/fonts/)
Version: 1.0 Wed May 17 15:42:18 1995
ItalicAngle: 12
UnderlinePosition: -290
UnderlineWidth: 20
Ascent: 800
Descent: 200
InvalidEm: 0
LayerCount: 2
Layer: 0 0 "Back" 1
Layer: 1 0 "Fore" 0
XUID: [1021 297 2115494286 1251845]
FSType: 0
OS2Version: 0
OS2_WeightWidthSlopeOnly: 0
OS2_UseTypoMetrics: 1
CreationTime: 1250825687
ModificationTime: 1533324727
PfmFamily: 81
TTFWeight: 400
TTFWidth: 5
LineGap: 0
VLineGap: 0
Panose: 2 0 0 3 0 0 0 0 0 0
OS2TypoAscent: -72
OS2TypoAOffset: 1
OS2TypoDescent: -196
OS2TypoDOffset: 1
OS2TypoLinegap: 0
OS2WinAscent: -236
OS2WinAOffset: 1
OS2WinDescent: -103
OS2WinDOffset: 1
HheadAscent: -236
HheadAOffset: 1
HheadDescent: 103
HheadDOffset: 1
OS2SubXSize: 700
OS2SubYSize: 650
OS2SubXOff: 0
OS2SubYOff: 143
OS2SupXSize: 700
OS2SupYSize: 650
OS2SupXOff: 0
OS2SupYOff: 453
OS2StrikeYSize: 50
OS2StrikeYPos: 259
OS2Vendor: 'Alts'
OS2UnicodeRanges: 00000000.00000000.00000000.00000000
Lookup: 262 0 0 "blwm" { "blwm-2sub"  } []
MarkAttachClasses: 1
DEI: 91125
TtTable: prep
NPUSHB
 1
 1
SCANTYPE
PUSHW_1
 511
SCANCTRL
EndTTInstrs
ShortTable: maxp 16
  1
  0
  319
  202
  5
  175
  6
  2
  8
  64
  10
  0
  3
  557
  4
  2
EndShort
LangName: 1033 "" "" "Italic" "NLCI:KAN Kaveri Italic" "" "1.0 Wed May 17 15:42:18 1995"
Encoding: Original
UnicodeInterp: none
NameList: Adobe Glyph List
DisplaySize: -48
AntiAlias: 1
FitToEm: 1
BeginPrivate: 0
EndPrivate
AnchorClass2: "Sub" "blwm-2sub" "Nukta"""  "s"""  "V""" 
BeginChars: 607 607

StartChar: .notdef
Encoding: 0 -1 0
Width: 500
Flags: HW
LayerCount: 2
Fore
SplineSet
31 0 m 1
 31 604 l 1
 469 604 l 1
 469 0 l 1
 31 0 l 1
438 31 m 1
 438 573 l 1
 62 573 l 1
 62 31 l 1
 438 31 l 1
EndSplineSet
EndChar

StartChar: exclam
Encoding: 4 33 4
Width: 270
VWidth: 500
Flags: HW
LayerCount: 2
Fore
SplineSet
85.5 3 m 0
 82.5 5.6669921875 81 9.3330078125 81 14 c 0
 81 17 l 0
 97 112 l 0
 98.3330078125 124.666992188 105.666992188 131 119 131 c 0
 190 131 l 0
 200.666992188 131 206 126.333007812 206 117 c 0
 206 112 l 0
 191 17 l 0
 189 5 181.666992188 -1 169 -1 c 0
 98 -1 l 0
 92.6669921875 -1 88.5 0.3330078125 85.5 3 c 0
189 737 m 0
 313 737 l 0
 210 202 l 0
 119 202 l 0
 189 737 l 0
EndSplineSet
EndChar

StartChar: quotedbl
Encoding: 5 34 5
Width: 359
VWidth: 500
Flags: HW
LayerCount: 2
Fore
SplineSet
385 692 m 0
 385 688.333333333 383.083333333 680.083333333 379.25 667.25 c 0
 375.416666667 654.416666667 370.583333333 639.083333333 364.75 621.25 c 0
 358.916666667 603.416666667 352.583333333 584.416666667 345.75 564.25 c 0
 338.916666667 544.083333333 332.25 525 325.75 507 c 0
 319.25 489 313.583333333 473.166666667 308.75 459.5 c 0
 303.916666667 445.833333333 300.666666667 436.666666667 299 432 c 0
 266 432 l 0
 278.5 660.5 l 0
 279.166666667 670.833333333 280.75 680.25 283.25 688.75 c 0
 285.75 697.25 289.416666667 704.666666667 294.25 711 c 0
 299.083333333 717.333333333 305.333333333 722.25 313 725.75 c 0
 320.666666667 729.25 330.333333333 731 342 731 c 0
 354.333333333 731 364.583333333 727.666666667 372.75 721 c 0
 380.916666667 714.333333333 385 704.666666667 385 692 c 0
220 692 m 0
 220 688.333333333 218.166666667 680.083333333 214.5 667.25 c 0
 210.833333333 654.416666667 206.083333333 639.083333333 200.25 621.25 c 0
 194.416666667 603.416666667 188.083333333 584.416666667 181.25 564.25 c 0
 174.416666667 544.083333333 167.916666667 525 161.75 507 c 0
 155.583333333 489 150 473.166666667 145 459.5 c 0
 140 445.833333333 136.666666667 436.666666667 135 432 c 0
 102.5 432 l 0
 115.5 660.5 l 0
 116.166666667 670.833333333 117.666666667 680.25 120 688.75 c 0
 122.333333333 697.25 125.833333333 704.666666667 130.5 711 c 0
 135.166666667 717.333333333 141.333333333 722.25 149 725.75 c 0
 156.666666667 729.25 166.333333333 731 178 731 c 0
 189.666666667 731 199.583333333 727.666666667 207.75 721 c 0
 215.916666667 714.333333333 220 704.666666667 220 692 c 0
EndSplineSet
Refer: 10 39 N 1 0 0 1 162 0 2
Refer: 10 39 N 1 0 0 1 0 0 2
EndChar

StartChar: numbersign
Encoding: 6 35 6
Width: 710
VWidth: 500
Flags: HW
LayerCount: 2
Fore
SplineSet
451 297 m 0
 496 433 l 0
 364 433 l 0
 320 297 l 0
 451 297 l 0
208 215 m 0
 52 215 l 0
 77 297 l 0
 237 297 l 0
 282 433 l 0
 120 433 l 0
 147 515 l 0
 311 515 l 0
 384 732 l 0
 466 732 l 0
 393 515 l 0
 522 515 l 0
 594 732 l 0
 676 732 l 0
 604 515 l 0
 776 515 l 0
 751 433 l 0
 578 433 l 0
 534 297 l 0
 706 297 l 0
 681 215 l 0
 502 215 l 0
 431 0 l 0
 348 0 l 0
 420 215 l 0
 291 215 l 0
 219 0 l 0
 137 0 l 0
 208 215 l 0
EndSplineSet
EndChar

StartChar: dollar
Encoding: 7 36 7
Width: 609
VWidth: 500
Flags: HW
LayerCount: 2
Fore
SplineSet
253 511 m 0
 251 502.333007812 250 494 250 486 c 0
 250 464.666992188 256 449.5 268 440.5 c 0
 280 431.5 299.333007812 427 326 427 c 0
 399 427 l 0
 457.666992188 427 502.333007812 413.833007812 533 387.5 c 0
 563.666992188 361.166992188 579 325 579 279 c 0
 579 266.333007812 578 253 576 239 c 0
 565 170 l 0
 556.333007812 110.666992188 533.666992188 67.3330078125 497 40 c 0
 460.333007812 12.6669921875 406 -2.3330078125 334 -5 c 0
 320 -89 l 0
 250 -89 l 0
 263 -5 l 0
 185 -3 119 4 65 16 c 0
 80 113 l 0
 142.666992188 107.666992188 217 105 303 105 c 0
 350.333007812 105 385.5 111.166992188 408.5 123.5 c 0
 431.5 135.833007812 445.666992188 158.666992188 451 192 c 0
 456 226 l 0
 457.333007812 231.333007812 458 239 458 249 c 0
 458 270.333007812 450.833007812 285.666992188 436.5 295 c 0
 422.166992188 304.333007812 399 309 367 309 c 0
 297 309 l 0
 243.666992188 309 202.333007812 322 173 348 c 0
 143.666992188 374 129 410 129 456 c 0
 129 469.333007812 130 483 132 497 c 0
 142 558 l 0
 152.666992188 624.666992188 178.333007812 672 219 700 c 0
 259.666992188 728 315.666992188 742.666992188 387 744 c 0
 388 786 l 0
 458 824 l 0
 455 762 l 0
 422 744 l 0
 453.333007812 742.666992188 487 740 523 736 c 0
 559 732 590.666992188 727 618 721 c 0
 603 624 l 0
 542.333007812 629.333007812 468.666992188 632 382 632 c 0
 344.666992188 632 316 625.833007812 296 613.5 c 0
 276 601.166992188 263.333007812 578.333007812 258 545 c 0
 253 511 l 0
EndSplineSet
EndChar

StartChar: percent
Encoding: 8 37 8
Width: 962
VWidth: 500
Flags: HW
LayerCount: 2
Fore
SplineSet
788 83 m 0
 814 83 833.166992188 88.1669921875 845.5 98.5 c 0
 857.833007812 108.833007812 866 126.666992188 870 152 c 0
 883 238 l 0
 884.333007812 248.666992188 885 256.333007812 885 261 c 0
 885 277.666992188 880.5 289.333007812 871.5 296 c 0
 862.5 302.666992188 847.333007812 306 826 306 c 0
 755 306 l 0
 730.333007812 306 711.666992188 301.333007812 699 292 c 0
 686.333007812 282.666992188 678 264.666992188 674 238 c 0
 661 152 l 0
 659.666992188 140 659 132 659 128 c 0
 659 112 663.5 100.5 672.5 93.5 c 0
 681.5 86.5 696.333007812 83 717 83 c 0
 788 83 l 0
602 26.5 m 0
 584 42.1669921875 575 65.6669921875 575 97 c 0
 575 107.666992188 576 120 578 134 c 0
 597 255 l 0
 603.666992188 299 619 331.833007812 643 353.5 c 0
 667 375.166992188 703.333007812 386 752 386 c 0
 854 386 l 0
 894.666992188 386 924 378.166992188 942 362.5 c 0
 960 346.833007812 969 323.333007812 969 292 c 0
 969 280.666992188 968 268.333007812 966 255 c 0
 947 134 l 0
 939.666992188 90 924 57.1669921875 900 35.5 c 0
 876 13.8330078125 839.666992188 3 791 3 c 0
 689 3 l 0
 649 3 620 10.8330078125 602 26.5 c 0
325 429 m 0
 351 429 369.833007812 434.166992188 381.5 444.5 c 0
 393.166992188 454.833007812 401 472.666992188 405 498 c 0
 419 584 l 0
 420.333007812 594.666992188 421 602.333007812 421 607 c 0
 421 623 416.333007812 634.5 407 641.5 c 0
 397.666992188 648.5 382.666992188 652 362 652 c 0
 290 652 l 0
 266 652 247.666992188 647.333007812 235 638 c 0
 222.333007812 628.666992188 214 610.666992188 210 584 c 0
 196 498 l 0
 194.666992188 486 194 478 194 474 c 0
 194 458 198.666992188 446.5 208 439.5 c 0
 217.333007812 432.5 232.333007812 429 253 429 c 0
 325 429 l 0
776 732 m 0
 858 732 l 0
 298 0 l 0
 213 0 l 0
 776 732 l 0
138 372.5 m 0
 120 388.166992188 111 411.666992188 111 443 c 0
 111 455 112 467.333007812 114 480 c 0
 133 601 l 0
 139.666992188 645 155 677.833007812 179 699.5 c 0
 203 721.166992188 239.333007812 732 288 732 c 0
 389 732 l 0
 429.666992188 732 459.166992188 724.166992188 477.5 708.5 c 0
 495.833007812 692.833007812 505 669.333007812 505 638 c 0
 505 626.666992188 504 614.333007812 502 601 c 0
 483 480 l 0
 475.666992188 436 459.833007812 403.166992188 435.5 381.5 c 0
 411.166992188 359.833007812 374.666992188 349 326 349 c 0
 225 349 l 0
 185 349 156 356.833007812 138 372.5 c 0
EndSplineSet
EndChar

StartChar: ampersand
Encoding: 9 38 9
Width: 689
VWidth: 500
Flags: HW
LayerCount: 2
Fore
SplineSet
321.5 117.5 m 0
 339.166992188 123.833007812 358 135.333007812 378 152 c 0
 410 179 l 0
 310 347 l 0
 269 324 l 0
 236.333007812 306 214.166992188 286.833007812 202.5 266.5 c 0
 190.833007812 246.166992188 185 221 185 191 c 0
 185 165.666992188 192.166992188 145.5 206.5 130.5 c 0
 220.833007812 115.5 240.666992188 108 266 108 c 0
 285.333007812 108 303.833007812 111.166992188 321.5 117.5 c 0
105.5 39.5 m 0
 74.5 69.8330078125 59 110.333007812 59 161 c 0
 59 215 69.5 260 90.5 296 c 0
 111.5 332 145.666992188 363.666992188 193 391 c 0
 264 432 l 0
 252 455 l 0
 232 492.333007812 222 530.666992188 222 570 c 0
 222 620 239.833007812 660.166992188 275.5 690.5 c 0
 311.166992188 720.833007812 363 736 431 736 c 0
 483 736 537.333007812 729.666992188 594 717 c 0
 580 627 l 0
 437 627 l 0
 407 627 384.166992188 621.166992188 368.5 609.5 c 0
 352.833007812 597.833007812 345 580.666992188 345 558 c 0
 345 533.333007812 356 502.333007812 378 465 c 0
 503 246 l 0
 670 379 l 0
 706 324 l 0
 627 217 l 0
 556 158 l 0
 650 0 l 0
 522 0 l 0
 462 96 l 0
 421 64 l 0
 388.333007812 38.6669921875 357 20.6669921875 327 10 c 0
 297 -0.6669921875 264.333007812 -6 229 -6 c 0
 177.666992188 -6 136.5 9.1669921875 105.5 39.5 c 0
EndSplineSet
EndChar

StartChar: quotesingle
Encoding: 10 39 10
Width: 197
VWidth: 500
Flags: HW
LayerCount: 2
Fore
SplineSet
145 684 m 0
 155 751 l 0
 274 751 l 0
 264 684 l 0
 227 501 l 0
 125 501 l 0
 145 684 l 0
EndSplineSet
EndChar

StartChar: parenleft
Encoding: 11 40 11
Width: 373
VWidth: 500
Flags: HW
LayerCount: 2
Fore
SplineSet
105 170 m 0
 105 250.666992188 117.166992188 334.333007812 141.5 421 c 0
 165.833007812 507.666992188 199 589.5 241 666.5 c 0
 283 743.5 329 808 379 860 c 0
 491 860 l 0
 441.666992188 800.666992188 397.166992188 732.833007812 357.5 656.5 c 0
 317.833007812 580.166992188 286.5 500.5 263.5 417.5 c 0
 240.5 334.5 229 254.666992188 229 178 c 0
 229 109.333007812 236.833007812 43.5 252.5 -19.5 c 0
 268.166992188 -82.5 291.333007812 -146 322 -210 c 0
 210 -210 l 0
 140 -100.666992188 105 26 105 170 c 0
EndSplineSet
EndChar

StartChar: parenright
Encoding: 12 41 12
Width: 372
VWidth: 500
Flags: HW
LayerCount: 2
Fore
SplineSet
173.5 120 m 0
 221.833007812 242.666992188 246 361.333007812 246 476 c 0
 246 544 238.5 608.5 223.5 669.5 c 0
 208.5 730.5 185.333007812 794 154 860 c 0
 265 860 l 0
 299 806 325 748.5 343 687.5 c 0
 361 626.5 370 558.333007812 370 483 c 0
 370 402.333007812 358 319 334 233 c 0
 310 147 277.333007812 65.6669921875 236 -11 c 0
 194.666992188 -87.6669921875 148 -154 96 -210 c 0
 -15 -210 l 0
 62.3330078125 -112.666992188 125.166992188 -2.6669921875 173.5 120 c 0
EndSplineSet
EndChar

StartChar: asterisk
Encoding: 13 42 13
Width: 444
VWidth: 500
Flags: HW
LayerCount: 2
Fore
SplineSet
267 474 m 0
 312 530 l 0
 413 443 l 0
 380 406 l 0
 267 474 l 0
162 414 m 0
 212 551 l 0
 274 535 l 0
 204 400 l 0
 162 414 l 0
133 624 m 0
 276 636 l 0
 269 571 l 0
 126 577 l 0
 133 624 l 0
332 563 m 0
 461 645 l 0
 482 607 l 0
 365 512 l 0
 332 563 l 0
282 722 m 0
 329 737 l 0
 373 612 l 0
 308 588 l 0
 282 722 l 0
EndSplineSet
EndChar

StartChar: plus
Encoding: 14 43 14
Width: 609
VWidth: 500
Flags: HW
LayerCount: 2
Fore
SplineSet
577 306 m 0
 403 306 l 0
 376 132 l 0
 275 132 l 0
 302 306 l 0
 129 306 l 0
 144 406 l 0
 318 406 l 0
 345 580 l 0
 446 580 l 0
 419 406 l 0
 592 406 l 0
 577 306 l 0
EndSplineSet
EndChar

StartChar: comma
Encoding: 15 44 15
Width: 222
VWidth: 500
Flags: HW
LayerCount: 2
Fore
SplineSet
62 -83 m 0
 54.6669921875 -81.6669921875 50 -80.6669921875 48 -80 c 0
 54 -41 l 0
 62.6669921875 -41 69.1669921875 -39.6669921875 73.5 -37 c 0
 77.8330078125 -34.3330078125 80.6669921875 -29.3330078125 82 -22 c 0
 86 8 l 0
 77 8 l 0
 66.3330078125 8 61 13.3330078125 61 24 c 0
 63 39 l 0
 75 110 l 0
 75.6669921875 116.666992188 78 121.833007812 82 125.5 c 0
 86 129.166992188 91 131 97 131 c 0
 167 131 l 0
 177.666992188 131 183 126 183 116 c 0
 181 99 l 0
 161 -22 l 0
 153.666992188 -64 128.666992188 -85 86 -85 c 0
 77.3330078125 -85 69.3330078125 -84.3330078125 62 -83 c 0
EndSplineSet
EndChar

StartChar: hyphen
Encoding: 16 45 16
Width: 344
VWidth: 500
Flags: HW
LayerCount: 2
Fore
SplineSet
76 340 m 0
 377 340 l 0
 361 240 l 0
 60 240 l 0
 76 340 l 0
EndSplineSet
EndChar

StartChar: period
Encoding: 17 46 17
Width: 222
VWidth: 500
Flags: HW
LayerCount: 2
Fore
SplineSet
63.5 3 m 0
 60.5 5.6669921875 59 9.3330078125 59 14 c 0
 59 17 l 0
 75 112 l 0
 76.3330078125 124.666992188 83.6669921875 131 97 131 c 0
 168 131 l 0
 178.666992188 131 184 126.333007812 184 117 c 0
 184 112 l 0
 169 17 l 0
 167 5 159.666992188 -1 147 -1 c 0
 76 -1 l 0
 70.6669921875 -1 66.5 0.3330078125 63.5 3 c 0
EndSplineSet
EndChar

StartChar: slash
Encoding: 18 47 18
Width: 441
VWidth: 500
Flags: HW
LayerCount: 2
Fore
SplineSet
421 770 m 0
 545 770 l 0
 131 -72 l 0
 7 -72 l 0
 421 770 l 0
EndSplineSet
EndChar

StartChar: zero
Encoding: 19 48 19
Width: 650
VWidth: 500
Flags: HW
LayerCount: 2
Fore
SplineSet
388 108 m 0
 450 108 485.666992188 138.666992188 495 200 c 0
 549 541 l 0
 550.333007812 547 551 555.333007812 551 566 c 0
 551 610.666992188 526 633 476 633 c 0
 377 633 l 0
 347.666992188 633 324 625.166992188 306 609.5 c 0
 288 593.833007812 276.666992188 571 272 541 c 0
 218 200 l 0
 216.666992188 189.333007812 216 181.666992188 216 177 c 0
 216 131 243.333007812 108 298 108 c 0
 388 108 l 0
130.5 32 m 0
 102.166992188 56 88 91.6669921875 88 139 c 0
 88 153 89 167.333007812 91 182 c 0
 150 553 l 0
 160 614.333007812 184.5 661.5 223.5 694.5 c 0
 262.5 727.5 311.666992188 744 371 744 c 0
 522 744 l 0
 574 744 613.166992188 731.5 639.5 706.5 c 0
 665.833007812 681.5 679 645.666992188 679 599 c 0
 679 591 677.666992188 575.666992188 675 553 c 0
 616 182 l 0
 606.666992188 121.333007812 583.333007812 75.1669921875 546 43.5 c 0
 508.666992188 11.8330078125 460.666992188 -4 402 -4 c 0
 252 -4 l 0
 199.333007812 -4 158.833007812 8 130.5 32 c 0
EndSplineSet
EndChar

StartChar: one
Encoding: 20 49 20
Width: 369
VWidth: 500
Flags: HW
LayerCount: 2
Fore
SplineSet
273 625 m 0
 130 594 l 0
 142 674 l 0
 304 738 l 0
 415 738 l 0
 298 0 l 0
 174 0 l 0
 273 625 l 0
EndSplineSet
EndChar

StartChar: two
Encoding: 21 50 21
Width: 589
VWidth: 500
Flags: HW
LayerCount: 2
Fore
SplineSet
64 100 m 0
 352 351 l 0
 395.333007812 388.333007812 427.5 424 448.5 458 c 0
 469.5 492 480 523.333007812 480 552 c 0
 480 576 472.166992188 594.5 456.5 607.5 c 0
 440.833007812 620.5 414.666992188 627 378 627 c 0
 168 627 l 0
 184 724 l 0
 225.333007812 730 263.166992188 734.833007812 297.5 738.5 c 0
 331.833007812 742.166992188 368 744 406 744 c 0
 475.333007812 744 525.666992188 729.833007812 557 701.5 c 0
 588.333007812 673.166992188 604 634.666992188 604 586 c 0
 604 485.333007812 551.333007812 388.333007812 446 295 c 0
 238 112 l 0
 567 112 l 0
 549 0 l 0
 49 0 l 0
 64 100 l 0
EndSplineSet
EndChar

StartChar: three
Encoding: 22 51 22
Width: 581
VWidth: 500
Flags: HW
LayerCount: 2
Fore
SplineSet
42 12 m 0
 56 105 l 0
 288 105 l 0
 332 105 365.5 111.5 388.5 124.5 c 0
 411.5 137.5 426 160.333007812 432 193 c 0
 437.333007812 219.666992188 440 236.666992188 440 244 c 0
 440 268.666992188 429.666992188 287.333007812 409 300 c 0
 388.333007812 312.666992188 361.666992188 319.666992188 329 321 c 0
 160 328 l 0
 174 416 l 0
 355 425 l 0
 424.333007812 428.333007812 463.333007812 455 472 505 c 0
 476 531.666992188 478 549 478 557 c 0
 478 607.666992188 440.666992188 633 366 633 c 0
 159 633 l 0
 174 726 l 0
 266 738 349 744 423 744 c 0
 484.333007812 744 530.333007812 732.833007812 561 710.5 c 0
 591.666992188 688.166992188 607 652.333007812 607 603 c 0
 607 587 603 555.333007812 595 508 c 0
 589 470 575 439.833007812 553 417.5 c 0
 531 395.166992188 505.333007812 380 476 372 c 0
 500 365.333007812 520.5 351.666992188 537.5 331 c 0
 554.5 310.333007812 563 283.666992188 563 251 c 0
 563 239.666992188 559.666992188 213.666992188 553 173 c 0
 544.333007812 115 519.166992188 70.6669921875 477.5 40 c 0
 435.833007812 9.3330078125 382 -6 316 -6 c 0
 212 -6 120.666992188 0 42 12 c 0
EndSplineSet
EndChar

StartChar: four
Encoding: 23 52 23
Width: 610
VWidth: 500
Flags: HW
LayerCount: 2
Fore
SplineSet
407 168 m 0
 75 168 l 0
 60 229 l 0
 394 738 l 0
 521 738 l 0
 214 273 l 0
 424 273 l 0
 450 436 l 0
 487 515 l 0
 586 515 l 0
 548 273 l 0
 633 273 l 0
 619 188 l 0
 531 168 l 0
 504 1 l 0
 381 1 l 0
 407 168 l 0
EndSplineSet
EndChar

StartChar: five
Encoding: 24 53 24
Width: 616
VWidth: 500
Flags: HW
LayerCount: 2
Fore
SplineSet
81 9 m 0
 97 106 l 0
 344 106 l 0
 381.333007812 106 411 115.166992188 433 133.5 c 0
 455 151.833007812 468.333007812 175 473 203 c 0
 482 265 l 0
 483.333007812 275.666992188 484 283.666992188 484 289 c 0
 484 333.666992188 457.333007812 356 404 356 c 0
 339 356 l 0
 313.666992188 356 293.666992188 350.833007812 279 340.5 c 0
 264.333007812 330.166992188 253.333007812 313.666992188 246 291 c 0
 128 291 l 0
 219 738 l 0
 654 738 l 0
 636 627 l 0
 320 627 l 0
 278 423 l 0
 289.333007812 434.333007812 303.833007812 443.666992188 321.5 451 c 0
 339.166992188 458.333007812 358.666992188 462 380 462 c 0
 463 462 l 0
 511.666992188 462 548.666992188 449.5 574 424.5 c 0
 599.333007812 399.5 612 366.333007812 612 325 c 0
 612 317 611.333007812 304.333007812 610 287 c 0
 592 178 l 0
 582.666992188 116 554.833007812 70 508.5 40 c 0
 462.166992188 10 399.666992188 -5 321 -5 c 0
 257 -5 177 -0.3330078125 81 9 c 0
EndSplineSet
EndChar

StartChar: six
Encoding: 25 54 25
Width: 613
VWidth: 500
Flags: HW
LayerCount: 2
Fore
SplineSet
373 107 m 0
 399 107 420.166992188 113.333007812 436.5 126 c 0
 452.833007812 138.666992188 463.333007812 159.666992188 468 189 c 0
 477 248 l 0
 478.333007812 260 479 268 479 272 c 0
 479 294 471.166992188 309.166992188 455.5 317.5 c 0
 439.833007812 325.833007812 415 330 381 330 c 0
 234 330 l 0
 227.333007812 281.333007812 224 245.333007812 224 222 c 0
 224 179.333007812 231.333007812 149.5 246 132.5 c 0
 260.666992188 115.5 283.333007812 107 314 107 c 0
 373 107 l 0
143.5 42.5 m 0
 115.166992188 73.5 101 128.666992188 101 208 c 0
 101 368.666992188 129.166992188 498.166992188 185.5 596.5 c 0
 241.833007812 694.833007812 329.666992188 744 449 744 c 0
 517.666992188 744 579 739.333007812 633 730 c 0
 617 633 l 0
 441 633 l 0
 389.666992188 633 347.5 615 314.5 579 c 0
 281.5 543 259.333007812 490 248 420 c 0
 292 430 353 435 431 435 c 0
 491 435 535.5 424.833007812 564.5 404.5 c 0
 593.5 384.166992188 608 353.333007812 608 312 c 0
 608 303.333007812 606.666992188 289.666992188 604 271 c 0
 587 166 l 0
 577.666992188 107.333007812 554.833007812 64.3330078125 518.5 37 c 0
 482.166992188 9.6669921875 436.666992188 -4 382 -4 c 0
 272 -4 l 0
 214.666992188 -4 171.833007812 11.5 143.5 42.5 c 0
EndSplineSet
EndChar

StartChar: seven
Encoding: 26 55 26
Width: 550
VWidth: 500
Flags: HW
LayerCount: 2
Fore
SplineSet
462 615 m 0
 128 615 l 0
 148 738 l 0
 607 738 l 0
 632 683 l 0
 271 0 l 0
 126 0 l 0
 462 615 l 0
EndSplineSet
EndChar

StartChar: eight
Encoding: 27 56 27
Width: 633
VWidth: 500
Flags: HW
LayerCount: 2
Fore
SplineSet
379 102 m 0
 408.333007812 102 430.166992188 108 444.5 120 c 0
 458.833007812 132 467.666992188 150 471 174 c 0
 483 249 l 0
 484.333007812 258.333007812 485 264.666992188 485 268 c 0
 485 287.333007812 479.166992188 301.5 467.5 310.5 c 0
 455.833007812 319.5 437.333007812 324 412 324 c 0
 327 324 l 0
 305 324 284.333007812 317.666992188 265 305 c 0
 245.666992188 292.333007812 234 273.666992188 230 249 c 0
 218 174 l 0
 216.666992188 164.666992188 216 158.666992188 216 156 c 0
 216 120 241.333007812 102 292 102 c 0
 379 102 l 0
428 430 m 0
 454 430 473.666992188 437 487 451 c 0
 500.333007812 465 508.666992188 483.333007812 512 506 c 0
 520 561 l 0
 522 570.333007812 523 578.666992188 523 586 c 0
 523 605.333007812 518.166992188 619 508.5 627 c 0
 498.833007812 635 484 639 464 639 c 0
 378 639 l 0
 351.333007812 639 331.166992188 633.166992188 317.5 621.5 c 0
 303.833007812 609.833007812 294.666992188 589.666992188 290 561 c 0
 282 506 l 0
 280.666992188 494 280 486.666992188 280 484 c 0
 280 448 301.333007812 430 344 430 c 0
 428 430 l 0
87 112 m 0
 87 124.666992188 88 137 90 149 c 0
 107 255 l 0
 111.666992188 285.666992188 124 312 144 334 c 0
 164 356 186.666992188 369.666992188 212 375 c 0
 175.333007812 393.666992188 157 423 157 463 c 0
 157 472.333007812 158.333007812 486.333007812 161 505 c 0
 174 591 l 0
 190.666992188 693 255.333007812 744 368 744 c 0
 516 744 l 0
 560.666992188 744 594.166992188 735.333007812 616.5 718 c 0
 638.833007812 700.666992188 650 672.333007812 650 633 c 0
 650 625.666992188 648.666992188 611.333007812 646 590 c 0
 633 505 l 0
 629 481 619.333007812 456.666992188 604 432 c 0
 588.666992188 407.333007812 569 392.333007812 545 387 c 0
 567.666992188 381.666992188 584.333007812 370.5 595 353.5 c 0
 605.666992188 336.5 611 316 611 292 c 0
 611 283.333007812 610.333007812 272.333007812 609 259 c 0
 591 152 l 0
 582.333007812 95.3330078125 561 55.1669921875 527 31.5 c 0
 493 7.8330078125 449.333007812 -4 396 -4 c 0
 249 -4 l 0
 141 -4 87 34.6669921875 87 112 c 0
EndSplineSet
EndChar

StartChar: nine
Encoding: 28 57 28
Width: 613
VWidth: 500
Flags: HW
LayerCount: 2
Fore
SplineSet
356 632 m 0
 330 632 308.833007812 625.666992188 292.5 613 c 0
 276.166992188 600.333007812 265.666992188 579.333007812 261 550 c 0
 252 491 l 0
 250.666992188 479 250 471 250 467 c 0
 250 445 257.833007812 429.833007812 273.5 421.5 c 0
 289.166992188 413.166992188 314 409 348 409 c 0
 495 409 l 0
 501.666992188 457.666992188 505 493.666992188 505 517 c 0
 505 559.666992188 497.666992188 589.5 483 606.5 c 0
 468.333007812 623.5 445.666992188 632 415 632 c 0
 356 632 l 0
585.5 696.5 m 0
 613.833007812 665.5 628 610.333007812 628 531 c 0
 628 370.333007812 599.833007812 240.833007812 543.5 142.5 c 0
 487.166992188 44.1669921875 399.333007812 -5 280 -5 c 0
 211.333007812 -5 150 -0.3330078125 96 9 c 0
 112 106 l 0
 288 106 l 0
 339.333007812 106 381.5 124 414.5 160 c 0
 447.5 196 469.666992188 249 481 319 c 0
 437 309 376 304 298 304 c 0
 238 304 193.5 314.166992188 164.5 334.5 c 0
 135.5 354.833007812 121 385.666992188 121 427 c 0
 121 435.666992188 122.333007812 449.333007812 125 468 c 0
 142 573 l 0
 151.333007812 631.666992188 174.166992188 674.666992188 210.5 702 c 0
 246.833007812 729.333007812 292.333007812 743 347 743 c 0
 457 743 l 0
 514.333007812 743 557.166992188 727.5 585.5 696.5 c 0
EndSplineSet
EndChar

StartChar: colon
Encoding: 29 58 29
Width: 222
VWidth: 500
Flags: HW
LayerCount: 2
Fore
SplineSet
230.5 437 m 0
 230.5 427.666666667 228.666666667 418.833333333 225 410.5 c 0
 221.333333333 402.166666667 216.333333333 394.916666667 210 388.75 c 0
 203.666666667 382.583333333 196.25 377.666666667 187.75 374 c 0
 179.25 370.333333333 170.333333333 368.5 161 368.5 c 0
 151.333333333 368.5 142.333333333 370.333333333 134 374 c 0
 125.666666667 377.666666667 118.416666667 382.583333333 112.25 388.75 c 0
 106.083333333 394.916666667 101.166666667 402.166666667 97.5 410.5 c 0
 93.8333333333 418.833333333 92 427.666666667 92 437 c 0
 92 446.333333333 93.8333333333 455.25 97.5 463.75 c 0
 101.166666667 472.25 106.083333333 479.583333333 112.25 485.75 c 0
 118.416666667 491.916666667 125.666666667 496.833333333 134 500.5 c 0
 142.333333333 504.166666667 151.333333333 506 161 506 c 0
 170.333333333 506 179.25 504.166666667 187.75 500.5 c 0
 196.25 496.833333333 203.666666667 491.916666667 210 485.75 c 0
 216.333333333 479.583333333 221.333333333 472.25 225 463.75 c 0
 228.666666667 455.25 230.5 446.333333333 230.5 437 c 0
155.5 56.5 m 0
 155.5 46.8333333333 153.666666667 37.8333333333 150 29.5 c 0
 146.333333333 21.1666666667 141.333333333 13.9166666667 135 7.75 c 0
 128.666666667 1.58333333333 121.25 -3.33333333333 112.75 -7 c 0
 104.25 -10.6666666667 95.3333333333 -12.5 86 -12.5 c 0
 76.3333333333 -12.5 67.4166666667 -10.6666666667 59.25 -7 c 0
 51.0833333333 -3.33333333333 43.8333333333 1.58333333333 37.5 7.75 c 0
 31.1666666667 13.9166666667 26.25 21.1666666667 22.75 29.5 c 0
 19.25 37.8333333333 17.5 46.8333333333 17.5 56.5 c 0
 17.5 65.8333333333 19.25 74.6666666667 22.75 83 c 0
 26.25 91.3333333333 31.1666666667 98.5833333333 37.5 104.75 c 0
 43.8333333333 110.916666667 51.0833333333 115.833333333 59.25 119.5 c 0
 67.4166666667 123.166666667 76.3333333333 125 86 125 c 0
 95.3333333333 125 104.25 123.166666667 112.75 119.5 c 0
 121.25 115.833333333 128.666666667 110.916666667 135 104.75 c 0
 141.333333333 98.5833333333 146.333333333 91.3333333333 150 83 c 0
 153.666666667 74.6666666667 155.5 65.8333333333 155.5 56.5 c 0
EndSplineSet
Refer: 17 46 N 1 0 0 1 65 406 2
Refer: 17 46 N 1 0 0 1 0 0 2
EndChar

StartChar: semicolon
Encoding: 30 59 30
Width: 222
VWidth: 500
Flags: HW
LayerCount: 2
Fore
SplineSet
230.5 437 m 0
 230.5 427.666666667 228.666666667 418.833333333 225 410.5 c 0
 221.333333333 402.166666667 216.333333333 394.916666667 210 388.75 c 0
 203.666666667 382.583333333 196.25 377.666666667 187.75 374 c 0
 179.25 370.333333333 170.333333333 368.5 161 368.5 c 0
 151.333333333 368.5 142.333333333 370.333333333 134 374 c 0
 125.666666667 377.666666667 118.416666667 382.583333333 112.25 388.75 c 0
 106.083333333 394.916666667 101.166666667 402.166666667 97.5 410.5 c 0
 93.8333333333 418.833333333 92 427.666666667 92 437 c 0
 92 446.333333333 93.8333333333 455.25 97.5 463.75 c 0
 101.166666667 472.25 106.083333333 479.583333333 112.25 485.75 c 0
 118.416666667 491.916666667 125.666666667 496.833333333 134 500.5 c 0
 142.333333333 504.166666667 151.333333333 506 161 506 c 0
 170.333333333 506 179.25 504.166666667 187.75 500.5 c 0
 196.25 496.833333333 203.666666667 491.916666667 210 485.75 c 0
 216.333333333 479.583333333 221.333333333 472.25 225 463.75 c 0
 228.666666667 455.25 230.5 446.333333333 230.5 437 c 0
163 49 m 0
 163 20 156.833333333 -7.5 144.5 -33.5 c 0
 132.166666667 -59.5 115.75 -82.5 95.25 -102.5 c 0
 74.75 -122.5 51.3333333333 -138.833333333 25 -151.5 c 0
 -1.33333333333 -164.166666667 -28.5 -171.666666667 -56.5 -174 c 0
 -49 -137 l 0
 -28 -132.666666667 -9.58333333333 -126.666666667 6.25 -119 c 0
 22.0833333333 -111.333333333 35.75 -101.75 47.25 -90.25 c 0
 58.75 -78.75 68.1666666667 -65 75.5 -49 c 0
 82.8333333333 -33 88.3333333333 -14.3333333333 92 7 c 0
 27.5 7 l 0
 23.8333333333 11.6666666667 21.25 17.25 19.75 23.75 c 0
 18.25 30.25 17.5 36.3333333333 17.5 42 c 0
 17.5 52 19.6666666667 61.9166666667 24 71.75 c 0
 28.3333333333 81.5833333333 34.1666666667 90.5 41.5 98.5 c 0
 48.8333333333 106.5 57.25 112.916666667 66.75 117.75 c 0
 76.25 122.583333333 86.1666666667 125 96.5 125 c 0
 108.166666667 125 118.25 123.083333333 126.75 119.25 c 0
 135.25 115.416666667 142.166666667 110.083333333 147.5 103.25 c 0
 152.833333333 96.4166666667 156.75 88.3333333333 159.25 79 c 0
 161.75 69.6666666667 163 59.6666666667 163 49 c 0
EndSplineSet
Refer: 15 44 N 1 0 0 1 0 0 2
Refer: 17 46 N 1 0 0 1 65 406 2
EndChar

StartChar: less
Encoding: 31 60 31
Width: 609
VWidth: 500
Flags: HW
LayerCount: 2
Fore
SplineSet
133 295 m 0
 151 405 l 0
 587 537 l 0
 570 429 l 0
 262 351 l 0
 544 267 l 0
 527 159 l 0
 133 295 l 0
EndSplineSet
EndChar

StartChar: equal
Encoding: 32 61 32
Width: 609
VWidth: 500
Flags: HW
LayerCount: 2
Fore
SplineSet
205 368.5 m 0
 205 432 l 0
 819 432 l 0
 819 368.5 l 0
 205 368.5 l 0
205 182.5 m 0
 205 246 l 0
 819 246 l 0
 819 182.5 l 0
 205 182.5 l 0
EndSplineSet
Refer: 386 8722 N 1 0 0 1 19 120 2
Refer: 386 8722 N 1 0 0 1 -19 -120 2
EndChar

StartChar: greater
Encoding: 33 62 33
Width: 609
VWidth: 500
Flags: HW
LayerCount: 2
Fore
SplineSet
144 267 m 0
 452 351 l 0
 170 429 l 0
 187 537 l 0
 581 405 l 0
 563 295 l 0
 127 159 l 0
 144 267 l 0
EndSplineSet
EndChar

StartChar: question
Encoding: 34 63 34
Width: 530
VWidth: 500
Flags: HW
LayerCount: 2
Fore
SplineSet
157.5 3 m 0
 154.5 5.6669921875 153 9.3330078125 153 14 c 0
 153 17 l 0
 169 112 l 0
 170.333007812 124.666992188 177.666992188 131 191 131 c 0
 262 131 l 0
 272.666992188 131 278 126.333007812 278 117 c 0
 278 112 l 0
 263 17 l 0
 261 5 253.666992188 -1 241 -1 c 0
 170 -1 l 0
 164.666992188 -1 160.5 0.3330078125 157.5 3 c 0
217 385 m 0
 279 385 l 0
 322.333007812 385 354.666992188 391.666992188 376 405 c 0
 397.333007812 418.333007812 410.666992188 442.333007812 416 477 c 0
 423 519 l 0
 424.333007812 527 425 537.333007812 425 550 c 0
 425 577.333007812 416.333007812 597.166992188 399 609.5 c 0
 381.666992188 621.833007812 355 628 319 628 c 0
 289.666992188 628 260.666992188 625.166992188 232 619.5 c 0
 203.333007812 613.833007812 172 605 138 593 c 0
 152 683 l 0
 221.333007812 720.333007812 295.666992188 739 375 739 c 0
 434.333007812 739 479 725.333007812 509 698 c 0
 539 670.666992188 554 633.333007812 554 586 c 0
 554 569.333007812 552.666992188 553.333007812 550 538 c 0
 539 475 l 0
 529.666992188 413 505.166992188 366.833007812 465.5 336.5 c 0
 425.833007812 306.166992188 369 291 295 291 c 0
 282 201 l 0
 188 201 l 0
 217 385 l 0
EndSplineSet
EndChar

StartChar: at
Encoding: 35 64 35
Width: 925
VWidth: 500
Flags: HW
LayerCount: 2
Fore
SplineSet
520 101.5 m 0
 545.333007812 109.166992188 567.666992188 121.333007812 587 138 c 0
 630 426 l 0
 595.333007812 440 561.333007812 447 528 447 c 0
 495.333007812 447 465.833007812 436.833007812 439.5 416.5 c 0
 413.166992188 396.166992188 392.666992188 367.166992188 378 329.5 c 0
 363.333007812 291.833007812 356 248 356 198 c 0
 356 126 384.666992188 90 442 90 c 0
 468.666992188 90 494.666992188 93.8330078125 520 101.5 c 0
98.5 -141.5 m 0
 66.8330078125 -108.5 51 -65.6669921875 51 -13 c 0
 51 -1.6669921875 52.3330078125 15.3330078125 55 38 c 0
 132 521 l 0
 144 593 171 644.666992188 213 676 c 0
 255 707.333007812 314 723 390 723 c 0
 761 723 l 0
 820.333007812 723 865.166992188 707.333007812 895.5 676 c 0
 925.833007812 644.666992188 941 602.666992188 941 550 c 0
 941 532 939.333007812 510.666992188 936 486 c 0
 891 185 l 0
 883 131.666992188 861 87.5 825 52.5 c 0
 789 17.5 739 0 675 0 c 0
 596 0 l 0
 577 57 l 0
 564.333007812 41 541.666992188 26.5 509 13.5 c 0
 476.333007812 0.5 443.666992188 -6 411 -6 c 0
 366.333007812 -6 330 9.1669921875 302 39.5 c 0
 274 69.8330078125 260 118 260 184 c 0
 260 257.333007812 272.5 320.833007812 297.5 374.5 c 0
 322.5 428.166992188 355.833007812 469.166992188 397.5 497.5 c 0
 439.166992188 525.833007812 485 540 535 540 c 0
 615.666992188 540 682 517.666992188 734 473 c 0
 675 84 l 0
 705.666992188 84 731.833007812 91.3330078125 753.5 106 c 0
 775.166992188 120.666992188 789.333007812 150.666992188 796 196 c 0
 841 498 l 0
 843.666992188 519.333007812 845 533.666992188 845 541 c 0
 845 573 835.166992188 596.333007812 815.5 611 c 0
 795.833007812 625.666992188 769 633 735 633 c 0
 372 633 l 0
 324 633 289.166992188 620.5 267.5 595.5 c 0
 245.833007812 570.5 232 538 226 498 c 0
 151 27 l 0
 149 16.3330078125 148 5.6669921875 148 -5 c 0
 148 -35 157 -58.6669921875 175 -76 c 0
 193 -93.3330078125 219.666992188 -102 255 -102 c 0
 640 -102 l 0
 629 -171 l 0
 600.333007812 -176.333007812 559.166992188 -181 505.5 -185 c 0
 451.833007812 -189 396 -191 338 -191 c 0
 246 -191 l 0
 179.333007812 -191 130.166992188 -174.5 98.5 -141.5 c 0
EndSplineSet
EndChar

StartChar: A
Encoding: 36 65 36
Width: 689
VWidth: 500
Flags: HW
LayerCount: 2
Fore
SplineSet
495 285 m 0
 447 631 l 0
 286 285 l 0
 495 285 l 0
387 738 m 0
 543 738 l 0
 663 0 l 0
 535 0 l 0
 507 174 l 0
 239 174 l 0
 155 0 l 0
 27 0 l 0
 387 738 l 0
EndSplineSet
EndChar

StartChar: B
Encoding: 37 66 37
Width: 628
VWidth: 500
Flags: HW
LayerCount: 2
Fore
SplineSet
365 111 m 0
 404.333007812 111 433.666992188 119.5 453 136.5 c 0
 472.333007812 153.5 485.666992188 180.333007812 493 217 c 0
 494.333007812 225 495 235.666992188 495 249 c 0
 495 275.666992188 486.833007812 296.166992188 470.5 310.5 c 0
 454.166992188 324.833007812 430.333007812 332 399 332 c 0
 242 332 l 0
 207 111 l 0
 365 111 l 0
413 427 m 0
 469 427 503.666992188 457 517 517 c 0
 520.333007812 535 522 548.666992188 522 558 c 0
 522 582 514.5 599.5 499.5 610.5 c 0
 484.5 621.5 462.333007812 627 433 627 c 0
 289 627 l 0
 257 427 l 0
 413 427 l 0
182 738 m 0
 458 738 l 0
 525.333007812 738 573.166992188 725.333007812 601.5 700 c 0
 629.833007812 674.666992188 644 638 644 590 c 0
 644 572 642.666992188 555 640 539 c 0
 634 499 618.833007812 465.333007812 594.5 438 c 0
 570.166992188 410.666992188 540 393 504 385 c 0
 576 365 612 315.666992188 612 237 c 0
 612 216.333007812 610 196.333007812 606 177 c 0
 595.333007812 115.666992188 568.666992188 70.8330078125 526 42.5 c 0
 483.333007812 14.1669921875 424.333007812 0 349 0 c 0
 66 0 l 0
 182 738 l 0
EndSplineSet
EndChar

StartChar: C
Encoding: 38 67 38
Width: 591
VWidth: 500
Flags: HW
LayerCount: 2
Fore
SplineSet
98 238 m 0
 98 285.333007812 102.333007812 336 111 390 c 0
 129.666992188 509.333007812 163 598.166992188 211 656.5 c 0
 259 714.833007812 328.333007812 744 419 744 c 0
 501 744 579 731.666992188 653 707 c 0
 637 610 l 0
 567.666992188 625.333007812 502 633 440 633 c 0
 400.666992188 633 368 625.333007812 342 610 c 0
 316 594.666992188 294.333007812 567.666992188 277 529 c 0
 259.666992188 490.333007812 245.333007812 436 234 366 c 0
 225.333007812 316 221 273 221 237 c 0
 221 190.333007812 231.666992188 156.666992188 253 136 c 0
 274.333007812 115.333007812 310.666992188 105 362 105 c 0
 404.666992188 105 440.333007812 106 469 108 c 0
 497.666992188 110 527.666992188 113.333007812 559 118 c 0
 543 21 l 0
 486.333007812 3 415 -6 329 -6 c 0
 175 -6 98 75.3330078125 98 238 c 0
EndSplineSet
EndChar

StartChar: D
Encoding: 39 68 39
Width: 682
VWidth: 500
Flags: HW
LayerCount: 2
Fore
SplineSet
352 111 m 0
 413.333007812 111 460.666992188 133.166992188 494 177.5 c 0
 527.333007812 221.833007812 550.666992188 286 564 370 c 0
 571.333007812 417.333007812 575 453 575 477 c 0
 575 530.333007812 564 568.666992188 542 592 c 0
 520 615.333007812 481.666992188 627 427 627 c 0
 288 627 l 0
 207 111 l 0
 352 111 l 0
182 738 m 0
 457 738 l 0
 546.333007812 738 609 716.5 645 673.5 c 0
 681 630.5 699 566.333007812 699 481 c 0
 699 439 695.333007812 395 688 349 c 0
 669.333007812 231.666992188 632 144.166992188 576 86.5 c 0
 520 28.8330078125 441.333007812 0 340 0 c 0
 65 0 l 0
 182 738 l 0
EndSplineSet
EndChar

StartChar: E
Encoding: 40 69 40
Width: 588
VWidth: 500
Flags: HW
LayerCount: 2
Fore
SplineSet
130.5 21.5 m 0
 100.833007812 39.8330078125 86 72.3330078125 86 119 c 0
 86 129.666992188 87 141.333007812 89 154 c 0
 157 577 l 0
 165.666992188 633.666992188 186.333007812 674.666992188 219 700 c 0
 251.666992188 725.333007812 292.333007812 738 341 738 c 0
 416.333007812 738 517.666992188 734.333007812 645 727 c 0
 629 624 l 0
 361 624 l 0
 335.666992188 624 316.166992188 617.833007812 302.5 605.5 c 0
 288.833007812 593.166992188 279.666992188 573.333007812 275 546 c 0
 256 425 l 0
 549 417 l 0
 534 320 l 0
 238 313 l 0
 219 185 l 0
 217.666992188 174.333007812 217 167.333007812 217 164 c 0
 217 144.666992188 222.666992188 130.833007812 234 122.5 c 0
 245.333007812 114.166992188 262.333007812 110 285 110 c 0
 549 110 l 0
 532 7 l 0
 406.666992188 -1 308.333007812 -5.3330078125 237 -6 c 0
 195.666992188 -6 160.166992188 3.1669921875 130.5 21.5 c 0
EndSplineSet
EndChar

StartChar: F
Encoding: 41 70 41
Width: 560
VWidth: 500
Flags: HW
LayerCount: 2
Fore
SplineSet
157 577 m 0
 174.333007812 684.333007812 235 738 339 738 c 0
 423.666992188 738 525.333007812 734.333007812 644 727 c 0
 628 624 l 0
 359 624 l 0
 333.666992188 624 314.5 617.833007812 301.5 605.5 c 0
 288.5 593.166992188 279.666992188 573.666992188 275 547 c 0
 253 407 l 0
 547 399 l 0
 531 302 l 0
 236 295 l 0
 189 0 l 0
 65 0 l 0
 157 577 l 0
EndSplineSet
EndChar

StartChar: G
Encoding: 42 71 42
Width: 654
VWidth: 500
Flags: HW
LayerCount: 2
Fore
SplineSet
140 49 m 0
 110.666992188 85.6669921875 96 144.333007812 96 225 c 0
 96 270.333007812 101.333007812 327.333007812 112 396 c 0
 130.666992188 511.333007812 165.666992188 598.333007812 217 657 c 0
 268.333007812 715.666992188 339.333007812 745 430 745 c 0
 484 745 530.166992188 742.166992188 568.5 736.5 c 0
 606.833007812 730.833007812 643.333007812 722.666992188 678 712 c 0
 663 616 l 0
 598.333007812 628.666992188 525 635 443 635 c 0
 398.333007812 635 362.5 625.833007812 335.5 607.5 c 0
 308.5 589.166992188 287.333007812 561 272 523 c 0
 256.666992188 485 244 433.333007812 234 368 c 0
 225.333007812 314 221 269 221 233 c 0
 221 190.333007812 229.666992188 158.833007812 247 138.5 c 0
 264.333007812 118.166992188 292 108 330 108 c 0
 355.333007812 108 385 111.166992188 419 117.5 c 0
 453 123.833007812 479 130 497 136 c 0
 524 307 l 0
 375 307 l 0
 390 404 l 0
 438 409.333007812 494 412 558 412 c 0
 594.666992188 412 628.333007812 411.333007812 659 410 c 0
 594 0 l 0
 502 0 l 0
 492 51 l 0
 470 39 437.833007812 26.5 395.5 13.5 c 0
 353.166992188 0.5 317 -6 287 -6 c 0
 218.333007812 -6 169.333007812 12.3330078125 140 49 c 0
EndSplineSet
EndChar

StartChar: H
Encoding: 43 72 43
Width: 682
VWidth: 500
Flags: HW
LayerCount: 2
Fore
SplineSet
182 738 m 0
 306 738 l 0
 255 419 l 0
 565 419 l 0
 616 738 l 0
 740 738 l 0
 623 0 l 0
 499 0 l 0
 548 308 l 0
 238 308 l 0
 189 0 l 0
 65 0 l 0
 182 738 l 0
EndSplineSet
EndChar

StartChar: I
Encoding: 44 73 44
Width: 255
VWidth: 500
Flags: HW
LayerCount: 2
Fore
SplineSet
182 738 m 0
 306 738 l 0
 189 0 l 0
 65 0 l 0
 182 738 l 0
EndSplineSet
EndChar

StartChar: J
Encoding: 45 74 45
Width: 377
VWidth: 500
Flags: HW
LayerCount: 2
Fore
SplineSet
83 0.5 m 0
 62.3330078125 4.8330078125 45.6669921875 10.3330078125 33 17 c 0
 49 114 l 0
 71.6669921875 109.333007812 97.3330078125 107 126 107 c 0
 157.333007812 107 181.5 114.833007812 198.5 130.5 c 0
 215.5 146.166992188 226.666992188 170.666992188 232 204 c 0
 317 738 l 0
 441 738 l 0
 352 179 l 0
 341.333007812 113 319.833007812 65.6669921875 287.5 37 c 0
 255.166992188 8.3330078125 208 -6 146 -6 c 0
 124.666992188 -6 103.666992188 -3.8330078125 83 0.5 c 0
EndSplineSet
EndChar

StartChar: K
Encoding: 46 75 46
Width: 626
VWidth: 500
Flags: HW
LayerCount: 2
Fore
SplineSet
182 738 m 0
 306 738 l 0
 257 426 l 0
 365 426 l 0
 585 738 l 0
 712 738 l 0
 457 368 l 0
 611 0 l 0
 487 0 l 0
 355 315 l 0
 239 315 l 0
 189 0 l 0
 65 0 l 0
 182 738 l 0
EndSplineSet
EndChar

StartChar: L
Encoding: 47 76 47
Width: 529
VWidth: 500
Flags: HW
LayerCount: 2
Fore
SplineSet
89 126 m 0
 89 140 90 154.333007812 92 169 c 0
 182 738 l 0
 306 738 l 0
 219 185 l 0
 217.666992188 179.666992188 217 172.333007812 217 163 c 0
 217 144.333007812 222.5 131 233.5 123 c 0
 244.5 115 260.333007812 111 281 111 c 0
 524 111 l 0
 507 0 l 0
 230 0 l 0
 136 0 89 42 89 126 c 0
EndSplineSet
EndChar

StartChar: M
Encoding: 48 77 48
Width: 850
VWidth: 500
Flags: HW
LayerCount: 2
Fore
SplineSet
252 738 m 0
 368 738 l 0
 458 150 l 0
 734 738 l 0
 849 738 l 0
 819 0 l 0
 699 0 l 0
 722 516 l 0
 491 0 l 0
 375 0 l 0
 308 512 l 0
 170 0 l 0
 47 0 l 0
 252 738 l 0
EndSplineSet
EndChar

StartChar: N
Encoding: 49 78 49
Width: 684
VWidth: 500
Flags: HW
LayerCount: 2
Fore
SplineSet
182 738 m 0
 282 738 l 0
 534 210 l 0
 618 738 l 0
 742 738 l 0
 625 0 l 0
 525 0 l 0
 273 529 l 0
 189 0 l 0
 65 0 l 0
 182 738 l 0
EndSplineSet
EndChar

StartChar: O
Encoding: 50 79 50
Width: 693
VWidth: 500
Flags: HW
LayerCount: 2
Fore
SplineSet
470 129 m 0
 496.666992188 144.333007812 518.166992188 170.166992188 534.5 206.5 c 0
 550.833007812 242.833007812 564.333007812 294.333007812 575 361 c 0
 584.333007812 420.333007812 589 468 589 504 c 0
 589 538.666992188 583.833007812 565.333007812 573.5 584 c 0
 563.166992188 602.666992188 547.833007812 615.5 527.5 622.5 c 0
 507.166992188 629.5 480.333007812 633 447 633 c 0
 403 633 367.833007812 625.833007812 341.5 611.5 c 0
 315.166992188 597.166992188 293.5 571 276.5 533 c 0
 259.5 495 245.333007812 440 234 368 c 0
 224 306.666992188 219 260 219 228 c 0
 219 195.333007812 224 170.166992188 234 152.5 c 0
 244 134.833007812 259.333007812 122.666992188 280 116 c 0
 300.666992188 109.333007812 328.666992188 106 364 106 c 0
 408 106 443.333007812 113.666992188 470 129 c 0
208.5 12.5 m 0
 172.833007812 24.8330078125 145 47.8330078125 125 81.5 c 0
 105 115.166992188 95 162.333007812 95 223 c 0
 95 265 100 319.333007812 110 386 c 0
 124.666992188 480 146.333007812 552.666992188 175 604 c 0
 203.666992188 655.333007812 241 691.5 287 712.5 c 0
 333 733.5 392.333007812 744 465 744 c 0
 518.333007812 744 562.833007812 737.333007812 598.5 724 c 0
 634.166992188 710.666992188 662.166992188 686.666992188 682.5 652 c 0
 702.833007812 617.333007812 713 568.333007812 713 505 c 0
 713 458.333007812 708 404.333007812 698 343 c 0
 682.666992188 247.666992188 660.833007812 175 632.5 125 c 0
 604.166992188 75 567.5 40.6669921875 522.5 22 c 0
 477.5 3.3330078125 418 -6 344 -6 c 0
 289.333007812 -6 244.166992188 0.1669921875 208.5 12.5 c 0
EndSplineSet
EndChar

StartChar: P
Encoding: 51 80 51
Width: 606
VWidth: 500
Flags: HW
LayerCount: 2
Fore
SplineSet
401 356 m 0
 433.666992188 356 460.833007812 367 482.5 389 c 0
 504.166992188 411 518.333007812 444.333007812 525 489 c 0
 529 513 531 529.666992188 531 539 c 0
 531 570.333007812 524 592.833007812 510 606.5 c 0
 496 620.166992188 475.333007812 627 448 627 c 0
 288 627 l 0
 245 356 l 0
 401 356 l 0
182 738 m 0
 472 738 l 0
 529.333007812 738 574.5 723.833007812 607.5 695.5 c 0
 640.5 667.166992188 657 619 657 551 c 0
 657 535.666992188 654 510.666992188 648 476 c 0
 635.333007812 393.333007812 607.666992188 334.166992188 565 298.5 c 0
 522.333007812 262.833007812 472.666992188 245 416 245 c 0
 358.666992188 245 297 250 231 260 c 0
 189 0 l 0
 65 0 l 0
 182 738 l 0
EndSplineSet
EndChar

StartChar: Q
Encoding: 52 81 52
Width: 693
VWidth: 500
Flags: HW
LayerCount: 2
Fore
SplineSet
369.5 -150.5 m 0
 338.5 -126.166992188 322.333007812 -88.6669921875 321 -38 c 0
 407 -38 l 0
 410.333007812 -60 418.833007812 -75.6669921875 432.5 -85 c 0
 446.166992188 -94.3330078125 466 -99 492 -99 c 0
 513.333007812 -99 539.333007812 -95.6669921875 570 -89 c 0
 556 -180 l 0
 538 -184.666992188 517 -187 493 -187 c 0
 441.666992188 -187 400.5 -174.833007812 369.5 -150.5 c 0
470 129 m 0
 496.666992188 144.333007812 518.166992188 170.166992188 534.5 206.5 c 0
 550.833007812 242.833007812 564.333007812 294.333007812 575 361 c 0
 584.333007812 420.333007812 589 468 589 504 c 0
 589 538.666992188 583.833007812 565.333007812 573.5 584 c 0
 563.166992188 602.666992188 547.833007812 615.5 527.5 622.5 c 0
 507.166992188 629.5 480.333007812 633 447 633 c 0
 403 633 367.833007812 625.833007812 341.5 611.5 c 0
 315.166992188 597.166992188 293.5 571 276.5 533 c 0
 259.5 495 245.333007812 440 234 368 c 0
 224 306.666992188 219 260 219 228 c 0
 219 195.333007812 224 170.166992188 234 152.5 c 0
 244 134.833007812 259.333007812 122.666992188 280 116 c 0
 300.666992188 109.333007812 328.666992188 106 364 106 c 0
 408 106 443.333007812 113.666992188 470 129 c 0
208.5 12.5 m 0
 172.833007812 24.8330078125 145 47.8330078125 125 81.5 c 0
 105 115.166992188 95 162.333007812 95 223 c 0
 95 265 100 319.333007812 110 386 c 0
 124.666992188 480 146.333007812 552.666992188 175 604 c 0
 203.666992188 655.333007812 241 691.5 287 712.5 c 0
 333 733.5 392.333007812 744 465 744 c 0
 518.333007812 744 562.833007812 737.333007812 598.5 724 c 0
 634.166992188 710.666992188 662.166992188 686.666992188 682.5 652 c 0
 702.833007812 617.333007812 713 568.333007812 713 505 c 0
 713 458.333007812 708 404.333007812 698 343 c 0
 682.666992188 247.666992188 660.833007812 175 632.5 125 c 0
 604.166992188 75 567.5 40.6669921875 522.5 22 c 0
 477.5 3.3330078125 418 -6 344 -6 c 0
 289.333007812 -6 244.166992188 0.1669921875 208.5 12.5 c 0
EndSplineSet
EndChar

StartChar: R
Encoding: 53 82 53
Width: 628
VWidth: 500
Flags: HW
LayerCount: 2
Fore
SplineSet
397 384 m 0
 433 384 461 392.833007812 481 410.5 c 0
 501 428.166992188 514.666992188 460 522 506 c 0
 523.333007812 514.666992188 524 526.666992188 524 542 c 0
 524 598.666992188 494.333007812 627 435 627 c 0
 288 627 l 0
 250 384 l 0
 397 384 l 0
182 738 m 0
 460 738 l 0
 588 738 652 678.666992188 652 560 c 0
 652 543.333007812 650.333007812 522.333007812 647 497 c 0
 637 433 617.666992188 387.5 589 360.5 c 0
 560.333007812 333.5 528.333007812 314.666992188 493 304 c 0
 587 0 l 0
 461 0 l 0
 379 284 l 0
 235 287 l 0
 189 0 l 0
 65 0 l 0
 182 738 l 0
EndSplineSet
EndChar

StartChar: S
Encoding: 54 83 54
Width: 571
VWidth: 500
Flags: HW
LayerCount: 2
Fore
SplineSet
171 0 m 0
 128.333007812 4 93 9.3330078125 65 16 c 0
 80 113 l 0
 142.666992188 107.666992188 217 105 303 105 c 0
 350.333007812 105 385.5 111.166992188 408.5 123.5 c 0
 431.5 135.833007812 445.666992188 158.666992188 451 192 c 0
 456 226 l 0
 457.333007812 231.333007812 458 239 458 249 c 0
 458 270.333007812 450.833007812 285.666992188 436.5 295 c 0
 422.166992188 304.333007812 399 309 367 309 c 0
 297 309 l 0
 243.666992188 309 202.333007812 322 173 348 c 0
 143.666992188 374 129 410 129 456 c 0
 129 469.333007812 130 483 132 497 c 0
 142 558 l 0
 152.666992188 626 179.166992188 674 221.5 702 c 0
 263.833007812 730 322 744 396 744 c 0
 428 744 465 742 507 738 c 0
 549 734 586 728.333007812 618 721 c 0
 603 624 l 0
 542.333007812 629.333007812 468.666992188 632 382 632 c 0
 344.666992188 632 316 625.833007812 296 613.5 c 0
 276 601.166992188 263.333007812 578.333007812 258 545 c 0
 253 511 l 0
 251 502.333007812 250 494 250 486 c 0
 250 464.666992188 256 449.5 268 440.5 c 0
 280 431.5 299.333007812 427 326 427 c 0
 399 427 l 0
 457.666992188 427 502.333007812 413.833007812 533 387.5 c 0
 563.666992188 361.166992188 579 325 579 279 c 0
 579 266.333007812 578 253 576 239 c 0
 565 170 l 0
 555.666992188 107.333007812 530.333007812 62.3330078125 489 35 c 0
 447.666992188 7.6669921875 386 -6 304 -6 c 0
 258 -6 213.666992188 -4 171 0 c 0
EndSplineSet
EndChar

StartChar: T
Encoding: 55 84 55
Width: 608
VWidth: 500
Flags: HW
LayerCount: 2
Fore
SplineSet
336 627 m 0
 123 627 l 0
 141 738 l 0
 691 738 l 0
 673 627 l 0
 460 627 l 0
 361 0 l 0
 237 0 l 0
 336 627 l 0
EndSplineSet
EndChar

StartChar: U
Encoding: 56 85 56
Width: 684
VWidth: 500
Flags: HW
LayerCount: 2
Fore
SplineSet
164.5 45 m 0
 125.5 79 106 134.333007812 106 211 c 0
 106 245.666992188 110.333007812 288 119 338 c 0
 182 738 l 0
 306 738 l 0
 240 320 l 0
 233.333007812 270.666992188 230 237.333007812 230 220 c 0
 230 179.333007812 240.333007812 150 261 132 c 0
 281.666992188 114 314.333007812 105 359 105 c 0
 395.666992188 105 425.666992188 110.666992188 449 122 c 0
 472.333007812 133.333007812 492 154.5 508 185.5 c 0
 524 216.5 536.666992188 261.333007812 546 320 c 0
 612 738 l 0
 736 738 l 0
 667 302 l 0
 653.666992188 216.666992188 633 151.833007812 605 107.5 c 0
 577 63.1669921875 542.5 33.1669921875 501.5 17.5 c 0
 460.5 1.8330078125 407.666992188 -6 343 -6 c 0
 263 -6 203.5 11 164.5 45 c 0
EndSplineSet
EndChar

StartChar: V
Encoding: 57 86 57
Width: 689
VWidth: 500
Flags: HW
LayerCount: 2
Fore
SplineSet
144 738 m 0
 272 738 l 0
 364 135 l 0
 653 738 l 0
 780 738 l 0
 420 0 l 0
 264 0 l 0
 144 738 l 0
EndSplineSet
EndChar

StartChar: W
Encoding: 58 87 58
Width: 1021
VWidth: 500
Flags: HW
LayerCount: 2
Fore
SplineSet
145 738 m 0
 273 738 l 0
 330 181 l 0
 558 738 l 0
 674 738 l 0
 720 182 l 0
 959 738 l 0
 1088 738 l 0
 770 0 l 0
 642 0 l 0
 587 556 l 0
 351 0 l 0
 223 0 l 0
 145 738 l 0
EndSplineSet
EndChar

StartChar: X
Encoding: 59 88 59
Width: 641
VWidth: 500
Flags: HW
LayerCount: 2
Fore
SplineSet
449 361 m 0
 621 0 l 0
 486 0 l 0
 362 267 l 0
 163 0 l 0
 24 0 l 0
 311 374 l 0
 138 738 l 0
 274 738 l 0
 400 466 l 0
 604 738 l 0
 743 738 l 0
 449 361 l 0
EndSplineSet
EndChar

StartChar: Y
Encoding: 60 89 60
Width: 631
VWidth: 500
Flags: HW
LayerCount: 2
Fore
SplineSet
282 225 m 0
 135 738 l 0
 271 738 l 0
 364 360 l 0
 589 738 l 0
 730 738 l 0
 406 225 l 0
 370 0 l 0
 246 0 l 0
 282 225 l 0
EndSplineSet
EndChar

StartChar: Z
Encoding: 61 90 61
Width: 565
VWidth: 500
Flags: HW
LayerCount: 2
Fore
SplineSet
53 105 m 0
 476 627 l 0
 135 627 l 0
 153 738 l 0
 636 738 l 0
 619 633 l 0
 196 111 l 0
 546 111 l 0
 529 0 l 0
 36 0 l 0
 53 105 l 0
EndSplineSet
EndChar

StartChar: bracketleft
Encoding: 62 91 62
Width: 337
VWidth: 500
Flags: HW
LayerCount: 2
Fore
SplineSet
101.5 -169 m 0
 79.8330078125 -141.666992188 69 -107 69 -65 c 0
 69 -56.3330078125 70.6669921875 -37.6669921875 74 -9 c 0
 179 652 l 0
 187.666992188 709.333007812 208 755.333007812 240 790 c 0
 272 824.666992188 318.666992188 842 380 842 c 0
 453 842 l 0
 438 742 l 0
 400 742 l 0
 345.333007812 742 312 706.333007812 300 635 c 0
 199 -3 l 0
 197 -15 196 -26 196 -36 c 0
 196 -85.3330078125 218.666992188 -110 264 -110 c 0
 303 -110 l 0
 287 -210 l 0
 214 -210 l 0
 160.666992188 -210 123.166992188 -196.333007812 101.5 -169 c 0
EndSplineSet
EndChar

StartChar: backslash
Encoding: 63 92 63
Width: 441
VWidth: 500
Flags: HW
LayerCount: 2
Fore
SplineSet
140 770 m 0
 264 770 l 0
 412 -72 l 0
 288 -72 l 0
 140 770 l 0
EndSplineSet
EndChar

StartChar: bracketright
Encoding: 64 93 64
Width: 337
VWidth: 500
Flags: HW
LayerCount: 2
Fore
SplineSet
0 -110 m 0
 38 -110 l 0
 93.3330078125 -110 126.666992188 -74.3330078125 138 -3 c 0
 239 635 l 0
 241 648.333007812 242 659.666992188 242 669 c 0
 242 717.666992188 219.333007812 742 174 742 c 0
 135 742 l 0
 151 842 l 0
 224 842 l 0
 321.333007812 842 370 796.333007812 370 705 c 0
 370 685 368.333007812 667.333007812 365 652 c 0
 261 -9 l 0
 252.333007812 -63.6669921875 232.833007812 -110.833007812 202.5 -150.5 c 0
 172.166992188 -190.166992188 124 -210 58 -210 c 0
 -15 -210 l 0
 0 -110 l 0
EndSplineSet
EndChar

StartChar: asciicircum
Encoding: 65 94 65
Width: 390
VWidth: 500
Flags: HW
LayerCount: 2
Fore
SplineSet
263 667 m 0
 349 667 l 0
 430 531 l 0
 357 531 l 0
 294 608 l 0
 202 531 l 0
 129 531 l 0
 263 667 l 0
EndSplineSet
EndChar

StartChar: underscore
Encoding: 66 95 66
Width: 609
VWidth: 500
Flags: HW
LayerCount: 2
Fore
SplineSet
-13 -82 m 0
 596 -82 l 0
 581 -182 l 0
 -28 -182 l 0
 -13 -82 l 0
EndSplineSet
EndChar

StartChar: grave
Encoding: 67 96 67
Width: 226
VWidth: 500
Flags: HW
LayerCount: 2
Fore
SplineSet
140 770 m 0
 241 770 l 0
 309 631 l 0
 236 631 l 0
 140 770 l 0
EndSplineSet
EndChar

StartChar: a
Encoding: 68 97 68
Width: 568
VWidth: 500
Flags: HW
LayerCount: 2
Fore
SplineSet
346 105 m 0
 364.666992188 112.333007812 385.333007812 122.666992188 408 136 c 0
 453 421 l 0
 444.333007812 426.333007812 431.666992188 431.166992188 415 435.5 c 0
 398.333007812 439.833007812 380.666992188 442 362 442 c 0
 314.666992188 442 279.5 428.666992188 256.5 402 c 0
 233.5 375.333007812 217.333007812 333.333007812 208 276 c 0
 202.666992188 242 200 216.333007812 200 199 c 0
 200 166.333007812 207.166992188 140.666992188 221.5 122 c 0
 235.833007812 103.333007812 256.666992188 94 284 94 c 0
 306.666992188 94 327.333007812 97.6669921875 346 105 c 0
118 39.5 m 0
 90 69.8330078125 76 115.666992188 76 177 c 0
 76 198.333007812 79.6669921875 234.666992188 87 286 c 0
 101 374 130.166992188 438.666992188 174.5 480 c 0
 218.833007812 521.333007812 283.333007812 542 368 542 c 0
 410.666992188 542 452 536.5 492 525.5 c 0
 532 514.5 563.666992188 499.333007812 587 480 c 0
 511 0 l 0
 402 0 l 0
 396 55 l 0
 378.666992188 41 353.5 27.3330078125 320.5 14 c 0
 287.5 0.6669921875 256 -6 226 -6 c 0
 182 -6 146 9.1669921875 118 39.5 c 0
EndSplineSet
EndChar

StartChar: b
Encoding: 69 98 69
Width: 577
VWidth: 500
Flags: HW
LayerCount: 2
Fore
SplineSet
409 135.5 m 0
 430.333007812 163.166992188 445.333007812 207.333007812 454 268 c 0
 458.666992188 299.333007812 461 322.666992188 461 338 c 0
 461 374.666992188 453.5 401.166992188 438.5 417.5 c 0
 423.5 433.833007812 403.333007812 442 378 442 c 0
 357.333007812 442 335.666992188 439 313 433 c 0
 290.333007812 427 268.666992188 418.666992188 248 408 c 0
 204 131 l 0
 220.666992188 119 238.166992188 109.833007812 256.5 103.5 c 0
 274.833007812 97.1669921875 296.666992188 94 322 94 c 0
 358.666992188 94 387.666992188 107.833007812 409 135.5 c 0
267 10.5 m 0
 237 21.5 212 35.3330078125 192 52 c 0
 168 0 l 0
 59 0 l 0
 180 763 l 0
 304 763 l 0
 262 497 l 0
 286.666992188 510.333007812 313.5 521.166992188 342.5 529.5 c 0
 371.5 537.833007812 396.666992188 542 418 542 c 0
 469.333007812 542 509.833007812 526 539.5 494 c 0
 569.166992188 462 584 416.333007812 584 357 c 0
 584 330.333007812 580 290 572 236 c 0
 560.666992188 160 536.333007812 100.666992188 499 58 c 0
 461.666992188 15.3330078125 414.666992188 -6 358 -6 c 0
 327.333007812 -6 297 -0.5 267 10.5 c 0
EndSplineSet
EndChar

StartChar: c
Encoding: 70 99 70
Width: 477
VWidth: 500
Flags: HW
LayerCount: 2
Fore
SplineSet
128.5 39 m 0
 95.5 69 79 120.666992188 79 194 c 0
 79 220 82 251.666992188 88 289 c 0
 114.666992188 457.666992188 197.666992188 542 337 542 c 0
 386.333007812 542 446.666992188 534 518 518 c 0
 506 446 l 0
 364 446 l 0
 320 446 285.833007812 432 261.5 404 c 0
 237.166992188 376 219.666992188 330.333007812 209 267 c 0
 204.333007812 239.666992188 202 219 202 205 c 0
 202 162.333007812 211 132.166992188 229 114.5 c 0
 247 96.8330078125 274.333007812 88 311 88 c 0
 459 88 l 0
 448 18 l 0
 396.666992188 2 338 -6 272 -6 c 0
 209.333007812 -6 161.5 9 128.5 39 c 0
EndSplineSet
EndChar

StartChar: d
Encoding: 71 100 71
Width: 572
VWidth: 500
Flags: HW
LayerCount: 2
Fore
SplineSet
346.5 105 m 0
 366.166992188 112.333007812 387.333007812 122.666992188 410 136 c 0
 455 421 l 0
 429 435 398.333007812 442 363 442 c 0
 333 442 308.166992188 436.666992188 288.5 426 c 0
 268.833007812 415.333007812 252.666992188 397.5 240 372.5 c 0
 227.333007812 347.5 217 312.666992188 209 268 c 0
 204.333007812 244 202 220.666992188 202 198 c 0
 202 161.333007812 209.5 134.833007812 224.5 118.5 c 0
 239.5 102.166992188 259 94 283 94 c 0
 305.666992188 94 326.833007812 97.6669921875 346.5 105 c 0
118.5 42 m 0
 91.5 74 78 119 78 177 c 0
 78 211.666992188 81.6669921875 249.333007812 89 290 c 0
 99.6669921875 346.666992188 114.333007812 393 133 429 c 0
 151.666992188 465 179 492.833007812 215 512.5 c 0
 251 532.166992188 298.666992188 542 358 542 c 0
 402 542 440 535.666992188 472 523 c 0
 509 763 l 0
 633 763 l 0
 512 0 l 0
 403 0 l 0
 397 55 l 0
 374.333007812 37.6669921875 348.333007812 23.1669921875 319 11.5 c 0
 289.666992188 -0.1669921875 260.333007812 -6 231 -6 c 0
 183 -6 145.5 10 118.5 42 c 0
EndSplineSet
EndChar

StartChar: e
Encoding: 72 101 72
Width: 548
VWidth: 500
Flags: HW
LayerCount: 2
Fore
SplineSet
412.5 301.5 m 0
 438.166992188 315.833007812 451 340.333007812 451 375 c 0
 451 400.333007812 443.333007812 418.833007812 428 430.5 c 0
 412.666992188 442.166992188 389.333007812 448 358 448 c 0
 313.333007812 448 280 434.666992188 258 408 c 0
 236 381.333007812 220.666992188 341 212 287 c 0
 238 282.333007812 265.333007812 280 294 280 c 0
 347.333007812 280 386.833007812 287.166992188 412.5 301.5 c 0
129.5 43 m 0
 95.8330078125 75.6669921875 79 124.666992188 79 190 c 0
 79 216.666992188 82.3330078125 252 89 296 c 0
 101.666992188 380.666992188 130.833007812 443 176.5 483 c 0
 222.166992188 523 285.333007812 543 366 543 c 0
 427.333007812 543 476 531.5 512 508.5 c 0
 548 485.5 566 445.333007812 566 388 c 0
 566 320 544.666992188 273.166992188 502 247.5 c 0
 459.333007812 221.833007812 401.333007812 209 328 209 c 0
 277.333007812 209 236 213 204 221 c 0
 202 206.333007812 201 191.333007812 201 176 c 0
 201 144.666992188 212 121.833007812 234 107.5 c 0
 256 93.1669921875 291.666992188 86 341 86 c 0
 509 86 l 0
 497 13 l 0
 435 0.3330078125 367 -6 293 -6 c 0
 217.666992188 -6 163.166992188 10.3330078125 129.5 43 c 0
EndSplineSet
EndChar

StartChar: f
Encoding: 73 102 73
Width: 384
VWidth: 500
Flags: HW
LayerCount: 2
Fore
SplineSet
165 435 m 0
 88 435 l 0
 101 515 l 0
 181 536 l 0
 195 616 l 0
 203 666 221 704 249 730 c 0
 277 756 320 769 378 769 c 0
 420.666992188 769 460.666992188 766 498 760 c 0
 484 670 l 0
 399 670 l 0
 370.333007812 670 349.666992188 663.166992188 337 649.5 c 0
 324.333007812 635.833007812 316 613.666992188 312 583 c 0
 305 536 l 0
 447 536 l 0
 431 435 l 0
 289 435 l 0
 220 0 l 0
 97 0 l 0
 165 435 l 0
EndSplineSet
EndChar

StartChar: g
Encoding: 74 103 74
Width: 573
VWidth: 500
Flags: HW
LayerCount: 2
Fore
SplineSet
343.5 104.5 m 0
 363.166992188 111.5 385 122 409 136 c 0
 456 435 l 0
 450 435.666992188 436.666992188 437 416 439 c 0
 395.333007812 441 376 442 358 442 c 0
 317.333007812 442 285 429.333007812 261 404 c 0
 237 378.666992188 220.333007812 338.333007812 211 283 c 0
 204.333007812 243.666992188 201 214.666992188 201 196 c 0
 201 162 208.166992188 136.5 222.5 119.5 c 0
 236.833007812 102.5 256.333007812 94 281 94 c 0
 303 94 323.833007812 97.5 343.5 104.5 c 0
41 -226 m 0
 55 -140 l 0
 221 -140 l 0
 317 -140 370.333007812 -107 381 -41 c 0
 397 55 l 0
 373.666992188 37 345.5 22.3330078125 312.5 11 c 0
 279.5 -0.3330078125 248.666992188 -6 220 -6 c 0
 176 -6 141.333007812 10.8330078125 116 44.5 c 0
 90.6669921875 78.1669921875 78 121.666992188 78 175 c 0
 78 204.333007812 82 245 90 297 c 0
 104 384.333007812 134.333007812 447 181 485 c 0
 227.666992188 523 290.333007812 542 369 542 c 0
 413.666992188 542 455.333007812 539.166992188 494 533.5 c 0
 532.666992188 527.833007812 565.666992188 521 593 513 c 0
 502 -60 l 0
 483.333007812 -178 395.666992188 -237 239 -237 c 0
 219.666992188 -237 199.666992188 -236 179 -234 c 0
 41 -226 l 0
EndSplineSet
EndChar

StartChar: h
Encoding: 75 104 75
Width: 585
VWidth: 500
Flags: HW
LayerCount: 2
Fore
SplineSet
180 763 m 0
 304 763 l 0
 258 480 l 0
 284 498.666992188 313.666992188 513.833007812 347 525.5 c 0
 380.333007812 537.166992188 416 543 454 543 c 0
 543.333007812 543 588 498.666992188 588 410 c 0
 588 390.666992188 586.666992188 371.333007812 584 352 c 0
 527 0 l 0
 404 0 l 0
 456 337 l 0
 458 347 459 356 459 364 c 0
 459 388 452.666992188 405.333007812 440 416 c 0
 427.333007812 426.666992188 409.333007812 432 386 432 c 0
 358.666992188 432 334.166992188 428 312.5 420 c 0
 290.833007812 412 268 399.666992188 244 383 c 0
 183 0 l 0
 59 0 l 0
 180 763 l 0
EndSplineSet
EndChar

StartChar: i
Encoding: 76 105 76
Width: 240
VWidth: 500
Flags: HW
LayerCount: 2
Fore
SplineSet
143 536 m 0
 267 536 l 0
 182 0 l 0
 58 0 l 0
 143 536 l 0
160.5 626 m 0
 157.5 629.333007812 156.333007812 633.666992188 157 639 c 0
 171 730 l 0
 173 743.333007812 180.333007812 750 193 750 c 0
 287 750 l 0
 293 750 297.166992188 748.166992188 299.5 744.5 c 0
 301.833007812 740.833007812 302.333007812 736 301 730 c 0
 287 639 l 0
 285 627 278.333007812 621 267 621 c 0
 173 621 l 0
 167.666992188 621 163.5 622.666992188 160.5 626 c 0
EndSplineSet
EndChar

StartChar: j
Encoding: 77 106 77
Width: 240
VWidth: 500
Flags: HW
LayerCount: 2
Fore
SplineSet
143 536 m 0
 267 536 l 0
 181 -4 l 0
 171.666992188 -68 148.666992188 -145.666992188 112 -237 c 0
 20 -237 l 0
 143 536 l 0
160.5 626 m 0
 157.5 629.333007812 156.333007812 633.666992188 157 639 c 0
 171 730 l 0
 173 743.333007812 180.333007812 750 193 750 c 0
 287 750 l 0
 293 750 297.166992188 748.166992188 299.5 744.5 c 0
 301.833007812 740.833007812 302.333007812 736 301 730 c 0
 287 639 l 0
 285 627 278.333007812 621 267 621 c 0
 173 621 l 0
 167.666992188 621 163.5 622.666992188 160.5 626 c 0
EndSplineSet
EndChar

StartChar: k
Encoding: 78 107 78
Width: 550
VWidth: 500
Flags: HW
LayerCount: 2
Fore
SplineSet
180 763 m 0
 304 763 l 0
 236 338 l 0
 289.333007812 344 334 362.833007812 370 394.5 c 0
 406 426.166992188 432.666992188 473.333007812 450 536 c 0
 573 536 l 0
 539 414.666992188 480.666992188 333.333007812 398 292 c 0
 544 0 l 0
 416 0 l 0
 293 254 l 0
 282.333007812 251.333007812 270.166992188 249 256.5 247 c 0
 242.833007812 245 231 244 221 244 c 0
 183 0 l 0
 59 0 l 0
 180 763 l 0
EndSplineSet
EndChar

StartChar: l
Encoding: 79 108 79
Width: 312
VWidth: 500
Flags: HW
LayerCount: 2
Fore
SplineSet
121 30.5 m 0
 95.6669921875 50.8330078125 83 79 83 115 c 0
 83 138.333007812 84.6669921875 161.666992188 88 185 c 0
 180 763 l 0
 304 763 l 0
 218 225 l 0
 217.333007812 221 215.833007812 210.5 213.5 193.5 c 0
 211.166992188 176.5 210 162.333007812 210 151 c 0
 210 132.333007812 214.5 118.833007812 223.5 110.5 c 0
 232.5 102.166992188 246.333007812 97 265 95 c 0
 308 89 l 0
 293 0 l 0
 231 0 l 0
 183 0 146.333007812 10.1669921875 121 30.5 c 0
EndSplineSet
EndChar

StartChar: m
Encoding: 80 109 80
Width: 930
VWidth: 500
Flags: HW
LayerCount: 2
Fore
SplineSet
143 536 m 0
 245 536 l 0
 258 480 l 0
 320.666992188 522 386 543 454 543 c 0
 487.333007812 543 514.333007812 536.5 535 523.5 c 0
 555.666992188 510.5 572 490.333007812 584 463 c 0
 613.333007812 489 646.333007812 508.833007812 683 522.5 c 0
 719.666992188 536.166992188 755.333007812 543 790 543 c 0
 884.666992188 543 932 500 932 414 c 0
 932 388 930 364 926 342 c 0
 872 0 l 0
 748 0 l 0
 802 339 l 0
 803.333007812 348.333007812 804 356.333007812 804 363 c 0
 804 409 778.333007812 432 727 432 c 0
 701.666992188 432 677.666992188 427.5 655 418.5 c 0
 632.333007812 409.5 608.333007812 396.333007812 583 379 c 0
 583.666992188 367 582.666992188 351.666992188 580 333 c 0
 527 0 l 0
 404 0 l 0
 456 334 l 0
 458 347.333007812 459 357.333007812 459 364 c 0
 459 409.333007812 433.666992188 432 383 432 c 0
 357 432 334 428 314 420 c 0
 294 412 270.666992188 399.666992188 244 383 c 0
 183 0 l 0
 59 0 l 0
 143 536 l 0
EndSplineSet
EndChar

StartChar: n
Encoding: 81 110 81
Width: 585
VWidth: 500
Flags: HW
LayerCount: 2
Fore
SplineSet
143 536 m 0
 245 536 l 0
 258 480 l 0
 319.333007812 522 384 543 452 543 c 0
 496.666992188 543 530.5 531.833007812 553.5 509.5 c 0
 576.5 487.166992188 588 457.333007812 588 420 c 0
 588 393.333007812 584.666992188 358.666992188 578 316 c 0
 527 0 l 0
 404 0 l 0
 453 312 l 0
 457 337.333007812 459 355 459 365 c 0
 459 409.666992188 433.666992188 432 383 432 c 0
 357.666992188 432 334.166992188 427.833007812 312.5 419.5 c 0
 290.833007812 411.166992188 268 399 244 383 c 0
 183 0 l 0
 59 0 l 0
 143 536 l 0
EndSplineSet
EndChar

StartChar: o
Encoding: 82 111 82
Width: 571
VWidth: 500
Flags: HW
LayerCount: 2
Fore
SplineSet
372 107 m 0
 390 115.666992188 404.666992188 131.833007812 416 155.5 c 0
 427.333007812 179.166992188 436.666992188 214 444 260 c 0
 450 305.333007812 453 336.666992188 453 354 c 0
 453 386.666992188 445.5 409.833007812 430.5 423.5 c 0
 415.5 437.166992188 390 444 354 444 c 0
 322.666992188 444 298 439 280 429 c 0
 262 419 247.5 401 236.5 375 c 0
 225.5 349 216 310.666992188 208 260 c 0
 203.333007812 225.333007812 201 200 201 184 c 0
 201 149.333007812 209 125.666992188 225 113 c 0
 241 100.333007812 265.666992188 94 299 94 c 0
 329.666992188 94 354 98.3330078125 372 107 c 0
79 179 m 0
 79 211.666992188 81.6669921875 245 87 279 c 0
 98.3330078125 349.666992188 115.166992188 404 137.5 442 c 0
 159.833007812 480 189.333007812 506.166992188 226 520.5 c 0
 262.666992188 534.833007812 311 542 371 542 c 0
 424.333007812 542 465.833007812 535 495.5 521 c 0
 525.166992188 507 546 486.166992188 558 458.5 c 0
 570 430.833007812 576 394.333007812 576 349 c 0
 576 317 573 281.333007812 567 242 c 0
 557 176.666992188 540.833007812 126.166992188 518.5 90.5 c 0
 496.166992188 54.8330078125 466.5 29.8330078125 429.5 15.5 c 0
 392.5 1.1669921875 344.333007812 -6 285 -6 c 0
 147.666992188 -6 79 55.6669921875 79 179 c 0
EndSplineSet
EndChar

StartChar: p
Encoding: 83 112 83
Width: 569
VWidth: 500
Flags: HW
LayerCount: 2
Fore
SplineSet
399.5 140 m 0
 421.833007812 167.333007812 438 211.333007812 448 272 c 0
 452 296 454 316 454 332 c 0
 454 369.333007812 447.166992188 397 433.5 415 c 0
 419.833007812 433 398 442 368 442 c 0
 252 441 l 0
 200 117 l 0
 219.333007812 110.333007812 236.166992188 105.666992188 250.5 103 c 0
 264.833007812 100.333007812 282.333007812 99 303 99 c 0
 345 99 377.166992188 112.666992188 399.5 140 c 0
141 518 m 0
 233.666992188 534 320.333007812 542 401 542 c 0
 461.666992188 542 506 526.5 534 495.5 c 0
 562 464.5 576 417 576 353 c 0
 576 322.333007812 572.666992188 287 566 247 c 0
 553.333007812 163.666992188 525.666992188 100.666992188 483 58 c 0
 440.333007812 15.3330078125 385 -6 317 -6 c 0
 262.333007812 -6 218.333007812 2.3330078125 185 19 c 0
 145 -237 l 0
 21 -237 l 0
 141 518 l 0
EndSplineSet
EndChar

StartChar: q
Encoding: 84 113 84
Width: 568
VWidth: 500
Flags: HW
LayerCount: 2
Fore
SplineSet
343 105 m 0
 363.666992188 112.333007812 385.333007812 122.666992188 408 136 c 0
 456 435 l 0
 445.333007812 436.333007812 437.666992188 437 433 437 c 0
 405 440.333007812 381.333007812 442 362 442 c 0
 314.666992188 442 279.666992188 428.5 257 401.5 c 0
 234.333007812 374.5 218 332 208 274 c 0
 202.666992188 240 200 214.333007812 200 197 c 0
 200 163.666992188 207.166992188 138.166992188 221.5 120.5 c 0
 235.833007812 102.833007812 255.333007812 94 280 94 c 0
 301.333007812 94 322.333007812 97.6669921875 343 105 c 0
395 55 m 0
 371 36.3330078125 343 21.5 311 10.5 c 0
 279 -0.5 249 -6 221 -6 c 0
 173.666992188 -6 138 9.6669921875 114 41 c 0
 90 72.3330078125 78 116.666992188 78 174 c 0
 78 202.666992188 81.3330078125 239.333007812 88 284 c 0
 102.666992188 376 132.833007812 442 178.5 482 c 0
 224.166992188 522 287 542 367 542 c 0
 408.333007812 542 449.833007812 539.166992188 491.5 533.5 c 0
 533.166992188 527.833007812 566.666992188 521 592 513 c 0
 473 -237 l 0
 349 -237 l 0
 395 55 l 0
EndSplineSet
EndChar

StartChar: r
Encoding: 85 114 85
Width: 411
VWidth: 500
Flags: HW
LayerCount: 2
Fore
SplineSet
144 536 m 0
 253 536 l 0
 257 468 l 0
 306.333007812 517.333007812 357.333007812 542 410 542 c 0
 434 542 453.333007812 539.666992188 468 535 c 0
 450 412 l 0
 430 414 408 415 384 415 c 0
 332.666992188 415 285.333007812 399.666992188 242 369 c 0
 183 0 l 0
 59 0 l 0
 144 536 l 0
EndSplineSet
EndChar

StartChar: s
Encoding: 86 115 86
Width: 510
VWidth: 500
Flags: HW
LayerCount: 2
Fore
SplineSet
148 -0.5 m 0
 108.666992188 3.1669921875 77.6669921875 8.3330078125 55 15 c 0
 66 88 l 0
 296 88 l 0
 344.666992188 88 371.666992188 104.666992188 377 138 c 0
 381 166 l 0
 382 178 l 0
 382 204 365 217 331 217 c 0
 244 217 l 0
 198 217 162 225.5 136 242.5 c 0
 110 259.5 97 285 97 319 c 0
 97 337.666992188 98 352.666992188 100 364 c 0
 107 403 l 0
 114.333007812 447.666992188 134.166992188 482 166.5 506 c 0
 198.833007812 530 249 542 317 542 c 0
 348.333007812 542 384 539.833007812 424 535.5 c 0
 464 531.166992188 496 526 520 520 c 0
 508 447 l 0
 294 447 l 0
 269.333007812 447 251.333007812 443 240 435 c 0
 228.666992188 427 221 413.666992188 217 395 c 0
 214 374 l 0
 212 363.333007812 211 355 211 349 c 0
 211 337.666992188 215.333007812 329.5 224 324.5 c 0
 232.666992188 319.5 247.333007812 317 268 317 c 0
 362 317 l 0
 403.333007812 317 436.333007812 307.666992188 461 289 c 0
 485.666992188 270.333007812 498 244.666992188 498 212 c 0
 498 200 497 187 495 173 c 0
 488 125 l 0
 480.666992188 79 458.5 45.6669921875 421.5 25 c 0
 384.5 4.3330078125 333.666992188 -6 269 -6 c 0
 227.666992188 -6 187.333007812 -4.1669921875 148 -0.5 c 0
EndSplineSet
EndChar

StartChar: t
Encoding: 87 116 87
Width: 400
VWidth: 500
Flags: HW
LayerCount: 2
Fore
SplineSet
124 119 m 0
 124 143.666992188 127 174 133 210 c 0
 174 436 l 0
 89 436 l 0
 102 516 l 0
 193 536 l 0
 234 686 l 0
 331 686 l 0
 307 536 l 0
 443 536 l 0
 428 436 l 0
 292 436 l 0
 256 209 l 0
 251.333007812 185.666992188 249 166.666992188 249 152 c 0
 249 134 253.5 120.833007812 262.5 112.5 c 0
 271.5 104.166992188 286 99 306 97 c 0
 368 91 l 0
 353 0 l 0
 276 0 l 0
 174.666992188 0 124 39.6669921875 124 119 c 0
EndSplineSet
EndChar

StartChar: u
Encoding: 88 117 88
Width: 585
VWidth: 500
Flags: HW
LayerCount: 2
Fore
SplineSet
114.5 27 m 0
 92.1669921875 49 81 80 81 120 c 0
 81 142 82.6669921875 162.333007812 86 181 c 0
 142 536 l 0
 266 536 l 0
 213 195 l 0
 211.666992188 189.666992188 211 181 211 169 c 0
 211 126.333007812 235.666992188 105 285 105 c 0
 311 105 334.666992188 109 356 117 c 0
 377.333007812 125 400.666992188 137 426 153 c 0
 487 536 l 0
 611 536 l 0
 526 0 l 0
 417 0 l 0
 411 56 l 0
 378.333007812 34.6669921875 347.666992188 19 319 9 c 0
 290.333007812 -1 255.666992188 -6 215 -6 c 0
 170.333007812 -6 136.833007812 5 114.5 27 c 0
EndSplineSet
EndChar

StartChar: v
Encoding: 89 118 89
Width: 545
VWidth: 500
Flags: HW
LayerCount: 2
Fore
SplineSet
87 536 m 0
 214 536 l 0
 281 117 l 0
 423 398 l 0
 434.333007812 424 443.333007812 448.166992188 450 470.5 c 0
 456.666992188 492.833007812 461.333007812 517.333007812 464 544 c 0
 577 544 l 0
 576.333007812 512.666992188 570.5 480.833007812 559.5 448.5 c 0
 548.5 416.166992188 533.666992188 381.666992188 515 345 c 0
 332 0 l 0
 190 0 l 0
 87 536 l 0
EndSplineSet
EndChar

StartChar: w
Encoding: 90 119 90
Width: 840
VWidth: 500
Flags: HW
LayerCount: 2
Fore
SplineSet
87 536 m 0
 214 536 l 0
 272 118 l 0
 443 536 l 0
 526 536 l 0
 600 118 l 0
 719 415 l 0
 725.666992188 433 732.333007812 454.333007812 739 479 c 0
 745.666992188 503.666992188 750 525.333007812 752 544 c 0
 872 544 l 0
 872 517.333007812 867.333007812 488 858 456 c 0
 848.666992188 424 837.666992188 394.666992188 825 368 c 0
 650 0 l 0
 519 0 l 0
 456 336 l 0
 310 0 l 0
 178 0 l 0
 87 536 l 0
EndSplineSet
EndChar

StartChar: x
Encoding: 91 120 91
Width: 547
VWidth: 500
Flags: HW
LayerCount: 2
Fore
SplineSet
383 258 m 0
 532 0 l 0
 404 0 l 0
 299 182 l 0
 143 0 l 0
 15 0 l 0
 246 273 l 0
 93 536 l 0
 220 536 l 0
 330 348 l 0
 476 536 l 0
 610 536 l 0
 383 258 l 0
EndSplineSet
EndChar

StartChar: y
Encoding: 92 121 92
Width: 569
VWidth: 500
Flags: HW
LayerCount: 2
Fore
SplineSet
96 -148 m 0
 136.666992188 -139.333007812 172.333007812 -123.5 203 -100.5 c 0
 233.666992188 -77.5 259.666992188 -44 281 0 c 0
 238.333007812 4 206.833007812 16.3330078125 186.5 37 c 0
 166.166992188 57.6669921875 152.666992188 91 146 137 c 0
 93 536 l 0
 221 536 l 0
 256 164 l 0
 259.333007812 141.333007812 266.666992188 125.666992188 278 117 c 0
 289.333007812 108.333007812 303.333007812 103.333007812 320 102 c 0
 455 419 l 0
 473.666992188 467.666992188 484.333007812 509.333007812 487 544 c 0
 602 544 l 0
 602 479.333007812 584.333007812 409.666992188 549 335 c 0
 393 6 l 0
 353.666992188 -76.6669921875 310.666992188 -136.333007812 264 -173 c 0
 217.333007812 -209.666992188 161.333007812 -231 96 -237 c 0
 96 -148 l 0
EndSplineSet
EndChar

StartChar: z
Encoding: 93 122 93
Width: 500
VWidth: 500
Flags: HW
LayerCount: 2
Fore
SplineSet
59 90 m 0
 380 436 l 0
 102 436 l 0
 117 536 l 0
 538 536 l 0
 524 446 l 0
 203 100 l 0
 477 100 l 0
 475.666992188 89.3330078125 473.166992188 72.5 469.5 49.5 c 0
 465.833007812 26.5 463 10 461 0 c 0
 45 0 l 0
 59 90 l 0
EndSplineSet
EndChar

StartChar: braceleft
Encoding: 94 123 94
Width: 315
VWidth: 500
Flags: HW
LayerCount: 2
Fore
SplineSet
138.5 -179 m 0
 110.166992188 -158.333007812 96 -127.333007812 96 -86 c 0
 96 -67.3330078125 100.5 -32 109.5 20 c 0
 118.5 72 123.666992188 102.333007812 125 111 c 0
 137 177 143 215 143 225 c 0
 143 243 138 256 128 264 c 0
 118 272 101.666992188 276 79 276 c 0
 97 391 l 0
 146.333007812 395.666992188 173.666992188 416 179 452 c 0
 211 656 l 0
 218.333007812 702 231 738.5 249 765.5 c 0
 267 792.5 292 812 324 824 c 0
 356 836 397.333007812 842 448 842 c 0
 432 742 l 0
 410.666992188 742 393.666992188 739 381 733 c 0
 368.333007812 727 358 716 350 700 c 0
 342 684 335.666992188 661 331 631 c 0
 300 432 l 0
 295.333007812 401.333007812 283.166992188 378 263.5 362 c 0
 243.833007812 346 219 336.666992188 189 334 c 0
 215 329.333007812 235 320 249 306 c 0
 263 292 270 274.333007812 270 253 c 0
 270 242.333007812 262.666992188 192.333007812 248 103 c 0
 232.666992188 16.3330078125 225 -35 225 -51 c 0
 225 -74.3330078125 230.666992188 -91 242 -101 c 0
 253.333007812 -111 271.333007812 -116 296 -116 c 0
 281 -210 l 0
 214.333007812 -210 166.833007812 -199.666992188 138.5 -179 c 0
EndSplineSet
EndChar

StartChar: bar
Encoding: 95 124 95
Width: 252
VWidth: 500
Flags: HW
LayerCount: 2
Fore
SplineSet
198 770 m 0
 298 770 l 0
 165 -72 l 0
 65 -72 l 0
 198 770 l 0
EndSplineSet
EndChar

StartChar: braceright
Encoding: 96 125 96
Width: 315
VWidth: 500
Flags: HW
LayerCount: 2
Fore
SplineSet
0 -116 m 0
 31.3330078125 -116 54.3330078125 -108.166992188 69 -92.5 c 0
 83.6669921875 -76.8330078125 93.6669921875 -52 99 -18 c 0
 138 219 l 0
 142 244.333007812 153.333007812 265.333007812 172 282 c 0
 190.666992188 298.666992188 215.333007812 309.333007812 246 314 c 0
 220.666992188 316 201 323.333007812 187 336 c 0
 173 348.666992188 166 367 166 391 c 0
 166 408.333007812 173.333007812 461.666992188 188 551 c 0
 199.333007812 624.333007812 205 665.666992188 205 675 c 0
 205 699.666992188 199.5 717 188.5 727 c 0
 177.5 737 160 742 136 742 c 0
 152 842 l 0
 272.666992188 842 333 795.333007812 333 702 c 0
 333 699.333007812 327 658 315 578 c 0
 312.333007812 558.666992188 308 529.166992188 302 489.5 c 0
 296 449.833007812 293 427 293 421 c 0
 293 391.666992188 314.333007812 375 357 371 c 0
 339 256 l 0
 317 256 298.833007812 251 284.5 241 c 0
 270.166992188 231 261.333007812 215.666992188 258 195 c 0
 221 -38 l 0
 214.333007812 -78.6669921875 203 -111.333007812 187 -136 c 0
 171 -160.666992188 146.833007812 -179.166992188 114.5 -191.5 c 0
 82.1669921875 -203.833007812 39 -210 -15 -210 c 0
 0 -116 l 0
EndSplineSet
EndChar

StartChar: asciitilde
Encoding: 97 126 97
Width: 432
VWidth: 500
Flags: HW
LayerCount: 2
Fore
SplineSet
336 542 m 0
 327.333007812 546.666992188 316.333007812 553.333007812 303 562 c 0
 291.666992188 570 282.166992188 576 274.5 580 c 0
 266.833007812 584 259.333007812 586 252 586 c 0
 234 586 217.666992188 582.833007812 203 576.5 c 0
 188.333007812 570.166992188 170 559.666992188 148 545 c 0
 138 587 l 0
 182 632.333007812 224 655 264 655 c 0
 272.666992188 655 281.666992188 652.666992188 291 648 c 0
 300.333007812 643.333007812 311.333007812 636.666992188 324 628 c 0
 336.666992188 619.333007812 346.5 613.166992188 353.5 609.5 c 0
 360.5 605.833007812 367.333007812 604 374 604 c 0
 403.333007812 604 436.666992188 619 474 649 c 0
 484 603 l 0
 464 582.333007812 444.333007812 565.833007812 425 553.5 c 0
 405.666992188 541.166992188 385.333007812 535 364 535 c 0
 354 535 344.666992188 537.333007812 336 542 c 0
EndSplineSet
EndChar

StartChar: inherent
Encoding: 98 -1 98
Width: 163
Flags: HW
LayerCount: 2
Fore
SplineSet
320 737 m 1
 312 695 288.666666667 660 250 632 c 1
 212.666666667 602.666666667 171.333333333 588 126 588 c 1
 147 683 l 1
 162.333333333 683 175.333333333 688.333333333 186 699 c 1
 200 709.666666667 208.333333333 722 211 736 c 2
 225 804 l 1
 334 804 l 1
 320 737 l 1
EndSplineSet
EndChar

StartChar: makewide
Encoding: 99 -1 99
Width: 330
Flags: HW
LayerCount: 2
Fore
SplineSet
454 131 m 2
 446 95.6666666667 429 65 403 39 c 128
 377 13 348.666666667 0 318 0 c 2
 176 0 l 2
 145.333333333 0 117 9.33333333333 91 28 c 128
 65 46.6666666667 43.6666666667 71.6666666667 27 103 c 1
 60 259 l 1
 72.6666666667 209 93 169.333333333 121 140 c 1
 150.333333333 110.666666667 181.333333333 96 214 96 c 2
 303 96 l 2
 313 96 322 101.333333333 330 112 c 0
 334.666666667 117.333333333 338.166666667 122.5 340.5 127.5 c 128
 342.833333333 132.5 345.333333333 139.666666667 348 149 c 1
 422 499 l 2
 423.333333333 508.333333333 424 515.333333333 424 520 c 0
 424 535.333333333 419 550.166666667 409 564.5 c 128
 399 578.833333333 382 586 358 586 c 2
 263 586 l 1
 284 681 l 1
 502 681 l 1
 507 586 l 1
 524.333333333 567.333333333 533 545.666666667 533 521 c 0
 533 513.666666667 532.666666667 508.333333333 532 505 c 2
 454 131 l 2
EndSplineSet
EndChar

StartChar: shortrr
Encoding: 100 -1 100
Width: 782
Flags: HW
LayerCount: 2
Fore
SplineSet
916 588 m 1
 460 588 l 2
 448 588 436.166666667 584.166666667 424.5 576.5 c 128
 412.833333333 568.833333333 405.666666667 559.666666667 403 549 c 2
 387 467 l 2
 384.333333333 451.666666667 388 439.333333333 398 430 c 1
 408 419.333333333 420.666666667 414 436 414 c 2
 605 414 l 1
 586 319 l 1
 417 319 l 2
 399.666666667 319 384 313.666666667 370 303 c 1
 355.333333333 293.666666667 346.666666667 281.333333333 344 266 c 2
 322 164 l 1
 321.333333333 156.666666667 321 151.333333333 321 148 c 0
 321 142 323.333333333 133.666666667 328 123 c 128
 332.666666667 112.333333333 339.666666667 105.666666667 349 103 c 1
 431 103 l 1
 412 8 l 1
 289 8 l 2
 261 8 238 18.6666666667 220 40 c 0
 208 54.6666666667 202 72 202 92 c 0
 202 96.6666666667 202.666666667 104.333333333 204 115 c 1
 237 273 l 1
 240.333333333 296.333333333 252.333333333 317 273 335 c 128
 293.666666667 353 317.333333333 364.333333333 344 369 c 1
 319.333333333 375 301.5 385.333333333 290.5 400 c 128
 279.5 414.666666667 274 429.333333333 274 444 c 0
 274 448.666666667 274.666666667 454.666666667 276 462 c 2
 301 585 l 1
 308.333333333 615.666666667 325 639.333333333 351 656 c 1
 377 675.333333333 406.666666667 685 440 685 c 2
 936 685 l 1
 916 588 l 1
EndSplineSet
EndChar

StartChar: anusvara
Encoding: 101 3202 101
Width: 749
Flags: HW
LayerCount: 2
Fore
SplineSet
781 149 m 2
 773 110.333333333 753.5 75.8333333333 722.5 45.5 c 128
 691.5 15.1666666667 659.666666667 0 627 0 c 2
 326 0 l 2
 287.333333333 0 256 16.3333333333 232 49 c 1
 216.666666667 72.3333333333 209 97.6666666667 209 125 c 0
 209 137 210.333333333 149.333333333 213 162 c 2
 292 540 l 2
 300 578.666666667 321.5 611.666666667 356.5 639 c 128
 391.5 666.333333333 430 680 472 680 c 2
 746 680 l 2
 786 680 818 665.333333333 842 636 c 1
 857.333333333 612.666666667 865 588 865 562 c 0
 865 551.333333333 863.666666667 539.666666667 861 527 c 2
 781 149 l 2
677 172 m 1
 751 519 l 2
 751.666666667 523.666666667 752 529.666666667 752 537 c 0
 752 549 749.333333333 559 744 567 c 1
 734 579.666666667 721.333333333 586 706 586 c 2
 488 586 l 2
 468.666666667 586 449.666666667 580 431 568 c 1
 412.333333333 554 401.666666667 540 399 526 c 2
 324 171 l 2
 323.333333333 167.666666667 323 163 323 157 c 0
 323 144.333333333 328 131.666666667 338 119 c 1
 352.666666667 104.333333333 369.666666667 97 389 97 c 2
 601 97 l 2
 617.666666667 97 633.666666667 104.666666667 649 120 c 128
 664.333333333 135.333333333 673.666666667 152.666666667 677 172 c 1
EndSplineSet
EndChar

StartChar: u0C83
Encoding: 102 3203 102
Width: 484
Flags: HW
LayerCount: 2
Fore
SplineSet
610 464 m 2
 604.666666667 438 590.833333333 415.666666667 568.5 397 c 128
 546.166666667 378.333333333 521.666666667 369 495 369 c 2
 344 369 l 2
 314.666666667 369 291.666666667 379 275 399 c 0
 263 413.666666667 257 431 257 451 c 0
 257 459 257.333333333 465.333333333 258 470 c 2
 280 579 l 1
 287.333333333 608.333333333 303.333333333 632.333333333 328 651 c 128
 352.666666667 669.666666667 380.333333333 679 411 679 c 2
 548 679 l 2
 566.666666667 679 583.333333333 674 598 664 c 1
 612 656.666666667 622.666666667 643.333333333 630 624 c 0
 633.333333333 616.666666667 635 607 635 595 c 0
 635 590.333333333 634.333333333 582.666666667 633 572 c 1
 610 464 l 2
535 108 m 2
 529 78.6666666667 515.333333333 53.3333333333 494 32 c 128
 472.666666667 10.6666666667 450 0 426 0 c 2
 267 0 l 2
 237.666666667 0 214.666666667 10 198 30 c 0
 185.333333333 45.3333333333 179 62.6666666667 179 82 c 0
 179 85.3333333333 179.666666667 91.6666666667 181 101 c 2
 203 210 l 2
 209 238.666666667 225 262.666666667 251 282 c 128
 277 301.333333333 304.333333333 311 333 311 c 2
 470 311 l 2
 500.666666667 311 523.666666667 300 539 278 c 1
 549.666666667 261.333333333 555 243 555 223 c 0
 555 217.666666667 554.333333333 209.666666667 553 199 c 1
 535 108 l 2
507 491 m 2
 519 552 l 1
 521.666666667 561.333333333 521 569.166666667 517 575.5 c 128
 513 581.833333333 505.666666667 585 495 585 c 2
 432 585 l 2
 422.666666667 585 413 582 403 576 c 128
 393 570 386.666666667 562 384 552 c 2
 373 498 l 1
 371.666666667 488 374 479.833333333 380 473.5 c 128
 386 467.166666667 393.666666667 464 403 464 c 2
 471 464 l 2
 477 464 484.166666667 466.666666667 492.5 472 c 128
 500.833333333 477.333333333 505.666666667 483.666666667 507 491 c 2
430 122 m 2
 442 185 l 1
 444.666666667 195 444.666666667 202.666666667 442 208 c 256
 439.333333333 213.333333333 435.333333333 216 430 216 c 2
 349 216 l 2
 339 216 330.166666667 213.5 322.5 208.5 c 128
 314.833333333 203.5 310.333333333 197.333333333 309 190 c 2
 297 130 l 1
 296.333333333 120.666666667 297.333333333 112.333333333 300 105 c 1
 304.666666667 97.6666666667 310 94 316 94 c 2
 398 94 l 2
 405.333333333 94 412.166666667 96.5 418.5 101.5 c 128
 424.833333333 106.5 428.666666667 113.333333333 430 122 c 2
EndSplineSet
EndChar

StartChar: avowel
Encoding: 103 3205 103
Width: 972
Flags: HW
LayerCount: 2
Fore
SplineSet
1033 137 m 2
 1025 99.6666666667 1005 67.5 973 40.5 c 128
 941 13.5 906 0 868 0 c 2
 341 0 l 2
 299 0 265.666666667 14 241 42 c 1
 223.666666667 60.6666666667 215 83 215 109 c 0
 215 121 215.666666667 130 217 136 c 2
 303 546 l 2
 311 584 331 616 363 642 c 128
 395 668 429.666666667 681 467 681 c 2
 643 681 l 1
 597 463 l 1
 490 463 l 1
 515 586 l 1
 473 586 l 2
 458.333333333 586 444.666666667 578.333333333 432 563 c 1
 417.333333333 548.333333333 407.666666667 529 403 505 c 2
 332 172 l 2
 331.333333333 168.666666667 331 164 331 158 c 0
 331 144 335.666666667 131 345 119 c 1
 361.666666667 104.333333333 379.333333333 97 398 97 c 2
 840 97 l 2
 854 97 868 101.333333333 882 110 c 128
 896 118.666666667 908 130.333333333 918 145 c 1
 923.333333333 154.333333333 927.333333333 162 930 168 c 128
 932.666666667 174 934.666666667 182 936 192 c 1
 1008 533 l 2
 1010.66666667 547 1008.33333333 560 1001 572 c 1
 991 582 979 587 965 587 c 2
 923 587 l 1
 908 513 l 2
 906.666666667 503.666666667 906 497.333333333 906 494 c 0
 906 466 922.333333333 438 955 410 c 1
 936 315 l 1
 526 315 l 1
 545 410 l 1
 832 410 l 1
 808.666666667 439.333333333 797 466 797 490 c 0
 797 496 797.333333333 500.333333333 798 503 c 2
 835 680 l 1
 998 680 l 2
 1026.66666667 680 1050.33333333 674 1069 662 c 1
 1090.33333333 651.333333333 1105.66666667 636.333333333 1115 617 c 1
 1120.33333333 604.333333333 1123 591.666666667 1123 579 c 0
 1123 568.333333333 1122.33333333 560.333333333 1121 555 c 2
 1033 137 l 2
EndSplineSet
EndChar

StartChar: aavowel
Encoding: 104 3206 104
Width: 1041
Flags: HW
LayerCount: 2
Fore
SplineSet
1178 489 m 1
 1172 452.333333333 1153.66666667 420.5 1123 393.5 c 128
 1092.33333333 366.5 1060.66666667 353 1028 353 c 2
 986 353 l 1
 1006 323.666666667 1014.66666667 301.333333333 1012 286 c 2
 975 104 l 2
 969 75.3333333333 952 50.8333333333 924 30.5 c 128
 896 10.1666666667 865 0 831 0 c 2
 318 2 l 2
 282.666666667 2 255.333333333 15.3333333333 236 42 c 0
 222 60.6666666667 215 82 215 106 c 0
 215 116 216.333333333 126.333333333 219 137 c 2
 305 547 l 2
 313 585 335.833333333 617 373.5 643 c 128
 411.166666667 669 452.333333333 682 497 682 c 2
 634 682 l 1
 588 464 l 1
 479 464 l 1
 504 587 l 1
 482 587 l 2
 466.666666667 587 451.666666667 580.833333333 437 568.5 c 128
 422.333333333 556.166666667 413.666666667 542.666666667 411 528 c 2
 336 173 l 2
 335.333333333 168.333333333 335 162.333333333 335 155 c 0
 335 141 338 129 344 119 c 1
 356 104.333333333 370.333333333 97 387 97 c 2
 797 97 l 2
 815.666666667 97 833.5 104.666666667 850.5 120 c 128
 867.5 135.333333333 877.666666667 153 881 173 c 1
 906 287 l 1
 909.333333333 305.666666667 902 328.333333333 884 355 c 1
 606 355 l 1
 625 450 l 1
 871 450 l 1
 859 474.666666667 853.333333333 491.666666667 854 501 c 1
 872 583 l 2
 877.333333333 609.666666667 893.666666667 632 921 650 c 128
 948.333333333 668 979 677 1013 677 c 2
 1101 677 l 2
 1134.33333333 677 1159.33333333 666 1176 644 c 1
 1190 627.333333333 1197 609 1197 589 c 0
 1197 583.666666667 1196.33333333 575.666666667 1195 565 c 1
 1178 489 l 1
1069 497 m 1
 1080 544 l 2
 1080.66666667 548.666666667 1081 554.666666667 1081 562 c 0
 1081 576.666666667 1074.66666667 584 1062 584 c 2
 1022 584 l 2
 1011.33333333 584 1000.66666667 579.833333333 990 571.5 c 128
 979.333333333 563.166666667 973.666666667 554 973 544 c 1
 966 511 l 2
 964.666666667 503.666666667 964 498.333333333 964 495 c 0
 964 487 965.166666667 480.333333333 967.5 475 c 128
 969.833333333 469.666666667 974 462 980 452 c 1
 1026 452 l 2
 1036 452 1045.16666667 456.166666667 1053.5 464.5 c 128
 1061.83333333 472.833333333 1067 483.666666667 1069 497 c 1
EndSplineSet
EndChar

StartChar: ivowel
Encoding: 105 3207 105
Width: 785
Flags: HW
LayerCount: 2
Fore
SplineSet
812 0 m 1
 744 0 l 2
 710.666666667 0 684.333333333 10.6666666667 665 32 c 0
 650.333333333 48.6666666667 643 66.6666666667 643 86 c 0
 643 89.3333333333 643.666666667 96.3333333333 645 107 c 1
 659 175 l 1
 550 175 l 2
 519.333333333 175 495.666666667 183.666666667 479 201 c 0
 466.333333333 213.666666667 460 229 460 247 c 0
 460 253 460.333333333 257.666666667 461 261 c 2
 476 335 l 2
 479.333333333 352.333333333 492 368.333333333 514 383 c 1
 538 395.666666667 563 402 589 402 c 2
 706 402 l 2
 723.333333333 402 739 396.666666667 753 386 c 1
 765 374 772.333333333 359.666666667 775 343 c 1
 815 534 l 2
 817.666666667 548.666666667 814 559.666666667 804 567 c 1
 796 575 782.333333333 579 763 579 c 2
 689 579 l 2
 670.333333333 579 653.166666667 573.166666667 637.5 561.5 c 128
 621.833333333 549.833333333 612.666666667 537.666666667 610 525 c 2
 596 457 l 1
 489 457 l 1
 501 520 l 2
 504.333333333 534.666666667 500.5 548.166666667 489.5 560.5 c 128
 478.5 572.833333333 463.666666667 579 445 579 c 2
 354 579 l 2
 337.333333333 579 322 573.5 308 562.5 c 128
 294 551.5 285.666666667 539 283 525 c 2
 269 457 l 2
 268.333333333 454.333333333 268 451.5 268 448.5 c 128
 268 444 268 444 268 443 c 0
 268 433.666666667 270.666666667 426.333333333 276 421 c 1
 281.333333333 410.333333333 290 405 302 405 c 2
 324 405 l 1
 305 310 l 1
 256 310 l 2
 222 310 195 323 175 349 c 0
 161 367.666666667 154 389 154 413 c 0
 154 423.666666667 154.666666667 432 156 438 c 2
 177 540 l 2
 182.333333333 564.666666667 193.833333333 587.5 211.5 608.5 c 128
 229.166666667 629.5 249.833333333 645.833333333 273.5 657.5 c 128
 297.166666667 669.166666667 322 675 348 675 c 2
 478 675 l 2
 504 675 526 668.833333333 544 656.5 c 128
 562 644.166666667 571 628 571 608 c 1
 583.666666667 629.333333333 600 645.333333333 620 656 c 1
 638.666666667 668.666666667 659 675 681 675 c 2
 804 675 l 2
 847.333333333 675 879.666666667 661.666666667 901 635 c 1
 917.666666667 616.333333333 926 594 926 568 c 0
 926 557.333333333 924.666666667 546.666666667 922 536 c 2
 886 364 l 2
 873.333333333 305.333333333 834 249 768 195 c 1
 754 127 l 1
 751.333333333 119 752.666666667 111 758 103 c 1
 765.333333333 95.6666666667 772 92 778 92 c 2
 827 92 l 1
 812 0 l 1
673 269 m 1
 677 283 l 1
 680.333333333 301.666666667 673.333333333 311 656 311 c 2
 593 311 l 2
 587.666666667 311 583 309.5 579 306.5 c 128
 575 303.5 572.333333333 299 571 293 c 0
 570.333333333 287.666666667 571.333333333 282.666666667 574 278 c 128
 576.666666667 273.333333333 580.333333333 271 585 271 c 2
 673 269 l 1
EndSplineSet
EndChar

StartChar: iivowel
Encoding: 106 3208 106
Width: 1219
Flags: HW
LayerCount: 2
Fore
SplineSet
1335 404 m 2
 1329.66666667 377.333333333 1314.66666667 350.666666667 1290 324 c 1
 1263.33333333 299.333333333 1233 281 1199 269 c 1
 1239.66666667 207 1258.33333333 166.666666667 1255 148 c 2
 1241 80 l 1
 1235.66666667 58.6666666667 1225.66666667 40.6666666667 1211 26 c 128
 1196.33333333 11.3333333333 1180.33333333 4 1163 4 c 2
 940 4 l 1
 959 99 l 1
 1101 99 l 2
 1109 99 1118 102.666666667 1128 110 c 1
 1137.33333333 119.333333333 1142.33333333 127.666666667 1143 135 c 1
 1144 140 l 1
 1146.66666667 157.333333333 1140.66666667 173.333333333 1126 188 c 1
 1076 262 l 1
 857 262 l 1
 829 134 l 2
 821 98.6666666667 802.166666667 68 772.5 42 c 128
 742.833333333 16 709.333333333 3 672 3 c 2
 329 3 l 2
 299.666666667 3 275.666666667 14.6666666667 257 38 c 0
 244.333333333 53.3333333333 238 72.6666666667 238 96 c 0
 238 100.666666667 238.666666667 108.333333333 240 119 c 1
 270 261 l 1
 163 261 l 1
 182 356 l 1
 289 356 l 1
 308 445 l 1
 317.333333333 493 354.666666667 540.333333333 420 587 c 1
 325 587 l 1
 346 682 l 1
 837 682 l 2
 849.666666667 682 860.166666667 686.166666667 868.5 694.5 c 128
 876.833333333 702.833333333 882.333333333 712.333333333 885 723 c 2
 896 777 l 1
 1006 777 l 1
 995 723 l 1
 989 689.666666667 971.333333333 659.666666667 942 633 c 1
 915.333333333 606.333333333 882.666666667 589.333333333 844 582 c 1
 866 564.666666667 882 546.333333333 892 527 c 0
 896.666666667 519 899.833333333 510.333333333 901.5 501 c 128
 903.166666667 491.666666667 903.333333333 483 902 475 c 2
 877 358 l 1
 1019 358 l 1
 1006.33333333 372.666666667 1000 390 1000 410 c 0
 1000 418 1001.33333333 427.333333333 1004 438 c 2
 1019 513 l 1
 1026.33333333 544.333333333 1042.33333333 571 1067 593 c 1
 1095 615 1123.33333333 626 1152 626 c 2
 1266 626 l 2
 1299.33333333 626 1324.33333333 614 1341 590 c 1
 1353.66666667 574.666666667 1360 555 1360 531 c 0
 1360 525 1359.33333333 516.666666667 1358 506 c 1
 1335 404 l 2
1230 420 m 2
 1245 494 l 2
 1247.66666667 504.666666667 1246.66666667 513.833333333 1242 521.5 c 128
 1237.33333333 529.166666667 1229.66666667 533 1219 533 c 2
 1165 533 l 2
 1155.66666667 533 1147.16666667 529.333333333 1139.5 522 c 128
 1131.83333333 514.666666667 1127.66666667 507.333333333 1127 500 c 1
 1111 419 l 2
 1108.33333333 407 1109.66666667 396 1115 386 c 1
 1151 360 l 1
 1169.66666667 357.333333333 1186.83333333 362.666666667 1202.5 376 c 128
 1218.16666667 389.333333333 1227.33333333 404 1230 420 c 2
767 360 m 1
 793 483 l 1
 794.333333333 493.666666667 795 501.666666667 795 507 c 0
 795 543 779.333333333 571 748 591 c 1
 536 591 l 1
 470 550.333333333 431.666666667 504.333333333 421 453 c 2
 400 358 l 1
 767 360 l 1
730 175 m 1
 748 263 l 1
 380 263 l 1
 358 161 l 2
 355.333333333 145.666666667 358.166666667 131.5 366.5 118.5 c 128
 374.833333333 105.5 386 99 400 99 c 2
 644 99 l 2
 661.333333333 99 678.333333333 106.166666667 695 120.5 c 128
 711.666666667 134.833333333 723.333333333 153 730 175 c 1
EndSplineSet
EndChar

StartChar: uvowel
Encoding: 107 3209 107
Width: 1463
Flags: HW
LayerCount: 2
Fore
SplineSet
1526 145 m 2
 1520.66666667 119 1509.66666667 95 1493 73 c 1
 1478.33333333 51 1458.66666667 33.5 1434 20.5 c 128
 1409.33333333 7.5 1385 1 1361 1 c 2
 1175 1 l 2
 1147 1 1122.83333333 7.16666666667 1102.5 19.5 c 128
 1082.16666667 31.8333333333 1067 49.6666666667 1057 73 c 1
 1051.66666667 88.3333333333 1049 104.333333333 1049 121 c 0
 1049 125 1049.66666667 132.333333333 1051 143 c 1
 1135 539 l 2
 1137.66666667 553 1135.16666667 564.166666667 1127.5 572.5 c 128
 1119.83333333 580.833333333 1109 585 1095 585 c 2
 918 585 l 2
 908 585 896.666666667 581 884 573 c 1
 873.333333333 563 866.666666667 552 864 540 c 2
 779 136 l 2
 773 110 761.833333333 87 745.5 67 c 128
 729.166666667 47 708 30.8333333333 682 18.5 c 128
 656 6.16666666667 629 0 601 0 c 2
 355 0 l 2
 310.333333333 0 275.666666667 15.3333333333 251 46 c 1
 232.333333333 67.3333333333 223 92.3333333333 223 121 c 0
 223 131.666666667 224.333333333 143.333333333 227 156 c 2
 306 531 l 2
 311.333333333 557.666666667 321.666666667 582.666666667 337 606 c 1
 345 616.666666667 354.5 626.666666667 365.5 636 c 128
 376.5 645.333333333 387.333333333 653 398 659 c 1
 424 671.666666667 448 678 470 678 c 2
 674 678 l 1
 632 483 l 2
 624 445.666666667 606 414.5 578 389.5 c 128
 550 364.5 519.666666667 352 487 352 c 2
 413 352 l 1
 432 447 l 1
 478 447 l 2
 481.333333333 447 485.5 447.833333333 490.5 449.5 c 128
 495.5 451.166666667 500.333333333 453.333333333 505 456 c 1
 513 462 518.333333333 470.333333333 521 481 c 2
 542 581 l 1
 474 581 l 2
 458.666666667 581 445.666666667 575.666666667 435 565 c 1
 421 554.333333333 412.666666667 542 410 528 c 2
 331 153 l 2
 330.333333333 150.333333333 330 146 330 140 c 0
 330 128 333 118.333333333 339 111 c 0
 349.666666667 98.3333333333 362 92 376 92 c 2
 608 92 l 2
 622.666666667 92 635.333333333 97 646 107 c 128
 656.666666667 117 664.333333333 129.666666667 669 145 c 1
 751 537 l 2
 759 577 778.333333333 610 809 636 c 1
 839.666666667 664 873 678 909 678 c 2
 1127 678 l 2
 1155 678 1178.66666667 671.833333333 1198 659.5 c 128
 1217.33333333 647.166666667 1230.66666667 631.333333333 1238 612 c 1
 1240.66666667 602.666666667 1242.33333333 595.666666667 1243 591 c 128
 1243.66666667 586.333333333 1244 579 1244 569 c 0
 1244 563.666666667 1243.33333333 555.666666667 1242 545 c 1
 1160 156 l 2
 1159.33333333 152.666666667 1159 148 1159 142 c 0
 1159 132.666666667 1161.33333333 123.666666667 1166 115 c 1
 1176.66666667 102.333333333 1188 96 1200 96 c 2
 1355 96 l 2
 1369.66666667 96 1382.33333333 101 1393 111 c 128
 1403.66666667 121 1411.33333333 133.666666667 1416 149 c 1
 1497 532 l 2
 1499.66666667 544 1497 553.666666667 1489 561 c 1
 1483.66666667 568.333333333 1473.33333333 572 1458 572 c 2
 1439 572 l 1
 1462 681 l 1
 1522 681 l 2
 1556 681 1580.66666667 669 1596 645 c 1
 1608 629.666666667 1614 611 1614 589 c 0
 1614 576.333333333 1613.33333333 567 1612 561 c 2
 1526 145 l 2
EndSplineSet
EndChar

StartChar: uuvowel
Encoding: 108 3210 108
Width: 1752
Flags: HW
LayerCount: 2
Fore
SplineSet
1811 137 m 2
 1803 98.3333333333 1784.66666667 67 1756 43 c 1
 1725.33333333 15 1693.66666667 1 1661 1 c 2
 1605 1 l 2
 1572.33333333 1 1546.33333333 13 1527 37 c 0
 1514.33333333 52.3333333333 1508 71 1508 93 c 0
 1508 105.666666667 1508.66666667 115 1510 121 c 2
 1529 216 l 1
 1638 216 l 1
 1619 121 l 2
 1617.66666667 115.666666667 1618.66666667 109.333333333 1622 102 c 1
 1627.33333333 96.6666666667 1632.66666667 94 1638 94 c 2
 1671 94 l 2
 1677 94 1682.33333333 97.1666666667 1687 103.5 c 128
 1691.66666667 109.833333333 1695.66666667 118.333333333 1699 129 c 1
 1781 516 l 2
 1782.33333333 525.333333333 1783 532.333333333 1783 537 c 0
 1783 547 1780.33333333 556 1775 564 c 0
 1767 576.666666667 1755.66666667 583 1741 583 c 2
 1606 583 l 2
 1586.66666667 583 1569.33333333 576.333333333 1554 563 c 128
 1538.66666667 549.666666667 1528.66666667 533.666666667 1524 515 c 1
 1447 154 l 2
 1441.66666667 126 1430.33333333 99.6666666667 1413 75 c 0
 1405.66666667 65 1396.5 55 1385.5 45 c 128
 1374.5 35 1363.66666667 27 1353 21 c 0
 1329 6.33333333333 1304.66666667 -1 1280 -1 c 2
 1082 -1 l 2
 1044.66666667 -1 1017.66666667 13.6666666667 1001 43 c 1
 988.333333333 63 982 85 982 109 c 0
 982 121 983.333333333 133.333333333 986 146 c 2
 1067 529 l 2
 1069.66666667 543.666666667 1066.83333333 556.333333333 1058.5 567 c 128
 1050.16666667 577.666666667 1038.66666667 583 1024 583 c 2
 887 583 l 2
 872.333333333 583 858.333333333 576.5 845 563.5 c 128
 831.666666667 550.5 823.666666667 537 821 523 c 2
 744 159 l 2
 734 113.666666667 710.333333333 75.1666666667 673 43.5 c 128
 635.666666667 11.8333333333 595.333333333 -4 552 -4 c 2
 369 -4 l 2
 319.666666667 -4 281 11.3333333333 253 42 c 0
 233 63.3333333333 223 89.3333333333 223 120 c 0
 223 130.666666667 224.333333333 141.333333333 227 152 c 2
 308 535 l 2
 316 575 337.833333333 608.5 373.5 635.5 c 128
 409.166666667 662.5 448.333333333 676 491 676 c 2
 677 676 l 1
 640 499 l 2
 632 461.666666667 612.333333333 430 581 404 c 1
 551.666666667 377.333333333 518.333333333 364 481 364 c 2
 435 364 l 1
 456 459 l 1
 488 459 l 2
 495.333333333 459 504 462 514 468 c 1
 524 476 529.333333333 484 530 492 c 1
 548 580 l 1
 485 580 l 2
 468.333333333 580 453 574.5 439 563.5 c 128
 425 552.5 416.666666667 540 414 526 c 2
 336 157 l 2
 332.666666667 139.666666667 336.333333333 123.666666667 347 109 c 1
 359.666666667 96.3333333333 375.333333333 90 394 90 c 2
 566 90 l 2
 581.333333333 90 595.333333333 96.3333333333 608 109 c 0
 614 114.333333333 619.333333333 121.333333333 624 130 c 128
 628.666666667 138.666666667 631.666666667 147.666666667 633 157 c 2
 711 526 l 2
 716.333333333 554 728.666666667 579.666666667 748 603 c 128
 767.333333333 626.333333333 790.5 644.166666667 817.5 656.5 c 128
 844.5 668.833333333 871 675 897 675 c 2
 1048 675 l 2
 1076.66666667 675 1101.5 668.833333333 1122.5 656.5 c 128
 1143.5 644.166666667 1158.66666667 626 1168 602 c 0
 1174 588 1177 571.666666667 1177 553 c 0
 1177 548.333333333 1176.33333333 539.666666667 1175 527 c 1
 1094 144 l 2
 1092.66666667 136.666666667 1092 131.333333333 1092 128 c 0
 1092 120 1094.66666667 113.333333333 1100 108 c 1
 1108 97.3333333333 1119.33333333 92 1134 92 c 2
 1262 92 l 2
 1279.33333333 92 1295.33333333 98.6666666667 1310 112 c 128
 1324.66666667 125.333333333 1334.33333333 141.333333333 1339 160 c 1
 1414 515 l 2
 1416.66666667 529.666666667 1421 543.5 1427 556.5 c 128
 1433 569.5 1441 583 1451 597 c 1
 1470.33333333 621.666666667 1493.5 641.166666667 1520.5 655.5 c 128
 1547.5 669.833333333 1575 677 1603 677 c 2
 1761 677 l 2
 1790.33333333 677 1816 670 1838 656 c 1
 1859.33333333 640.666666667 1874 621 1882 597 c 1
 1888 583 1891 567.333333333 1891 550 c 0
 1891 540 1889.66666667 528.666666667 1887 516 c 2
 1811 137 l 2
EndSplineSet
EndChar

StartChar: rvocalicvowel.part
Encoding: 110 -1 110
Width: 1000
Flags: HW
LayerCount: 2
Fore
SplineSet
1058 145 m 2
 1050 106.333333333 1034 72.6666666667 1010 44 c 1
 982 15.3333333333 954.666666667 1 928 1 c 2
 724 1 l 2
 696 1 671.166666667 7.66666666667 649.5 21 c 128
 627.833333333 34.3333333333 613 53 605 77 c 1
 587.666666667 52.3333333333 569.666666667 33.5 551 20.5 c 128
 532.333333333 7.5 515.333333333 1 500 1 c 2
 268 1 l 2
 237.333333333 1 213.666666667 10.6666666667 197 30 c 0
 184.333333333 45.3333333333 178 62.6666666667 178 82 c 0
 178 86.6666666667 178.666666667 93.6666666667 180 103 c 2
 219 286 l 1
 384 286 l 2
 417.333333333 286 443.333333333 276.333333333 462 257 c 0
 477.333333333 241.666666667 485 224.666666667 485 206 c 0
 485 202.666666667 484.333333333 196.333333333 483 187 c 2
 474 138 l 1
 365 138 l 1
 372 173 l 2
 374.666666667 185.666666667 367.666666667 192 351 192 c 2
 309 192 l 1
 298 138 l 1
 297.333333333 127.333333333 298.666666667 118 302 110 c 1
 309.333333333 102 318.333333333 98 329 98 c 2
 477 98 l 2
 496.333333333 98 513.333333333 103 528 113 c 128
 542.666666667 123 552.333333333 135.666666667 557 151 c 1
 641 548 l 2
 643.666666667 560.666666667 640.166666667 570.5 630.5 577.5 c 128
 620.833333333 584.5 607.333333333 588 590 588 c 2
 446 588 l 2
 440.666666667 588 435 587.333333333 429 586 c 128
 423 584.666666667 415 581.666666667 405 577 c 128
 395 572.333333333 388.666666667 565 386 555 c 2
 371 480 l 1
 413 480 l 2
 423 480 432.666666667 483.666666667 442 491 c 128
 451.333333333 498.333333333 457.333333333 508 460 520 c 2
 465 548 l 1
 574 548 l 1
 567 515 l 2
 559 479.666666667 541.5 449 514.5 423 c 128
 487.5 397 458 384 426 384 c 2
 240 384 l 1
 280 575 l 1
 287.333333333 604.333333333 304.666666667 629.666666667 332 651 c 128
 359.333333333 672.333333333 390.666666667 683 426 683 c 2
 645 683 l 2
 682.333333333 683 711.666666667 670.666666667 733 646 c 0
 747.666666667 628.666666667 755 608 755 584 c 0
 755 572 754.333333333 563 753 557 c 2
 674 181 l 1
 680 157.666666667 691.166666667 138.166666667 707.5 122.5 c 128
 723.833333333 106.833333333 740.666666667 99 758 99 c 2
 886 99 l 2
 901.333333333 99 915.333333333 105.333333333 928 118 c 0
 934 123.333333333 939.333333333 130.333333333 944 139 c 128
 948.666666667 147.666666667 951.666666667 156.666666667 953 166 c 2
 1025 507 l 1
 1026.33333333 517.666666667 1027 525.333333333 1027 530 c 0
 1027 542.666666667 1023.33333333 554 1016 564 c 0
 1005.33333333 579.333333333 990 587 970 587 c 2
 825 587 l 1
 846 682 l 1
 1004 682 l 2
 1019.33333333 682 1034.66666667 688.333333333 1050 701 c 1
 1062.66666667 713.666666667 1071.33333333 729.666666667 1076 749 c 1
 1087 803 l 1
 1196 803 l 1
 1182 735 l 2
 1176.66666667 711 1166.33333333 689.666666667 1151 671 c 1
 1137 651.666666667 1117.66666667 637 1093 627 c 1
 1113 615 1125.66666667 601.166666667 1131 585.5 c 128
 1136.33333333 569.833333333 1139 560.166666667 1139 556.5 c 128
 1139 551 1139 551 1139 544 c 0
 1139 538.666666667 1138.33333333 530.666666667 1137 520 c 1
 1058 145 l 2
EndSplineSet
EndChar

StartChar: lvocalicvowel.part
Encoding: 112 -1 112
Width: 785
Flags: HW
LayerCount: 2
Fore
SplineSet
728 145 m 1
 725.333333333 130.333333333 729 120 739 114 c 0
 743.666666667 111.333333333 748.666666667 110 754 110 c 0
 769.333333333 110 782 116 792 128 c 1
 919 266 l 1
 990 210 l 1
 839 54 l 1
 819.666666667 29.3333333333 797.666666667 14.3333333333 773 9 c 0
 757.666666667 5.66666666667 737.666666667 7.83333333333 713 15.5 c 128
 688.333333333 23.1666666667 668.333333333 35.6666666667 653 53 c 1
 643 65.6666666667 636.333333333 74.3333333333 633 79 c 0
 623 93.6666666667 618 109.333333333 618 126 c 0
 618 129.333333333 618.666666667 135.166666667 620 143.5 c 128
 621.333333333 151.833333333 646.666666667 186.333333333 696 247 c 0
 711.333333333 266.333333333 735.666666667 296 769 336 c 1
 786.333333333 368.666666667 799.666666667 412.333333333 809 467 c 0
 811.666666667 484.333333333 814.333333333 508.333333333 817 539 c 1
 819.666666667 553.666666667 816 564.666666667 806 572 c 1
 798 580 784.333333333 584 765 584 c 2
 691 584 l 2
 672.333333333 584 655.166666667 578.166666667 639.5 566.5 c 128
 623.833333333 554.833333333 614.666666667 542.666666667 612 530 c 2
 598 462 l 1
 491 462 l 1
 503 525 l 2
 506.333333333 539.666666667 502.5 553.166666667 491.5 565.5 c 128
 480.5 577.833333333 465.666666667 584 447 584 c 2
 356 584 l 2
 339.333333333 584 324 578.5 310 567.5 c 128
 296 556.5 287.666666667 544 285 530 c 2
 271 462 l 2
 270.333333333 459.333333333 270 456.5 270 453.5 c 128
 270 449 270 449 270 448 c 0
 270 438.666666667 272.666666667 431.333333333 278 426 c 1
 283.333333333 415.333333333 292 410 304 410 c 2
 326 410 l 1
 307 315 l 1
 258 315 l 2
 224 315 197 328 177 354 c 0
 163 372.666666667 156 394 156 418 c 0
 156 428.666666667 156.666666667 437 158 443 c 2
 179 545 l 2
 184.333333333 569.666666667 195.833333333 592.5 213.5 613.5 c 128
 231.166666667 634.5 251.833333333 650.833333333 275.5 662.5 c 128
 299.166666667 674.166666667 324 680 350 680 c 2
 480 680 l 2
 506 680 528 673.833333333 546 661.5 c 128
 564 649.166666667 573 633 573 613 c 1
 585.666666667 634.333333333 602 650.333333333 622 661 c 1
 640.666666667 673.666666667 661 680 683 680 c 2
 806 680 l 2
 849.333333333 680 881.666666667 666.666666667 903 640 c 1
 919.666666667 621.333333333 928 599 928 573 c 0
 928 562.333333333 926.666666667 551.666666667 924 541 c 2
 888 369 l 2
 883.333333333 347.666666667 874 327 860 307 c 1
 858.666666667 303.666666667 828.666666667 268.666666667 770 202 c 0
 760.666666667 192 753.666666667 184.666666667 749 180 c 0
 735 164.666666667 728 153 728 145 c 1
EndSplineSet
EndChar

StartChar: evowel
Encoding: 113 3214 113
Width: 949
Flags: HW
LayerCount: 2
Fore
SplineSet
1009 145 m 2
 1001 106.333333333 982.166666667 72.6666666667 952.5 44 c 128
 922.833333333 15.3333333333 891 1 857 1 c 2
 650 1 l 2
 626 1 606.333333333 7.33333333333 591 20 c 0
 583.666666667 26 578.666666667 32.8333333333 576 40.5 c 128
 573.333333333 48.1666666667 572 57 572 67 c 1
 562 47 547.666666667 30.8333333333 529 18.5 c 128
 510.333333333 6.16666666667 491.333333333 0 472 0 c 2
 314 0 l 2
 273.333333333 0 241 13.3333333333 217 40 c 0
 199.666666667 58.6666666667 191 81.3333333333 191 108 c 0
 191 113.333333333 191.666666667 122.333333333 193 135 c 1
 250 408 l 1
 413 408 l 2
 431.666666667 408 448.166666667 400.833333333 462.5 386.5 c 128
 476.833333333 372.166666667 486.666666667 353 492 329 c 1
 498 310.333333333 501 290 501 268 c 0
 501 258 500.666666667 250.666666667 500 246 c 1
 394 218 l 1
 394 237.333333333 393.333333333 250.666666667 392 258 c 128
 390.666666667 265.333333333 387.333333333 275 382 287 c 1
 372.666666667 304.333333333 358.333333333 313 339 313 c 1
 307 162 l 1
 304.333333333 143.333333333 307.666666667 127.333333333 317 114 c 1
 327.666666667 101.333333333 341.666666667 95 359 95 c 2
 462 95 l 2
 479.333333333 95 494.333333333 101.333333333 507 114 c 0
 515 121.333333333 521 128.666666667 525 136 c 128
 529 143.333333333 532.333333333 152 535 162 c 2
 549 230 l 1
 659 230 l 1
 647 170 l 2
 646.333333333 166.666666667 646 161 646 153 c 0
 646 141 650 129.666666667 658 119 c 0
 670.666666667 103.666666667 686.333333333 96 705 96 c 2
 819 96 l 2
 838.333333333 96 856.166666667 103.333333333 872.5 118 c 128
 888.833333333 132.666666667 899.333333333 150.666666667 904 172 c 2
 974 499 l 2
 975.333333333 508.333333333 976 515.333333333 976 520 c 0
 976 535.333333333 971 549 961 561 c 1
 948.333333333 577.666666667 930 586 906 586 c 2
 815 586 l 1
 836 681 l 1
 941 681 l 2
 974.333333333 681 1003 673.666666667 1027 659 c 128
 1051 644.333333333 1068.33333333 624 1079 598 c 0
 1085 582.666666667 1088 565 1088 545 c 0
 1088 536.333333333 1086.66666667 526.666666667 1084 516 c 2
 1009 145 l 2
EndSplineSet
EndChar

StartChar: eevowel
Encoding: 114 3215 114
Width: 946
Flags: HW
LayerCount: 2
Fore
SplineSet
1009 161 m 2
 1003.66666667 134.333333333 990.333333333 107 969 79 c 1
 959.666666667 68.3333333333 948.833333333 57.6666666667 936.5 47 c 128
 924.166666667 36.3333333333 910.666666667 27.3333333333 896 20 c 1
 863.333333333 6 833 -1 805 -1 c 2
 650 1 l 2
 628 1 610 8 596 22 c 1
 590 29.3333333333 584.666666667 37.8333333333 580 47.5 c 128
 575.333333333 57.1666666667 573 67 573 77 c 1
 537.666666667 25.6666666667 495.333333333 0 446 0 c 2
 325 0 l 2
 279 0 244 14.6666666667 220 44 c 1
 200.666666667 66 191 91 191 119 c 0
 191 125 191.666666667 134.333333333 193 147 c 1
 247 407 l 1
 412 407 l 2
 429.333333333 407 444.666666667 400.333333333 458 387 c 128
 471.333333333 373.666666667 481.666666667 354 489 328 c 0
 492.333333333 318 494.333333333 306.333333333 495 293 c 128
 495.666666667 279.666666667 496 263.666666667 496 245 c 1
 387 217 l 1
 387 235.666666667 386.333333333 249.333333333 385 258 c 128
 383.666666667 266.666666667 380.333333333 275.666666667 375 285 c 0
 365.666666667 303.666666667 352.333333333 313 335 313 c 1
 303 162 l 1
 300.333333333 143.333333333 303.666666667 127.333333333 313 114 c 1
 323.666666667 101.333333333 337.666666667 95 355 95 c 2
 457 95 l 2
 475.666666667 95 491.333333333 101.333333333 504 114 c 0
 512 121.333333333 518 128.666666667 522 136 c 128
 526 143.333333333 529.333333333 152 532 162 c 2
 546 230 l 1
 656 230 l 1
 644 170 l 2
 643.333333333 166.666666667 643 161.333333333 643 154 c 0
 643 142 646.666666667 129.666666667 654 117 c 1
 666.666666667 102.333333333 681.666666667 95 699 95 c 2
 816 95 l 2
 834.666666667 95 852.5 102.666666667 869.5 118 c 128
 886.5 133.333333333 896.666666667 151 900 171 c 1
 970 498 l 2
 971.333333333 507.333333333 972 514.333333333 972 519 c 0
 972 534.333333333 967 548 957 560 c 0
 943 576.666666667 923.666666667 585 899 585 c 2
 797 585 l 1
 790 552 l 2
 785.333333333 528 769.833333333 507.166666667 743.5 489.5 c 128
 717.166666667 471.833333333 687.666666667 463 655 463 c 2
 528 463 l 2
 490 463 460.333333333 475 439 499 c 0
 422.333333333 517 414 538.333333333 414 563 c 0
 414 567.666666667 414.666666667 574.666666667 416 584 c 1
 437 679 l 1
 546 679 l 1
 528 598 l 1
 526.666666667 586 529.5 576.166666667 536.5 568.5 c 128
 543.5 560.833333333 551.666666667 557 561 557 c 2
 649 557 l 2
 659 557 668 562 676 572 c 1
 685.333333333 579.333333333 691.333333333 590.666666667 694 606 c 2
 709 678 l 1
 933 678 l 2
 968.333333333 678 998.5 670.333333333 1023.5 655 c 128
 1048.5 639.666666667 1065.16666667 621.333333333 1073.5 600 c 128
 1081.83333333 578.666666667 1086 559.333333333 1086 542 c 0
 1086 532 1084.66666667 521.666666667 1082 511 c 2
 1009 161 l 2
EndSplineSet
EndChar

StartChar: aivowel
Encoding: 115 3216 115
Width: 1003
Flags: HW
LayerCount: 2
Fore
SplineSet
1061 147 m 2
 1053 106.333333333 1031.33333333 71.3333333333 996 42 c 128
 960.666666667 12.6666666667 922.666666667 -2 882 -2 c 2
 727 0 l 2
 700.333333333 0 677 7.33333333333 657 22 c 1
 637 38.6666666667 624.333333333 58.6666666667 619 82 c 1
 599.666666667 57.3333333333 578.166666667 37.6666666667 554.5 23 c 128
 530.833333333 8.33333333333 508.333333333 1 487 1 c 2
 315 1 l 2
 274.333333333 1 242 14.3333333333 218 41 c 0
 200.666666667 59.6666666667 192 82.3333333333 192 109 c 0
 192 114.333333333 192.666666667 123.333333333 194 136 c 1
 226 285 l 1
 234 327 255.666666667 362.666666667 291 392 c 128
 326.333333333 421.333333333 365.333333333 436 408 436 c 2
 598 436 l 1
 568 294 l 1
 564.666666667 274.666666667 557.666666667 256.666666667 547 240 c 128
 536.333333333 223.333333333 522.666666667 208 506 194 c 0
 470.666666667 165.333333333 431.333333333 149.333333333 388 146 c 1
 381 241 l 1
 389 241 397.666666667 242.5 407 245.5 c 128
 416.333333333 248.5 424.666666667 252.666666667 432 258 c 0
 447.333333333 268.666666667 456.333333333 281.333333333 459 296 c 2
 467 336 l 1
 421 336 l 2
 399.666666667 336 381.333333333 330 366 318 c 1
 348.666666667 308 337.666666667 294.333333333 333 277 c 1
 312 174 l 1
 310.666666667 163.333333333 310 156.333333333 310 153 c 0
 310 142.333333333 313.666666667 131 321 119 c 1
 329 102.333333333 342.666666667 94 362 94 c 2
 479 94 l 2
 502.333333333 94 524.333333333 102.333333333 545 119 c 128
 565.666666667 135.666666667 578.666666667 154.666666667 584 176 c 1
 592 216 l 1
 702 216 l 1
 694 176 l 2
 692.666666667 166.666666667 692 159.666666667 692 155 c 0
 692 141 696.666666667 129 706 119 c 1
 716.666666667 102.333333333 733 94 755 94 c 2
 886 94 l 2
 901.333333333 94 916.666666667 101.666666667 932 117 c 1
 946.666666667 134.333333333 956.666666667 153.666666667 962 175 c 1
 1033 516 l 2
 1034.33333333 525.333333333 1035 532 1035 536 c 0
 1035 546 1031.83333333 556.333333333 1025.5 567 c 128
 1019.16666667 577.666666667 1006.66666667 583 988 583 c 2
 871 583 l 2
 855.666666667 583 841.5 577.166666667 828.5 565.5 c 128
 815.5 553.833333333 807.666666667 539.666666667 805 523 c 1
 797 488 l 1
 688 488 l 1
 697 528 l 1
 699.666666667 543.333333333 694.666666667 556 682 566 c 0
 676 570.666666667 668.333333333 574.333333333 659 577 c 128
 649.666666667 579.666666667 639 581 627 581 c 2
 458 581 l 2
 442.666666667 581 427.333333333 574.666666667 412 562 c 1
 396.666666667 552 382.666666667 536 370 514 c 1
 300 568 l 1
 321.333333333 602 346.333333333 628.5 375 647.5 c 128
 403.666666667 666.5 431.333333333 676 458 676 c 2
 670 676 l 2
 698.666666667 676 721.5 669 738.5 655 c 128
 755.5 641 765.333333333 624 768 604 c 1
 783.333333333 626 801.666666667 643.333333333 823 656 c 1
 833.666666667 663.333333333 844 668.333333333 854 671 c 128
 864 673.666666667 875 675 887 675 c 2
 1024 675 l 2
 1052 675 1076.16666667 669.166666667 1096.5 657.5 c 128
 1116.83333333 645.833333333 1131 629.333333333 1139 608 c 0
 1144.33333333 594 1147 579.333333333 1147 564 c 0
 1147 559.333333333 1146.33333333 551.666666667 1145 541 c 1
 1061 147 l 2
EndSplineSet
EndChar

StartChar: ovowel
Encoding: 116 3218 116
Width: 918
Flags: HW
LayerCount: 2
Fore
SplineSet
968 117 m 0
 960.666992188 83 945.333007812 56 922 36 c 0
 900 12.6669921875 875 1 847 1 c 0
 637 1 l 0
 615.666992188 1 598.666992188 7 586 19 c 0
 573.333007812 29 565.666992188 43.6669921875 563 63 c 0
 555 45 542.666992188 30.1669921875 526 18.5 c 0
 509.333007812 6.8330078125 492.666992188 1 476 1 c 0
 285 1 l 0
 249.666992188 1 221.333007812 11.6669921875 200 33 c 0
 183.333007812 48.3330078125 175 66 175 86 c 0
 175 89.3330078125 175.666992188 96.3330078125 177 107 c 0
 209 258 l 0
 344 337 l 0
 398.666992188 368.333007812 436.5 391.666992188 457.5 407 c 0
 478.5 422.333007812 491.333007812 438.333007812 496 455 c 0
 514 543 l 0
 516.666992188 555.666992188 514.833007812 565.5 508.5 572.5 c 0
 502.166992188 579.5 493.666992188 583 483 583 c 0
 388 583 l 0
 377 529 l 0
 375.666992188 519 377.666992188 509.833007812 383 501.5 c 0
 388.333007812 493.166992188 397 489 409 489 c 0
 423 489 l 0
 402 393 l 0
 355 393 l 0
 323.666992188 393 299.666992188 406.333007812 283 433 c 0
 270.333007812 453 264 474.666992188 264 498 c 0
 264 507.333007812 265.333007812 517.333007812 268 528 c 0
 300 677 l 0
 532 677 l 0
 554 677 573.5 672.333007812 590.5 663 c 0
 607.5 653.666992188 619 642.833007812 625 630.5 c 0
 631 618.166992188 634 607 634 597 c 0
 634 593.666992188 633.333007812 587.333007812 632 578 c 0
 599 420 l 0
 596.333007812 403.333007812 585 387.333007812 565 372 c 0
 553 362.666992188 542 355 532 349 c 0
 507.333007812 333.666992188 471.666992188 312 425 284 c 0
 313 217 l 0
 299 149 l 0
 298.333007812 145.666992188 298 141.333007812 298 136 c 0
 298 128 301.5 119.333007812 308.5 110 c 0
 315.5 100.666992188 326.333007812 96 341 96 c 0
 464 96 l 0
 478 96 492 102 506 114 c 0
 520.666992188 128.666992188 529.333007812 143.333007812 532 158 c 0
 541 204 l 0
 650 204 l 0
 642 164 l 0
 641.333007812 160.666992188 641 156 641 150 c 0
 641 139.333007812 644 128.666992188 650 118 c 0
 662.666992188 105.333007812 677.333007812 99 694 99 c 0
 803 99 l 0
 817 99 831 105 845 117 c 0
 859.666992188 131.666992188 868.333007812 146.333007812 871 161 c 0
 892 257 l 0
 894.666992188 270.333007812 892.5 281.166992188 885.5 289.5 c 0
 878.5 297.833007812 868.666992188 302 856 302 c 0
 820 302 l 0
 839 397 l 0
 934 397 l 0
 963.333007812 397 984 388.333007812 996 371 c 0
 1006.66699219 358.333007812 1012 343.333007812 1012 326 c 0
 1012 322.666992188 1011.33300781 315.666992188 1010 305 c 0
 968 117 l 0
EndSplineSet
EndChar

StartChar: oovowel
Encoding: 117 3219 117
Width: 918
Flags: HW
LayerCount: 2
Fore
SplineSet
971 131 m 0
 965.666992188 106.333007812 955.833007812 84.3330078125 941.5 65 c 0
 927.166992188 45.6669921875 911 30.1669921875 893 18.5 c 0
 875 6.8330078125 856 1 836 1 c 0
 639 1 l 0
 617.666992188 1 600.666992188 7 588 19 c 0
 575.333007812 29 567.666992188 43.6669921875 565 63 c 0
 559.666992188 54.3330078125 553.166992188 46.5 545.5 39.5 c 0
 537.833007812 32.5 529.333007812 25.3330078125 520 18 c 0
 500.666992188 7.3330078125 482.333007812 2 465 2 c 0
 288 2 l 0
 252.666992188 2 224.333007812 12.6669921875 203 34 c 0
 186.333007812 49.3330078125 178 67 178 87 c 0
 178 90.3330078125 178.666992188 97.3330078125 180 108 c 0
 212 259 l 0
 347 338 l 0
 401.666992188 369.333007812 439.5 392.666992188 460.5 408 c 0
 481.5 423.333007812 494.333007812 439.333007812 499 456 c 0
 514 530 l 0
 516.666992188 544 514.333007812 557 507 569 c 0
 499 579 487.333007812 584 472 584 c 0
 391 584 l 0
 380 530 l 0
 378.666992188 520 380.666992188 510.833007812 386 502.5 c 0
 391.333007812 494.166992188 400 490 412 490 c 0
 426 490 l 0
 405 394 l 0
 358 394 l 0
 326.666992188 394 302.666992188 407.333007812 286 434 c 0
 273.333007812 454 267 475.666992188 267 499 c 0
 267 508.333007812 268.333007812 518.333007812 271 529 c 0
 303 678 l 0
 408 678 l 0
 347.333007812 720.666992188 319.666992188 755.333007812 325 782 c 0
 343 868 l 0
 346.333007812 890 361.333007812 909.333007812 388 926 c 0
 410 941.333007812 436.666992188 949 468 949 c 0
 589 949 l 0
 570 853 l 0
 484 853 l 0
 474 853 465.166992188 850.333007812 457.5 845 c 0
 449.833007812 839.666992188 445.666992188 834 445 828 c 0
 436 786 l 0
 430.666992188 758 459.666992188 721.666992188 523 677 c 0
 535 677 l 0
 557 677 576.5 672.333007812 593.5 663 c 0
 610.5 653.666992188 622 642.833007812 628 630.5 c 0
 634 618.166992188 637 607 637 597 c 0
 637 593.666992188 636.333007812 587.333007812 635 578 c 0
 602 420 l 0
 599.333007812 403.333007812 588 387.333007812 568 372 c 0
 556 362.666992188 545 355 535 349 c 0
 510.333007812 333.666992188 474.666992188 312 428 284 c 0
 316 217 l 0
 302 149 l 0
 301.333007812 145.666992188 301 141.333007812 301 136 c 0
 301 128 304.5 119.333007812 311.5 110 c 0
 318.5 100.666992188 329.333007812 96 344 96 c 0
 467 96 l 0
 481 96 495 102 509 114 c 0
 523.666992188 128.666992188 532.333007812 143.333007812 535 158 c 0
 544 204 l 0
 653 204 l 0
 642 150 l 0
 638.666992188 136 642.5 123.5 653.5 112.5 c 0
 664.5 101.5 679.333007812 96 698 96 c 0
 807 96 l 0
 821 96 835 102 849 114 c 0
 863.666992188 128.666992188 872.333007812 143.333007812 875 158 c 0
 896 254 l 0
 898.666992188 267.333007812 896.5 278.166992188 889.5 286.5 c 0
 882.5 294.833007812 872.666992188 299 860 299 c 0
 824 299 l 0
 843 394 l 0
 925 394 l 0
 954.333007812 394 977.333007812 382 994 358 c 0
 1004.66699219 341.333007812 1010 322.333007812 1010 301 c 0
 1010 293 1008.66699219 283.666992188 1006 273 c 0
 971 131 l 0
EndSplineSet
EndChar

StartChar: auvowel
Encoding: 118 3220 118
Width: 914
Flags: HW
LayerCount: 2
Fore
SplineSet
1078 519 m 1
 783 519 l 2
 752.333333333 519 728.666666667 532 712 558 c 1
 700 575.333333333 694 595.666666667 694 619 c 0
 694 633 694.666666667 643.666666667 696 651 c 2
 719 764 l 1
 965 764 l 1
 946 669 l 1
 797 669 l 1
 793 651 l 1
 791.666666667 641 793.666666667 632.333333333 799 625 c 1
 806.333333333 617.666666667 815 614 825 614 c 2
 988 614 l 1
 1028 800 l 1
 1030.66666667 818.666666667 1027.16666667 833.333333333 1017.5 844 c 128
 1007.83333333 854.666666667 995.333333333 860 980 860 c 2
 692 860 l 1
 704.666666667 850 709.666666667 839.666666667 707 829 c 1
 702 801 l 1
 696.666666667 779.666666667 687 762 673 748 c 1
 655.666666667 733.333333333 639.333333333 726 624 726 c 2
 318 726 l 1
 339 821 l 1
 599 821 l 2
 607 821 614.166666667 824.166666667 620.5 830.5 c 128
 626.833333333 836.833333333 630.333333333 842.333333333 631 847 c 1
 630.333333333 847.666666667 629.666666667 848 629 848 c 0
 621.666666667 853.333333333 614.333333333 857.333333333 607 860 c 1
 347 860 l 1
 366 956 l 1
 1014 956 l 2
 1043.33333333 956 1069.16666667 950 1091.5 938 c 128
 1113.83333333 926 1128.66666667 912.333333333 1136 897 c 128
 1143.33333333 881.666666667 1147 866.666666667 1147 852 c 0
 1147 847.333333333 1146.33333333 839.666666667 1145 829 c 1
 1078 519 l 1
968 118 m 1
 962 86.6666666667 947.666666667 59.3333333333 925 36 c 128
 902.333333333 12.6666666667 877 1 849 1 c 2
 635 1 l 2
 615.666666667 1 600 7 588 19 c 1
 574 27.6666666667 565.666666667 42 563 62 c 1
 557 52 551.333333333 44.3333333333 546 39 c 128
 540.666666667 33.6666666667 532.666666667 26.3333333333 522 17 c 1
 505.333333333 6.33333333333 489.666666667 1 475 1 c 2
 298 1 l 2
 261.333333333 1 231 15 207 43 c 0
 191.666666667 61.6666666667 184 84 184 110 c 0
 184 122 184.666666667 131 186 137 c 2
 212 260 l 1
 349 339 l 2
 410.333333333 375 449.5 399.5 466.5 412.5 c 128
 483.5 425.5 494.333333333 440.333333333 499 457 c 1
 520 557 l 2
 523.333333333 575.666666667 511.666666667 585 485 585 c 2
 390 585 l 1
 379 531 l 1
 377.666666667 521 379.666666667 511.833333333 385 503.5 c 128
 390.333333333 495.166666667 399 491 411 491 c 2
 437 491 l 1
 416 395 l 1
 355 395 l 2
 323.666666667 395 299.666666667 408.333333333 283 435 c 1
 271 456.333333333 265 478 265 500 c 0
 265 509.333333333 266.333333333 519.333333333 269 530 c 2
 301 679 l 1
 533 679 l 2
 555 679 574.333333333 675 591 667 c 1
 607.666666667 657 619.166666667 645.833333333 625.5 633.5 c 128
 631.833333333 621.166666667 635 610 635 600 c 0
 635 596.666666667 634.333333333 590.333333333 633 581 c 2
 600 423 l 2
 597.333333333 409 589.666666667 396.666666667 577 386 c 1
 564.333333333 373.333333333 547 360 525 346 c 2
 418 281 l 1
 315 220 l 1
 301 152 l 2
 300.333333333 148.666666667 300 144.333333333 300 139 c 0
 300 131 303.166666667 122.333333333 309.5 113 c 128
 315.833333333 103.666666667 326.666666667 99 342 99 c 2
 479 99 l 2
 491 99 502 105.5 512 118.5 c 128
 522 131.5 528.666666667 145.666666667 532 161 c 2
 541 207 l 1
 650 207 l 1
 639 153 l 2
 636.333333333 139 638.833333333 126.5 646.5 115.5 c 128
 654.166666667 104.5 665.333333333 99 680 99 c 2
 789 99 l 2
 808.333333333 99 826.166666667 105.666666667 842.5 119 c 128
 858.833333333 132.333333333 868.333333333 146.333333333 871 161 c 2
 892 257 l 2
 894.666666667 271.666666667 892.166666667 282.833333333 884.5 290.5 c 128
 876.833333333 298.166666667 866.666666667 302 854 302 c 2
 821 302 l 1
 840 397 l 1
 936 397 l 2
 964 397 985 388.333333333 999 371 c 0
 1009 358.333333333 1014 343.333333333 1014 326 c 0
 1014 322.666666667 1013.33333333 315.666666667 1012 305 c 1
 968 118 l 1
EndSplineSet
EndChar

StartChar: ka.base
Encoding: 120 -1 120
Width: 527
Flags: HW
AnchorPoint: "s" 278 -62 basechar 0
LayerCount: 2
Fore
SplineSet
800 396 m 1
 603 396 l 1
 637 371.333333333 662.333333333 343.333333333 679 312 c 0
 691.666666667 288.666666667 698 268.333333333 698 251 c 0
 698 244 698 244 698 239 c 1
 696.666666667 235.666666667 696 233.666666667 696 233 c 2
 674 130 l 1
 668 96 650.833333333 67.1666666667 622.5 43.5 c 128
 594.166666667 19.8333333333 564.666666667 8 534 8 c 2
 288 6 l 2
 259.333333333 6 237.333333333 15.3333333333 222 34 c 0
 216.666666667 40 212.666666667 47.3333333333 210 56 c 128
 207.333333333 64.6666666667 206 73 206 81 c 0
 206 88.3333333333 206.333333333 94.3333333333 207 99 c 2
 233 222 l 2
 242.333333333 267.333333333 298.333333333 326.333333333 401 399 c 1
 189 399 l 1
 210 495 l 1
 469 495 l 1
 488 590 l 1
 229 590 l 1
 250 685 l 1
 702 685 l 1
 681 590 l 1
 597 590 l 1
 578 495 l 1
 824 495 l 1
 800 396 l 1
574 155 m 1
 588 218 l 2
 589.333333333 225.333333333 590 231.666666667 590 237 c 0
 590 254.333333333 583.666666667 273 571 293 c 1
 555.666666667 322.333333333 531.333333333 346.666666667 498 366 c 1
 406 319.333333333 355 272 345 224 c 2
 330 150 l 2
 329.333333333 146.666666667 329 142.333333333 329 137 c 0
 329 132.333333333 330.666666667 125.666666667 334 117 c 1
 341.333333333 109 350 105 360 105 c 1
 359 101 l 1
 531 101 l 2
 541 101 550.333333333 106.833333333 559 118.5 c 128
 567.666666667 130.166666667 572.666666667 142.333333333 574 155 c 1
EndSplineSet
EndChar

StartChar: ka.imathra
Encoding: 121 -1 121
Width: 620
Flags: HW
AnchorPoint: "s" 270 -80 basechar 0
LayerCount: 2
Fore
SplineSet
736 396 m 1
 584 396 l 1
 621.333333333 368 648.666666667 337 666 303 c 0
 678 279.666666667 684 257.333333333 684 236 c 0
 684 230.666666667 683.333333333 223.333333333 682 214 c 2
 657 97 l 2
 651.666666667 71 637.833333333 48.6666666667 615.5 30 c 128
 593.166666667 11.3333333333 569 2 543 2 c 2
 283 2 l 2
 252.333333333 2 229.666666667 10.5 215 27.5 c 128
 200.333333333 44.5 193 62.3333333333 193 81 c 0
 193 87 193.333333333 91.6666666667 194 95 c 2
 222 226 l 1
 227.333333333 243.333333333 240 261.666666667 260 281 c 0
 266 287 282.333333333 301 309 323 c 0
 343 351.666666667 370.666666667 374.666666667 392 392 c 1
 229 392 l 1
 250 488 l 1
 494 488 l 1
 598 591 l 1
 628 740 l 2
 630.666666667 752.666666667 627.333333333 759 618 759 c 2
 550 759 l 1
 538 699 l 2
 537.333333333 695.666666667 539.333333333 691.333333333 544 686 c 128
 548.666666667 680.666666667 554.666666667 678 562 678 c 2
 576 678 l 1
 555 583 l 1
 501 583 l 2
 476.333333333 583 455.666666667 591.333333333 439 608 c 1
 428.333333333 620.666666667 423 634.333333333 423 649 c 0
 423 655 423.333333333 659.666666667 424 663 c 2
 464 853 l 1
 669 853 l 2
 695 853 715.666666667 844.333333333 731 827 c 1
 740.333333333 815 745 800.333333333 745 783 c 0
 745 773 744.333333333 765.333333333 743 760 c 2
 704 577 l 1
 612 488 l 1
 756 488 l 1
 736 396 l 1
556 133 m 1
 572 214 l 2
 578 242.666666667 547 291 479 359 c 1
 383 289 331.333333333 238.666666667 324 208 c 1
 306 119 l 2
 304.666666667 113 307 107 313 101 c 128
 319 95 326.666666667 92 336 92 c 2
 518 92 l 2
 526 92 533.5 96.1666666667 540.5 104.5 c 128
 547.5 112.833333333 552.666666667 122.333333333 556 133 c 1
EndSplineSet
LCarets2: 1 0
EndChar

StartChar: ka.sub
Encoding: 122 -1 122
Width: 163
Flags: HW
AnchorPoint: "Sub" -128 264 mark 0
AnchorPoint: "Sub" 198 -412 basemark 0
LayerCount: 2
Fore
SplineSet
299 -145 m 1
 176 -145 l 1
 218.666666667 -177.666666667 236.333333333 -209.333333333 229 -240 c 1
 213 -321 l 2
 207.666666667 -345 192.5 -366 167.5 -384 c 128
 142.5 -402 115.333333333 -411 86 -411 c 2
 -69 -411 l 1
 -101.666666667 -408.333333333 -126 -398.5 -142 -381.5 c 128
 -158 -364.5 -166 -345.333333333 -166 -324 c 0
 -166 -316 -165.666666667 -310.333333333 -165 -307 c 2
 -156 -261 l 1
 -146 -227.666666667 -112.333333333 -188.666666667 -55 -144 c 1
 -190 -144 l 1
 -172 -62 l 1
 38 -62 l 1
 117 9 l 1
 175 63 l 2
 184.333333333 72.3333333333 189.666666667 82 191 92 c 1
 219 223 l 2
 224.333333333 246.333333333 210.333333333 265.333333333 177 280 c 1
 251 334 l 1
 300.333333333 293.333333333 322.333333333 260 317 234 c 2
 284 76 l 2
 281.333333333 61.3333333333 271.333333333 46.3333333333 254 31 c 2
 140 -65 l 1
 317 -65 l 1
 299 -145 l 1
126 -291 m 1
 135 -243 l 2
 138.333333333 -226.333333333 132.833333333 -209 118.5 -191 c 128
 104.166666667 -173 83 -159 55 -149 c 1
 26.3333333333 -157 1 -171 -21 -191 c 1
 -40.3333333333 -212.333333333 -52.6666666667 -234 -58 -256 c 1
 -66 -296 l 2
 -68.6666666667 -306.666666667 -65.8333333333 -315.833333333 -57.5 -323.5 c 128
 -49.1666666667 -331.166666667 -38.6666666667 -335 -26 -335 c 2
 83 -335 l 2
 93.6666666667 -335 102 -330.333333333 108 -321 c 1
 116 -313 122 -303 126 -291 c 1
EndSplineSet
LCarets2: 1 0
EndChar

StartChar: ka_rvocalicmatra.sub
Encoding: 123 -1 123
Width: 324
Flags: HW
LayerCount: 2
Fore
SplineSet
595 -275 m 2
 587 -313 568.666666667 -345 540 -371 c 1
 513.333333333 -397.666666667 483.333333333 -411 450 -411 c 2
 63 -409 l 2
 33.6666666667 -409 10.3333333333 -399 -7 -379 c 0
 -13 -373 -17.3333333333 -365.666666667 -20 -357 c 128
 -22.6666666667 -348.333333333 -24 -339 -24 -329 c 0
 -24 -319.666666667 -23.6666666667 -312.666666667 -23 -308 c 2
 16 -125 l 1
 167 -125 l 1
 143 -115 122.333333333 -102.333333333 105 -87 c 1
 92.3333333333 -69.6666666667 87.3333333333 -56 90 -46 c 1
 109 50 l 2
 115 79.3333333333 144.333333333 110.666666667 197 144 c 1
 88 144 l 1
 104 226 l 1
 297 226 l 1
 320 335 l 1
 427 335 l 1
 404 226 l 1
 595 226 l 1
 579 144 l 1
 434 144 l 1
 460 134 479 121.333333333 491 106 c 1
 500.333333333 91.3333333333 505 77.6666666667 505 65 c 0
 505 59 504.666666667 54.6666666667 504 52 c 2
 492 -8 l 1
 484.666666667 -40 467.333333333 -67.3333333333 440 -90 c 128
 412.666666667 -112.666666667 382.666666667 -124 350 -124 c 2
 262 -124 l 1
 246 -205 l 1
 97 -205 l 1
 79 -293 l 2
 76.3333333333 -303 79 -310.666666667 87 -316 c 1
 94.3333333333 -323.333333333 104 -327 116 -327 c 2
 443 -327 l 2
 453 -327 463 -320 473 -306 c 128
 483 -292 490.333333333 -274 495 -252 c 2
 552 22 l 1
 555.333333333 41.3333333333 546.333333333 55.6666666667 525 65 c 1
 607 133 l 1
 626.333333333 124.333333333 642 110 654 90 c 1
 659.333333333 74.6666666667 662 60 662 46 c 0
 662 38 661.666666667 32 661 28 c 2
 595 -275 l 2
397 9 m 2
 406 55 l 2
 407.333333333 64.3333333333 408 71.3333333333 408 76 c 0
 408 85.3333333333 405 96.3333333333 399 109 c 1
 393 126.333333333 379.333333333 139 358 147 c 1
 283 147 l 1
 263.666666667 137 246.666666667 123.666666667 232 107 c 128
 217.333333333 90.3333333333 208.666666667 74.6666666667 206 60 c 2
 191 -8 l 1
 190.333333333 -18 193 -26.1666666667 199 -32.5 c 128
 205 -38.8333333333 213.333333333 -42 224 -42 c 2
 361 -40 l 2
 368.333333333 -40 376 -35.3333333333 384 -26 c 1
 390 -16 394.333333333 -4.33333333333 397 9 c 2
EndSplineSet
EndChar

StartChar: kha
Encoding: 124 3222 124
Width: 935
Flags: HW
LayerCount: 2
Fore
SplineSet
982 106 m 2
 976 76.6666666667 963.5 51.3333333333 944.5 30 c 128
 925.5 8.66666666667 906.333333333 -2 887 -2 c 2
 742 -2 l 2
 716 -2 691.333333333 9.33333333333 668 32 c 1
 597 87 l 1
 584.333333333 60.3333333333 565.166666667 38.6666666667 539.5 22 c 128
 513.833333333 5.33333333333 486.333333333 -3 457 -3 c 2
 234 -3 l 1
 218.666666667 -1.66666666667 206 0.5 196 3.5 c 128
 186 6.5 176.333333333 12 167 20 c 0
 150.333333333 34.6666666667 144.333333333 52.6666666667 149 74 c 2
 177 209 l 2
 182.333333333 233.666666667 195.666666667 254.333333333 217 271 c 128
 238.333333333 287.666666667 261 296 285 296 c 2
 482 296 l 2
 514.666666667 296 535 286.666666667 543 268 c 1
 599 528 l 2
 600.333333333 537.333333333 601 543.666666667 601 547 c 256
 601 552 601 552 601 559 c 1
 599.666666667 562.333333333 599 564.333333333 599 565 c 0
 591.666666667 575 585 580 579 580 c 2
 455 580 l 2
 451.666666667 580 446.333333333 576 439 568 c 1
 433.666666667 558 429.666666667 547 427 535 c 2
 406 432 l 1
 296 432 l 1
 325 576 l 1
 332.333333333 605.333333333 348 628.666666667 372 646 c 1
 395.333333333 665.333333333 423.666666667 675 457 675 c 2
 627 675 l 2
 658.333333333 675 682.333333333 662.666666667 699 638 c 0
 711.666666667 619.333333333 718 599 718 577 c 0
 718 567.666666667 716.666666667 558 714 548 c 2
 640 197 l 1
 715 115 l 1
 735 96.3333333333 755.666666667 87 777 87 c 2
 840 87 l 2
 850 87 858.833333333 92.3333333333 866.5 103 c 128
 874.166666667 113.666666667 879.333333333 126.333333333 882 141 c 2
 967 538 l 2
 969.666666667 550 967.333333333 559.666666667 960 567 c 128
 952.666666667 574.333333333 942.666666667 578 930 578 c 2
 813 578 l 1
 832 673 l 1
 995 673 l 2
 1026.33333333 673 1049.33333333 662.333333333 1064 641 c 1
 1076.66666667 627 1083 609 1083 587 c 0
 1083 577 1082.66666667 569.666666667 1082 565 c 2
 982 106 l 2
510 129 m 1
 518 164 l 1
 502.666666667 186 478 197 444 197 c 2
 321 197 l 2
 311 197 301.666666667 195.166666667 293 191.5 c 128
 284.333333333 187.833333333 279.333333333 183.666666667 278 179 c 2
 264 115 l 2
 262.666666667 107.666666667 265.666666667 101.666666667 273 97 c 1
 276.333333333 91 283 88 293 88 c 2
 458 88 l 2
 470.666666667 88 482.333333333 92.3333333333 493 101 c 128
 503.666666667 109.666666667 509.333333333 119 510 129 c 1
EndSplineSet
LCarets2: 1 0
EndChar

StartChar: kha.base
Encoding: 125 -1 125
Width: 772
Flags: HW
LayerCount: 2
Fore
SplineSet
985 106 m 2
 981.666666667 89.3333333333 977 75 971 63 c 128
 965 51 957 40 947 30 c 1
 928.333333333 8.66666666667 909.333333333 -2 890 -2 c 1
 888 0 l 1
 743 0 l 2
 718.333333333 0 694 11.6666666667 670 35 c 1
 607 82 l 1
 596.333333333 58 577.5 38.3333333333 550.5 23 c 128
 523.5 7.66666666667 493.666666667 0 461 0 c 2
 237 0 l 2
 207.666666667 0 184.833333333 7.33333333333 168.5 22 c 128
 152.166666667 36.6666666667 146.333333333 54.6666666667 151 76 c 2
 179 211 l 2
 184.333333333 235.666666667 197.833333333 256.333333333 219.5 273 c 128
 241.166666667 289.666666667 265.333333333 298 292 298 c 2
 483 298 l 2
 513.666666667 298 534 288.666666667 544 270 c 1
 602 544 l 2
 602.666666667 547.333333333 603 552 603 558 c 0
 603 562.666666667 601.166666667 568 597.5 574 c 128
 593.833333333 580 587 583 577 583 c 2
 468 583 l 2
 460 583 451 579 441 571 c 1
 433 561 427.666666667 550 425 538 c 2
 404 435 l 1
 295 435 l 1
 324 579 l 1
 331.333333333 608.333333333 347 631.666666667 371 649 c 1
 394.333333333 668.333333333 422.333333333 678 455 678 c 2
 627 678 l 2
 658.333333333 678 682.333333333 665.666666667 699 641 c 1
 711 621.666666667 717 602 717 582 c 0
 717 572.666666667 715.666666667 562.666666667 713 552 c 2
 639 201 l 1
 718 133 l 1
 742.666666667 105.666666667 762.333333333 92 777 92 c 2
 854 92 l 2
 866 92 873.333333333 99.3333333333 876 114 c 2
 951 469 l 2
 952.333333333 475 953 484.333333333 953 497 c 0
 953 518.333333333 947 535.333333333 935 548 c 1
 916.333333333 570 891.666666667 581 861 581 c 2
 812 581 l 1
 831 676 l 1
 942 676 l 1
 971.333333333 672.666666667 996.5 660.5 1017.5 639.5 c 128
 1038.5 618.5 1052 593.666666667 1058 565 c 0
 1061.33333333 550.333333333 1063.16666667 540.5 1063.5 535.5 c 128
 1063.83333333 530.5 1064 525 1064 519 c 0
 1064 504.333333333 1061.66666667 487.666666667 1057 469 c 1
 985 106 l 2
507 133 m 1
 512 159 l 1
 488 187 457.333333333 201 420 201 c 2
 303 201 l 2
 297.666666667 201 293.5 200.166666667 290.5 198.5 c 128
 287.5 196.833333333 285.666666667 196 285 196 c 0
 279.666666667 192.666666667 276.333333333 188.666666667 275 184 c 2
 261 120 l 2
 259.666666667 112.666666667 262.666666667 106.666666667 270 102 c 1
 273.333333333 96 280 93 290 93 c 2
 455 93 l 2
 467 93 478.5 97.1666666667 489.5 105.5 c 128
 500.5 113.833333333 506.333333333 123 507 133 c 1
EndSplineSet
EndChar

StartChar: kha.imathra
Encoding: 126 -1 126
Width: 935
Flags: HW
LayerCount: 2
Fore
SplineSet
985 106 m 2
 981.666666667 89.3333333333 977 75 971 63 c 128
 965 51 957 40 947 30 c 1
 928.333333333 8.66666666667 909.333333333 -2 890 -2 c 1
 888 0 l 1
 743 0 l 2
 718.333333333 0 694 11.6666666667 670 35 c 1
 600 89 l 1
 588 64.3333333333 569.666666667 43.5 545 26.5 c 128
 520.333333333 9.5 495 1 469 1 c 2
 237 1 l 2
 207.666666667 1 184.833333333 8.33333333333 168.5 23 c 128
 152.166666667 37.6666666667 146.333333333 55.6666666667 151 77 c 2
 179 212 l 2
 184.333333333 236.666666667 197.833333333 257.333333333 219.5 274 c 128
 241.166666667 290.666666667 265.333333333 299 292 299 c 2
 483 299 l 2
 504.333333333 299 524.333333333 285.666666667 543 259 c 1
 600 532 l 2
 600.666666667 535.333333333 601 540.666666667 601 548 c 0
 601 556 599.333333333 563 596 569 c 1
 588 579 578 584 566 584 c 2
 470 584 l 2
 462 584 453 580 443 572 c 1
 435 562 429.666666667 551 427 539 c 2
 406 436 l 1
 297 436 l 1
 326 580 l 1
 333.333333333 609.333333333 349 632.666666667 373 650 c 1
 396.333333333 669.333333333 424.333333333 679 457 679 c 2
 629 679 l 2
 660.333333333 679 684.333333333 666.666666667 701 642 c 1
 713 622.666666667 719 603 719 583 c 0
 719 573.666666667 717.666666667 563.666666667 715 553 c 2
 641 202 l 1
 706 134 l 1
 739.333333333 106.666666667 773 93 807 93 c 2
 842 93 l 2
 852 93 860.5 96.5 867.5 103.5 c 128
 874.5 110.5 879.333333333 119 882 129 c 2
 988 634 l 2
 988.666666667 638.666666667 989 644.666666667 989 652 c 256
 989 659.333333333 987.833333333 665.666666667 985.5 671 c 128
 983.166666667 676.333333333 976.666666667 679 966 679 c 2
 931 679 l 1
 912 675 l 1
 909.333333333 673.666666667 907.166666667 671.833333333 905.5 669.5 c 128
 903.833333333 667.166666667 902.666666667 664.666666667 902 662 c 2
 897 640 l 1
 895.666666667 627.333333333 897.333333333 617.5 902 610.5 c 128
 906.666666667 603.5 911.666666667 600 917 600 c 2
 957 600 l 1
 936 504 l 1
 848 504 l 2
 824.666666667 504 806 513.666666667 792 533 c 0
 782 547.666666667 777 563.333333333 777 580 c 0
 777 583.333333333 777.666666667 589.666666667 779 599 c 2
 798 694 l 2
 803.333333333 718 818 737.666666667 842 753 c 128
 866 768.333333333 891.333333333 776 918 776 c 2
 1027 776 l 2
 1055 776 1076.66666667 765 1092 743 c 1
 1102 725.666666667 1107 707.333333333 1107 688 c 0
 1107 682.666666667 1106.33333333 674.666666667 1105 664 c 1
 985 106 l 2
513 137 m 2
 518 158 l 1
 487.333333333 189.333333333 459 205 433 205 c 2
 317 205 l 2
 312.333333333 205 308.166666667 204.666666667 304.5 204 c 128
 300.833333333 203.333333333 296 201.666666667 290 199 c 128
 284 196.333333333 280.333333333 192.666666667 279 188 c 2
 268 132 l 1
 265.333333333 124 265.666666667 116 269 108 c 1
 269.666666667 100.666666667 273.666666667 97 281 97 c 2
 458 97 l 2
 470 97 481.5 101.166666667 492.5 109.5 c 128
 503.5 117.833333333 510.333333333 127 513 137 c 2
EndSplineSet
LCarets2: 1 0
EndChar

StartChar: kha.sub
Encoding: 127 -1 127
Width: 155
Flags: HW
AnchorPoint: "Sub" -300 251 mark 0
AnchorPoint: "Sub" 202 -419 basemark 0
LayerCount: 2
Fore
SplineSet
256 -237 m 2
 248 -275.666666667 227.5 -309.166666667 194.5 -337.5 c 128
 161.5 -365.833333333 126.333333333 -380 89 -380 c 2
 22 -380 l 2
 12 -380 -12 -373 -50 -359 c 1
 -99.3333333333 -391.666666667 -136.333333333 -408 -161 -408 c 2
 -310 -408 l 1
 -305 -408 l 2
 -328.333333333 -408 -348.333333333 -400.666666667 -365 -386 c 1
 -375.666666667 -375.333333333 -381 -362.666666667 -381 -348 c 0
 -381 -342 -380.666666667 -337.333333333 -380 -334 c 2
 -366 -274 l 1
 -362.666666667 -252 -350.333333333 -232 -329 -214 c 128
 -307.666666667 -196 -284 -187 -258 -187 c 2
 -149 -187 l 2
 -138.333333333 -187 -131 -189.333333333 -127 -194 c 1
 -70 -240 l 1
 -54 -158 l 2
 -53.3333333333 -155.333333333 -53 -152.5 -53 -149.5 c 128
 -53 -145 -53 -145 -53 -144 c 0
 -53 -133.333333333 -54.6666666667 -125 -58 -119 c 1
 -66.6666666667 -107 -76.3333333333 -101 -87 -101 c 2
 -101 -101 l 1
 -113 -155 l 1
 -208 -155 l 1
 -180 -25 l 1
 -49 -25 l 2
 -13.6666666667 -25 12.6666666667 -38 30 -64 c 0
 42 -81.3333333333 48 -101.666666667 48 -125 c 0
 48 -135 46.6666666667 -146.333333333 44 -159 c 2
 16 -296 l 1
 28.6666666667 -305.333333333 39.6666666667 -310 49 -310 c 2
 103 -310 l 2
 115.666666667 -310 127 -303.333333333 137 -290 c 128
 147 -276.666666667 154.333333333 -259 159 -237 c 2
 248 187 l 2
 250.666666667 201 247 212.666666667 237 222 c 1
 229 231.333333333 215.666666667 236 197 236 c 2
 143 236 l 1
 161 322 l 1
 224 322 l 2
 266 322 299 310 323 286 c 1
 340.333333333 267.333333333 349 245.666666667 349 221 c 0
 349 210.333333333 348.333333333 202.333333333 347 197 c 2
 256 -237 l 2
-117 -318 m 1
 -141.666666667 -290 -168.333333333 -276 -197 -276 c 2
 -257 -276 l 2
 -271 -276 -279.333333333 -280.666666667 -282 -290 c 1
 -289 -323 l 1
 -287.666666667 -328.333333333 -286.333333333 -331 -285 -331 c 0
 -280.333333333 -333.666666667 -276.333333333 -335 -273 -335 c 2
 -163 -335 l 2
 -157 -335 -141.666666667 -329.333333333 -117 -318 c 1
EndSplineSet
LCarets2: 1 0
EndChar

StartChar: ga.base
Encoding: 129 -1 129
Width: 550
Flags: HW
LayerCount: 2
Fore
SplineSet
740 0 m 1
 631 0 l 1
 734 487 l 2
 734.666666667 490.333333333 735 496 735 504 c 0
 735 516.666666667 733.333333333 527 730 535 c 0
 722 551.666666667 710.333333333 564.166666667 695 572.5 c 128
 679.666666667 580.833333333 662 585 642 585 c 2
 539 585 l 2
 509.666666667 585 482.5 575.333333333 457.5 556 c 128
 432.5 536.666666667 417.333333333 513.333333333 412 486 c 2
 309 -1 l 1
 199 -1 l 1
 303 491 l 2
 311 528.333333333 335.333333333 560 376 586 c 1
 322 586 l 1
 343 681 l 1
 725 681 l 1
 769.666666667 670.333333333 804 646.333333333 828 609 c 0
 842.666666667 585 850 556.666666667 850 524 c 0
 850 512 848.666666667 499.666666667 846 487 c 2
 740 0 l 1
EndSplineSet
EndChar

StartChar: ga.imathra
Encoding: 130 -1 130
Width: 729
Flags: HW
LayerCount: 2
Fore
SplineSet
754 0 m 1
 645 0 l 1
 748 487 l 2
 749.333333333 494.333333333 750 504.333333333 750 517 c 0
 750 533.666666667 746.333333333 547 739 557 c 1
 728.333333333 576.333333333 711 586 687 586 c 2
 510 586 l 2
 486.666666667 586 465.666666667 576.666666667 447 558 c 1
 428.333333333 541.333333333 416.333333333 519 411 491 c 2
 306 -1 l 1
 196 -1 l 1
 299 486 l 1
 305 518 318.5 547.166666667 339.5 573.5 c 128
 360.5 599.833333333 384.333333333 620 411 634 c 1
 389.666666667 642 372.666666667 654.333333333 360 671 c 0
 352.666666667 681.666666667 349 694.666666667 349 710 c 0
 349 717.333333333 349.333333333 722.666666667 350 726 c 2
 365 794 l 1
 368.333333333 816 382.333333333 836.666666667 407 856 c 1
 431.666666667 872.666666667 457.333333333 881 484 881 c 2
 667 881 l 2
 716.333333333 881 758.833333333 867 794.5 839 c 128
 830.166666667 811 855 773 869 725 c 0
 872.333333333 714.333333333 874.833333333 701.666666667 876.5 687 c 128
 878.166666667 672.333333333 879 657.666666667 879 643 c 0
 879 619 876.333333333 594.666666667 871 570 c 2
 754 0 l 1
776 633 m 1
 776 679.666666667 761.333333333 717.166666667 732 745.5 c 128
 702.666666667 773.833333333 663 788 613 788 c 2
 517 788 l 2
 485.666666667 788 468.333333333 779.333333333 465 762 c 2
 458 729 l 2
 457.333333333 725.666666667 457 722.5 457 719.5 c 128
 457 715 457 715 457 714 c 0
 457 706.666666667 457.833333333 700 459.5 694 c 128
 461.166666667 688 465.666666667 684.333333333 473 683 c 1
 705 683 l 2
 733.666666667 683 757.333333333 666.333333333 776 633 c 1
EndSplineSet
LCarets2: 1 0
EndChar

StartChar: ga.sub
Encoding: 131 -1 131
Width: 95
Flags: HW
AnchorPoint: "Sub" -216 -60 mark 0
AnchorPoint: "Sub" 104 -428 basemark 0
LayerCount: 2
Fore
SplineSet
107 -410 m 1
 11 -410 l 1
 57 -192 l 2
 59.6666666667 -178 57.3333333333 -165 50 -153 c 1
 40 -143 28 -138 14 -138 c 2
 -67 -138 l 2
 -82.3333333333 -138 -96.1666666667 -143 -108.5 -153 c 128
 -120.833333333 -163 -128.333333333 -175.666666667 -131 -191 c 2
 -177 -409 l 1
 -273 -409 l 1
 -227 -191 l 2
 -219 -153 -199.833333333 -120.833333333 -169.5 -94.5 c 128
 -139.166666667 -68.1666666667 -106 -55 -70 -55 c 2
 47 -55 l 2
 85 -55 114.666666667 -66.6666666667 136 -90 c 1
 151.333333333 -105.333333333 159 -125.333333333 159 -150 c 0
 159 -156 158.333333333 -164.333333333 157 -175 c 1
 107 -410 l 1
EndSplineSet
LCarets2: 1 0
EndChar

StartChar: gha.base
Encoding: 133 -1 133
Width: 970
Flags: HW
LayerCount: 2
Fore
SplineSet
1297 588 m 1
 982 588 l 1
 1006 569.333333333 1018 543 1018 509 c 0
 1018 499.666666667 1017.66666667 492.666666667 1017 488 c 1
 1035.66666667 436.666666667 1059.66666667 411 1089 411 c 1
 1103.66666667 412.333333333 1116 416.833333333 1126 424.5 c 128
 1136 432.166666667 1141.33333333 440.666666667 1142 450 c 1
 1163 546 l 1
 1272 546 l 1
 1256 464 l 2
 1250.66666667 439.333333333 1240.66666667 415.166666667 1226 391.5 c 128
 1211.33333333 367.833333333 1194 349.333333333 1174 336 c 128
 1154 322.666666667 1134.66666667 316 1116 316 c 2
 1062 316 l 2
 1032.66666667 316 1008.66666667 329.333333333 990 356 c 1
 944 138 l 1
 934 99.3333333333 915.833333333 67 889.5 41 c 128
 863.166666667 15 835.333333333 2 806 2 c 2
 643 2 l 2
 618.333333333 2 598.666666667 10.6666666667 584 28 c 0
 574.666666667 38.6666666667 567.666666667 49.6666666667 563 61 c 128
 558.333333333 72.3333333333 555.666666667 83.3333333333 555 94 c 1
 540.333333333 65.3333333333 522 42.6666666667 500 26 c 0
 490 18 479.166666667 11.6666666667 467.5 7 c 128
 455.833333333 2.33333333333 445.333333333 0 436 0 c 2
 264 0 l 2
 239.333333333 0 219.333333333 11.6666666667 204 35 c 1
 196 51.6666666667 192 69.6666666667 192 89 c 0
 192 101 192.666666667 110 194 116 c 2
 255 408 l 1
 406 408 l 2
 441.333333333 408 467.666666667 396.333333333 485 373 c 1
 499 356.333333333 506 336 506 312 c 0
 506 306 505.333333333 297.666666667 504 287 c 1
 499 261 l 1
 389 261 l 1
 393 282 l 1
 393.666666667 291.333333333 392.666666667 299.666666667 390 307 c 1
 382.666666667 312.333333333 375.333333333 315 368 315 c 2
 346 315 l 1
 310 146 l 2
 309.333333333 142.666666667 309 138 309 132 c 0
 309 126.666666667 309.833333333 122.5 311.5 119.5 c 128
 313.166666667 116.5 314 114.666666667 314 114 c 0
 318.666666667 104 325.666666667 99 335 99 c 2
 444 99 l 2
 460.666666667 99 477.166666667 109.166666667 493.5 129.5 c 128
 509.833333333 149.833333333 520.666666667 174.333333333 526 203 c 2
 541 275 l 1
 650 275 l 1
 635 203 l 2
 634.333333333 198.333333333 634 192 634 184 c 0
 634 178 634.833333333 171.166666667 636.5 163.5 c 128
 638.166666667 155.833333333 640.333333333 147 643 137 c 1
 653.666666667 113 666 101 680 101 c 2
 789 101 l 2
 799.666666667 101 811 105.666666667 823 115 c 1
 831 124.333333333 836.333333333 136.333333333 839 151 c 2
 909 478 l 1
 910.333333333 488.666666667 911 496.333333333 911 501 c 0
 911 521 903.333333333 539.666666667 888 557 c 0
 868.666666667 579 841 590 805 590 c 2
 292 590 l 1
 313 685 l 1
 1325 685 l 1
 1297 588 l 1
679 413 m 1
 570 413 l 1
 593 522 l 1
 702 522 l 1
 679 413 l 1
561 -140 m 1
 452 -140 l 1
 481 -3 l 1
 590 -3 l 1
 561 -140 l 1
EndSplineSet
EndChar

StartChar: gha.imathra
Encoding: 134 -1 134
Width: 1156
Flags: HW
LayerCount: 2
Fore
SplineSet
715 602 m 1
 709.666666667 569.333333333 695 543.333333333 671 524 c 1
 651 504 627 494 599 494 c 2
 422 494 l 1
 441 589 l 1
 576 589 l 1
 585.333333333 590.333333333 593.5 594.833333333 600.5 602.5 c 128
 607.5 610.166666667 611.333333333 618.666666667 612 628 c 1
 637 745 l 2
 638.333333333 754.333333333 639 760.666666667 639 764 c 256
 639 767.333333333 638.333333333 771.666666667 637 777 c 1
 632.333333333 785 626.333333333 789 619 789 c 2
 570 789 l 2
 557.333333333 789 550.333333333 783 549 771 c 1
 542 743 l 2
 541.333333333 738.333333333 542.333333333 733.666666667 545 729 c 128
 547.666666667 724.333333333 551.666666667 722 557 722 c 2
 606 722 l 1
 585 626 l 1
 496 626 l 2
 474.666666667 626 456.333333333 634.333333333 441 651 c 0
 436.333333333 657 432.666666667 663.666666667 430 671 c 128
 427.333333333 678.333333333 426 685.666666667 426 693 c 0
 426 699 426.333333333 703.666666667 427 707 c 2
 443 782 l 1
 448.333333333 811.333333333 463.333333333 834.666666667 488 852 c 1
 510 871.333333333 535.333333333 881 564 881 c 2
 694 881 l 2
 716 881 733.333333333 871.666666667 746 853 c 0
 753.333333333 842.333333333 757 828.333333333 757 811 c 0
 757 800.333333333 756.333333333 792.333333333 755 787 c 2
 715 602 l 1
1285 460 m 2
 1280.33333333 441.333333333 1274.33333333 425 1267 411 c 128
 1259.66666667 397 1250 384 1238 372 c 0
 1216 348.666666667 1191 337 1163 337 c 2
 1068 337 l 2
 1039.33333333 337 1015.33333333 350.333333333 996 377 c 1
 945 132 l 1
 935 93.3333333333 916.833333333 61 890.5 35 c 128
 864.166666667 9 836.333333333 -4 807 -4 c 2
 646 -4 l 2
 621.333333333 -4 601.333333333 3.66666666667 586 19 c 1
 566.666666667 35.6666666667 557 55 557 77 c 1
 543.666666667 53 526.166666667 33.3333333333 504.5 18 c 128
 482.833333333 2.66666666667 460.333333333 -5 437 -5 c 2
 268 -5 l 2
 241.333333333 -5 221 5 207 25 c 0
 197 40.3333333333 192 56.6666666667 192 74 c 0
 192 79.3333333333 192.666666667 86.6666666667 194 96 c 2
 258 402 l 1
 409 402 l 2
 443 402 469.333333333 391.333333333 488 370 c 1
 502.666666667 355.333333333 510 337.333333333 510 316 c 0
 510 306 509.666666667 298.666666667 509 294 c 2
 501 254 l 1
 391 254 l 1
 398 289 l 2
 399.333333333 295 397 299.333333333 391 302 c 1
 386.333333333 305.333333333 378.666666667 307 368 307 c 2
 349 307 l 1
 313 138 l 2
 312.333333333 134.666666667 312 130 312 124 c 0
 312 116.666666667 314 109.166666667 318 101.5 c 128
 322 93.8333333333 327.666666667 90 335 90 c 2
 444 90 l 2
 462.666666667 90 480.166666667 100.166666667 496.5 120.5 c 128
 512.833333333 140.833333333 523.666666667 165.333333333 529 194 c 2
 544 266 l 1
 653 266 l 1
 638 194 l 1
 637.333333333 186.666666667 637 181.333333333 637 178 c 0
 637 163.333333333 641.333333333 145.166666667 650 123.5 c 128
 658.666666667 101.833333333 670 91 684 91 c 2
 793 91 l 2
 803 91 813.333333333 95.8333333333 824 105.5 c 128
 834.666666667 115.166666667 841.333333333 127 844 141 c 2
 926 528 l 2
 928.666666667 542 926.333333333 555 919 567 c 1
 909 577 897 582 883 582 c 2
 806 582 l 1
 827 677 l 1
 937 677 l 2
 961 677 981.333333333 670 998 656 c 1
 1013.33333333 640.666666667 1024 621 1030 597 c 0
 1032.66666667 586.333333333 1034 574 1034 560 c 256
 1034 546 1032.66666667 531.333333333 1030 516 c 1
 1053.33333333 462 1076 435 1098 435 c 2
 1147 435 l 2
 1154.33333333 435 1162 440 1170 450 c 0
 1172.66666667 453.333333333 1175.16666667 458 1177.5 464 c 128
 1179.83333333 470 1182.33333333 478 1185 488 c 2
 1225 678 l 1
 1334 678 l 1
 1285 460 l 2
555 -168 m 1
 446 -168 l 1
 475 -33 l 1
 584 -33 l 1
 555 -168 l 1
EndSplineSet
LCarets2: 1 0
EndChar

StartChar: gha.sub
Encoding: 135 -1 135
Width: 200
Flags: HW
AnchorPoint: "Sub" -345 115 mark 0
AnchorPoint: "Sub" 254 -405 basemark 0
LayerCount: 2
Fore
SplineSet
392 -32 m 1
 382 -81.3333333333 351 -120.333333333 299 -149 c 1
 281 -237 l 2
 275 -265.666666667 261.166666667 -290.833333333 239.5 -312.5 c 128
 217.833333333 -334.166666667 192.666666667 -345 164 -345 c 2
 19 -345 l 2
 -5 -345 -24.3333333333 -337.666666667 -39 -323 c 1
 -57 -307.666666667 -69 -288 -75 -264 c 1
 -97 -292 -121.5 -314.166666667 -148.5 -330.5 c 128
 -175.5 -346.833333333 -200.333333333 -355 -223 -355 c 2
 -365 -355 l 2
 -393 -355 -413 -346.333333333 -425 -329 c 1
 -437 -314.333333333 -443 -299.333333333 -443 -284 c 0
 -443 -281.333333333 -442.333333333 -275.333333333 -441 -266 c 2
 -422 -171 l 1
 -414.666666667 -141.666666667 -400.166666667 -117.666666667 -378.5 -99 c 128
 -356.833333333 -80.3333333333 -332.666666667 -71 -306 -71 c 2
 -169 -71 l 1
 -187 -152 l 1
 -290 -152 l 2
 -299.333333333 -152 -307.833333333 -155.666666667 -315.5 -163 c 128
 -323.166666667 -170.333333333 -327.666666667 -178 -329 -186 c 2
 -341 -247 l 2
 -341.666666667 -253 -340.333333333 -259 -337 -265 c 1
 -331 -269.666666667 -325.333333333 -272 -320 -272 c 2
 -197 -272 l 2
 -183 -272 -165 -261 -143 -239 c 1
 -123 -217 -111 -196.666666667 -107 -178 c 2
 -99 -138 l 1
 -3 -138 l 1
 -12 -185 l 2
 -14.6666666667 -201.666666667 -10 -218.333333333 2 -235 c 1
 16 -251.666666667 30.6666666667 -260 46 -260 c 2
 160 -260 l 2
 174.666666667 -260 184.333333333 -250.666666667 189 -232 c 1
 200 -178 l 1
 91 -178 l 1
 109 -96 l 1
 232 -96 l 2
 246.666666667 -96 261 -89.6666666667 275 -77 c 1
 279.666666667 -71.6666666667 284.666666667 -64.8333333333 290 -56.5 c 128
 295.333333333 -48.1666666667 298.666666667 -39.3333333333 300 -30 c 2
 315 47 l 1
 317.666666667 55.6666666667 304.333333333 70.6666666667 275 92 c 1
 345 160 l 1
 396.333333333 122 418.333333333 86 411 52 c 2
 392 -32 l 1
-63 -412 m 1
 -159 -412 l 1
 -147 -349 l 1
 -86 -289 l 1
 -51 -349 l 1
 -63 -412 l 1
EndSplineSet
LCarets2: 1 0
EndChar

StartChar: nga
Encoding: 136 3225 136
Width: 872
Flags: HW
LayerCount: 2
Fore
SplineSet
926 109 m 2
 920 79.6666666667 905.5 54.3333333333 882.5 33 c 128
 859.5 11.6666666667 834.666666667 1 808 1 c 2
 617 1 l 2
 595.666666667 1 577.333333333 8.16666666667 562 22.5 c 128
 546.666666667 36.8333333333 539 55 539 77 c 1
 528.333333333 53.6666666667 514 35 496 21 c 128
 478 7 460.333333333 0 443 0 c 2
 260 0 l 2
 231.333333333 0 208.666666667 9.33333333333 192 28 c 0
 180 40.6666666667 174 56.6666666667 174 76 c 0
 174 83.3333333333 174.333333333 89.3333333333 175 94 c 2
 207 239 l 1
 442 408 l 1
 456 415.333333333 466.666666667 433.333333333 474 462 c 1
 490 544 l 1
 492.666666667 554 489.333333333 563.666666667 480 573 c 1
 470.666666667 580.333333333 458.666666667 584 444 584 c 2
 390 584 l 1
 382 544 l 2
 379.333333333 534 380.333333333 524.333333333 385 515 c 1
 387.666666667 507 392.666666667 503 400 503 c 2
 414 503 l 1
 393 408 l 1
 325 408 l 2
 303.666666667 408 287 418 275 438 c 0
 267 450.666666667 263 465.666666667 263 483 c 0
 263 487.666666667 263.666666667 496.333333333 265 509 c 1
 301 678 l 1
 487 678 l 2
 517.666666667 678 543.166666667 671.5 563.5 658.5 c 128
 583.833333333 645.5 594 628 594 606 c 1
 646 654 696.666666667 678 746 678 c 2
 950 678 l 2
 972 678 987.166666667 671.333333333 995.5 658 c 128
 1003.83333333 644.666666667 1008 631.666666667 1008 619 c 0
 1008 616.333333333 1007.33333333 609.666666667 1006 599 c 1
 990 517 l 1
 881 517 l 1
 888 552 l 1
 890.666666667 561.333333333 889.666666667 569.666666667 885 577 c 1
 879.666666667 582.333333333 872 585 862 585 c 2
 759 585 l 2
 726.333333333 585 693.333333333 576.5 660 559.5 c 128
 626.666666667 542.5 599 519.666666667 577 491 c 1
 565 431 l 1
 555 386.333333333 534.666666667 354.333333333 504 335 c 1
 308 186 l 1
 297 132 l 1
 294.333333333 124 296.833333333 116.166666667 304.5 108.5 c 128
 312.166666667 100.833333333 323 97 337 97 c 2
 423 97 l 2
 442.333333333 97 459.333333333 102 474 112 c 128
 488.666666667 122 498.333333333 134.666666667 503 150 c 1
 514 204 l 1
 623 204 l 1
 612 150 l 2
 609.333333333 136 613.333333333 123.5 624 112.5 c 128
 634.666666667 101.5 649.333333333 96 668 96 c 2
 791 96 l 2
 800.333333333 96 807.5 98.5 812.5 103.5 c 128
 817.5 108.5 821.333333333 115 824 123 c 1
 853 260 l 1
 854.333333333 270.666666667 855 277.333333333 855 280 c 0
 855 292.666666667 851 299 843 299 c 2
 766 299 l 1
 785 394 l 1
 894 394 l 2
 914 394 929 389.333333333 939 380 c 1
 951.666666667 370.666666667 960.666666667 359 966 345 c 1
 968.666666667 334.333333333 970 324 970 314 c 0
 970 310.666666667 969.333333333 304.333333333 968 295 c 1
 926 109 l 2
633 260 m 1
 524 260 l 1
 546 369 l 1
 655 369 l 1
 633 260 l 1
EndSplineSet
LCarets2: 1 0
EndChar

StartChar: nga.sub
Encoding: 137 -1 137
Width: 186
Flags: HW
AnchorPoint: "Sub" -388 -32 mark 0
AnchorPoint: "Sub" 284 -408 basemark 0
LayerCount: 2
Fore
SplineSet
16 -218 m 1
 -79 -218 l 1
 -65 -150 l 1
 30 -150 l 1
 16 -218 l 1
302 -320 m 1
 296.666666667 -344 284.666666667 -364.666666667 266 -382 c 1
 244 -399.333333333 223 -408 203 -408 c 2
 12 -408 l 2
 -4.66666666667 -408 -19 -402.666666667 -31 -392 c 128
 -43 -381.333333333 -51.3333333333 -366 -56 -346 c 1
 -63.3333333333 -362.666666667 -76.6666666667 -377.333333333 -96 -390 c 0
 -102 -394.666666667 -110.333333333 -398.833333333 -121 -402.5 c 128
 -131.666666667 -406.166666667 -141 -408 -149 -408 c 2
 -353 -408 l 2
 -377 -408 -397.666666667 -400.333333333 -415 -385 c 1
 -427 -372.333333333 -433 -357.333333333 -433 -340 c 0
 -433 -334.666666667 -432.666666667 -330.666666667 -432 -328 c 2
 -416 -253 l 1
 -412.666666667 -233 -400.833333333 -215.833333333 -380.5 -201.5 c 128
 -360.166666667 -187.166666667 -340 -180 -320 -180 c 2
 -252 -180 l 2
 -242.666666667 -180 -237.666666667 -175.333333333 -237 -166 c 1
 -232 -140 l 1
 -231.333333333 -130.666666667 -234.666666667 -126 -242 -126 c 2
 -379 -126 l 1
 -361 -45 l 1
 -184 -45 l 2
 -167.333333333 -45 -155 -48.6666666667 -147 -56 c 1
 -137.666666667 -66.6666666667 -133.333333333 -78 -134 -90 c 1
 -112.666666667 -59.3333333333 -84 -44 -48 -44 c 2
 115 -44 l 2
 143 -44 164 -51.3333333333 178 -66 c 0
 188.666666667 -76.6666666667 194 -89.6666666667 194 -105 c 0
 194 -107.666666667 193.333333333 -113.666666667 192 -123 c 2
 181 -177 l 1
 86 -177 l 1
 94 -137 l 2
 96.6666666667 -122.333333333 86.3333333333 -115 63 -115 c 2
 -46 -115 l 2
 -63.3333333333 -115 -81.1666666667 -121.166666667 -99.5 -133.5 c 128
 -117.833333333 -145.833333333 -133.333333333 -162.666666667 -146 -184 c 1
 -153 -217 l 2
 -155.666666667 -227.666666667 -164 -237.166666667 -178 -245.5 c 128
 -192 -253.833333333 -207.666666667 -258 -225 -258 c 2
 -300 -258 l 2
 -316.666666667 -258 -325.666666667 -264 -327 -276 c 1
 -334 -304 l 1
 -334 -310 -332.333333333 -314.333333333 -329 -317 c 1
 -326.333333333 -321.666666667 -321.333333333 -324 -314 -324 c 2
 -158 -324 l 2
 -142.666666667 -324 -128.5 -319.833333333 -115.5 -311.5 c 128
 -102.5 -303.166666667 -95.6666666667 -294 -95 -284 c 1
 -86 -244 l 1
 9 -244 l 1
 2 -276 l 2
 1.33333333333 -279.333333333 1 -283.666666667 1 -289 c 0
 1 -297 4.33333333333 -305.666666667 11 -315 c 128
 17.6666666667 -324.333333333 28.3333333333 -329 43 -329 c 2
 174 -329 l 2
 184 -329 192.666666667 -325.833333333 200 -319.5 c 128
 207.333333333 -313.166666667 211.333333333 -306 212 -298 c 1
 227 -230 l 1
 318 -230 l 1
 302 -320 l 1
EndSplineSet
LCarets2: 1 0
EndChar

StartChar: ca.base
Encoding: 139 -1 139
Width: 779
Flags: HW
LayerCount: 2
Fore
SplineSet
1045 341 m 1
 936 341 l 1
 948 329 954 315.333333333 954 300 c 0
 954 294.666666667 953.666666667 290.666666667 953 288 c 2
 916 111 l 2
 910 80.3333333333 894.666666667 54.6666666667 870 34 c 128
 845.333333333 13.3333333333 818.666666667 3 790 3 c 2
 594 3 l 2
 576.666666667 3 561.666666667 8 549 18 c 1
 537 30 531 43 531 57 c 1
 525.666666667 43 514 30.5 496 19.5 c 128
 478 8.5 458.333333333 3 437 3 c 2
 268 3 l 2
 239.333333333 3 216.333333333 14.6666666667 199 38 c 0
 187 53.3333333333 181 72.6666666667 181 96 c 0
 181 100.666666667 181.666666667 108.333333333 183 119 c 1
 215 268 l 1
 448 405 l 1
 477 542 l 2
 479.666666667 556.666666667 477.333333333 567.833333333 470 575.5 c 128
 462.666666667 583.166666667 452.333333333 587 439 587 c 2
 393 587 l 1
 384 541 l 1
 384 529 386 520 390 514 c 128
 394 508 400 505 408 505 c 2
 430 505 l 1
 409 410 l 1
 332 410 l 2
 310 410 292 419.333333333 278 438 c 1
 268 452.666666667 263 468.333333333 263 485 c 0
 263 488.333333333 263.666666667 494.666666667 265 504 c 2
 302 681 l 1
 513 681 l 2
 540.333333333 681 561.666666667 670 577 648 c 0
 587 634 592 616.333333333 592 595 c 0
 592 583 591.333333333 574 590 568 c 2
 544 350 l 1
 309 205 l 1
 298 151 l 2
 297.333333333 146.333333333 297 140.333333333 297 133 c 256
 297 125.666666667 299 117.833333333 303 109.5 c 128
 307 101.166666667 315 97 327 97 c 2
 440 97 l 2
 454 97 466.5 101.166666667 477.5 109.5 c 128
 488.5 117.833333333 495.333333333 127.333333333 498 138 c 2
 512 205 l 1
 621 205 l 1
 610 151 l 2
 609.333333333 147.666666667 609 143.333333333 609 138 c 0
 609 129.333333333 611.333333333 120.666666667 616 112 c 128
 620.666666667 103.333333333 628 99 638 99 c 2
 752 99 l 2
 766.666666667 99 779.5 102.833333333 790.5 110.5 c 128
 801.5 118.166666667 808.333333333 128 811 140 c 2
 841 284 l 2
 841.666666667 287.333333333 842 292.666666667 842 300 c 0
 842 309.333333333 839.333333333 317.666666667 834 325 c 0
 826 337 814.666666667 343 800 343 c 2
 665 343 l 1
 686 439 l 1
 854 439 l 1
 884 588 l 1
 716 588 l 1
 737 683 l 1
 954 683 l 1
 993 588 l 1
 963 439 l 1
 1066 439 l 1
 1045 341 l 1
EndSplineSet
EndChar

StartChar: ca.imathra
Encoding: 140 -1 140
Width: 949
Flags: HW
LayerCount: 2
Fore
SplineSet
1051 341 m 1
 942 341 l 1
 954 330.333333333 960 317.666666667 960 303 c 0
 960 297 959.666666667 292.333333333 959 289 c 2
 922 112 l 1
 914.666666667 81.3333333333 901.5 55.6666666667 882.5 35 c 128
 863.5 14.3333333333 843.333333333 4 822 4 c 2
 598 4 l 2
 580.666666667 4 566.666666667 9.33333333333 556 20 c 1
 543.333333333 30 537 42.3333333333 537 57 c 1
 531.666666667 42.3333333333 519.666666667 29.6666666667 501 19 c 128
 482.333333333 8.33333333333 463 3 443 3 c 2
 260 3 l 2
 234 3 214.333333333 11.1666666667 201 27.5 c 128
 187.666666667 43.8333333333 181 59.6666666667 181 75 c 0
 181 78.3333333333 181.666666667 83.6666666667 183 91 c 2
 223 282 l 1
 454 405 l 1
 483 542 l 2
 485.666666667 556.666666667 483.333333333 567.833333333 476 575.5 c 128
 468.666666667 583.166666667 458 587 444 587 c 2
 397 587 l 1
 388 541 l 1
 386.666666667 530.333333333 388.5 521.833333333 393.5 515.5 c 128
 398.5 509.166666667 405.666666667 506 415 506 c 2
 450 506 l 1
 429 411 l 1
 340 411 l 2
 318 411 300 419.5 286 436.5 c 128
 272 453.5 266.666666667 472 270 492 c 1
 310 682 l 1
 529 682 l 2
 555.666666667 682 576 672 590 652 c 1
 598 636.666666667 602 619.666666667 602 601 c 0
 602 590.333333333 601.333333333 582 600 576 c 2
 553 352 l 1
 320 221 l 1
 304 140 l 1
 302.666666667 128 304.666666667 118.333333333 310 111 c 1
 318 103 326.666666667 99 336 99 c 2
 436 99 l 2
 453.333333333 99 469 102.833333333 483 110.5 c 128
 497 118.166666667 505.333333333 128 508 140 c 2
 527 235 l 1
 636 235 l 1
 620 153 l 2
 619.333333333 149.666666667 619 145.333333333 619 140 c 0
 619 131.333333333 621.333333333 122.666666667 626 114 c 128
 630.666666667 105.333333333 638 101 648 101 c 2
 776 101 l 2
 786 101 795.333333333 104.833333333 804 112.5 c 128
 812.666666667 120.166666667 818.333333333 130 821 142 c 2
 851 286 l 2
 853.666666667 300.666666667 851.833333333 313.333333333 845.5 324 c 128
 839.166666667 334.666666667 828.666666667 341.666666667 814 345 c 1
 673 345 l 1
 694 441 l 1
 843 441 l 1
 873.666666667 455 891.333333333 473 896 495 c 2
 933 672 l 2
 933.666666667 676.666666667 931.5 679.833333333 926.5 681.5 c 128
 921.5 683.166666667 912.666666667 684 900 684 c 2
 861 684 l 2
 855.666666667 684 851.333333333 674 848 654 c 1
 843 631 l 2
 842.333333333 625 845.166666667 619.333333333 851.5 614 c 128
 857.833333333 608.666666667 863.666666667 606 869 606 c 2
 905 606 l 1
 886 510 l 1
 790 510 l 2
 768.666666667 510 751.666666667 518.333333333 739 535 c 0
 729.666666667 547 725 560.333333333 725 575 c 0
 725 582.333333333 725.333333333 587.666666667 726 591 c 2
 749 700 l 1
 752.333333333 723.333333333 763.666666667 742.833333333 783 758.5 c 128
 802.333333333 774.166666667 823 782 845 782 c 2
 973 782 l 2
 999.666666667 782 1019 772 1031 752 c 1
 1040.33333333 740 1045 725.333333333 1045 708 c 0
 1045 703.333333333 1044.33333333 694.666666667 1043 682 c 1
 1007 510 l 2
 1001 482 987.333333333 459.666666667 966 443 c 1
 1075 443 l 1
 1051 341 l 1
EndSplineSet
LCarets2: 1 0
EndChar

StartChar: ca.sub
Encoding: 141 -1 141
Width: 186
Flags: HW
AnchorPoint: "Sub" -325 189 mark 0
AnchorPoint: "Sub" 239 -402 basemark 0
LayerCount: 2
Fore
SplineSet
340 -149 m 1
 263 -149 l 1
 277.666666667 -159.666666667 285 -175 285 -195 c 0
 285 -199.666666667 284.333333333 -207.333333333 283 -218 c 1
 264 -314 l 2
 258.666666667 -338.666666667 246.5 -359.5 227.5 -376.5 c 128
 208.5 -393.5 187.333333333 -402 164 -402 c 2
 27 -402 l 2
 1 -402 -21.3333333333 -395 -40 -381 c 1
 -56.6666666667 -365.666666667 -65 -347.333333333 -65 -326 c 1
 -79 -350 -97 -369 -119 -383 c 1
 -143 -395.666666667 -166.666666667 -402 -190 -402 c 2
 -348 -402 l 1
 -374 -404.666666667 -396.333333333 -399 -415 -385 c 128
 -433.666666667 -371 -440.666666667 -354.666666667 -436 -336 c 2
 -417 -247 l 1
 -413.666666667 -227 -403.333333333 -209.666666667 -386 -195 c 1
 -375.333333333 -187.666666667 -366.166666667 -182.5 -358.5 -179.5 c 128
 -350.833333333 -176.5 -341.666666667 -175 -331 -175 c 2
 -263 -175 l 2
 -257 -175 -249.166666667 -172.666666667 -239.5 -168 c 128
 -229.833333333 -163.333333333 -225 -158.333333333 -225 -153 c 1
 -221 -135 l 2
 -220.333333333 -131.666666667 -221.166666667 -128.666666667 -223.5 -126 c 128
 -225.833333333 -123.333333333 -233 -122 -245 -122 c 2
 -382 -122 l 1
 -364 -41 l 1
 -196 -41 l 2
 -171.333333333 -41 -151.333333333 -46.3333333333 -136 -57 c 1
 -121.333333333 -71 -115.666666667 -85.3333333333 -119 -100 c 2
 -137 -189 l 1
 -142.333333333 -210.333333333 -155 -229.166666667 -175 -245.5 c 128
 -195 -261.833333333 -218.333333333 -270 -245 -270 c 2
 -305 -270 l 2
 -311 -270 -317.166666667 -271.833333333 -323.5 -275.5 c 128
 -329.833333333 -279.166666667 -333 -283.666666667 -333 -289 c 1
 -337 -303 l 1
 -337 -309 -335.333333333 -313.333333333 -332 -316 c 1
 -329.333333333 -320.666666667 -324.333333333 -323 -317 -323 c 2
 -193 -323 l 2
 -173 -323 -154.166666667 -315.833333333 -136.5 -301.5 c 128
 -118.833333333 -287.166666667 -107.666666667 -269.333333333 -103 -248 c 2
 -94 -201 l 1
 1 -201 l 1
 -11 -257 l 2
 -13.6666666667 -271.666666667 -9.66666666667 -286.333333333 1 -301 c 1
 13.6666666667 -315.666666667 25.3333333333 -323 36 -323 c 2
 124 -323 l 2
 133.333333333 -323 142.666666667 -319.333333333 152 -312 c 1
 161.333333333 -302.666666667 166.333333333 -293 167 -283 c 1
 185 -201 l 2
 187.666666667 -186.333333333 185.333333333 -174 178 -164 c 1
 168 -153.333333333 156 -148 142 -148 c 2
 19 -148 l 1
 37 -67 l 1
 119 -67 l 1
 171.666666667 -23.6666666667 201.666666667 15 209 49 c 2
 248 232 l 1
 346 232 l 1
 307 49 l 2
 297.666666667 8.33333333333 271.333333333 -30.3333333333 228 -67 c 1
 351 -67 l 1
 340 -149 l 1
EndSplineSet
LCarets2: 1 0
EndChar

StartChar: cha.base
Encoding: 143 -1 143
Width: 694
Flags: HW
LayerCount: 2
Fore
SplineSet
911 117 m 2
 903.666666667 83 887 56 861 36 c 1
 837 12.6666666667 809.333333333 1 778 1 c 2
 641 1 l 2
 619.666666667 1 600.833333333 7.66666666667 584.5 21 c 128
 568.166666667 34.3333333333 560 50.3333333333 560 69 c 1
 550 49 535.333333333 32.8333333333 516 20.5 c 128
 496.666666667 8.16666666667 477.666666667 2 459 2 c 2
 310 2 l 2
 279.333333333 2 254.333333333 12.6666666667 235 34 c 0
 221.666666667 49.3333333333 215 66.6666666667 215 86 c 0
 215 90.6666666667 215.666666667 98.3333333333 217 109 c 1
 310 554 l 2
 315.333333333 578 325.666666667 600 341 620 c 128
 356.333333333 640 373.666666667 654.666666667 393 664 c 1
 413 676 433 682 453 682 c 2
 648 682 l 1
 611 505 l 2
 605 475.666666667 591.333333333 450.333333333 570 429 c 128
 548.666666667 407.666666667 526 397 502 397 c 2
 425 397 l 1
 446 493 l 1
 474 493 l 1
 481.333333333 493.666666667 488.666666667 497 496 503 c 1
 501.333333333 511 505.333333333 520.333333333 508 531 c 2
 519 585 l 1
 473 585 l 2
 461 585 448.666666667 581 436 573 c 1
 425.333333333 563 418.666666667 552 416 540 c 2
 332 144 l 2
 329.333333333 130 331 118.166666667 337 108.5 c 128
 343 98.8333333333 351 94 361 94 c 2
 452 94 l 2
 461.333333333 94 469.5 95.1666666667 476.5 97.5 c 128
 483.5 99.8333333333 491 104 499 110 c 0
 513 120.666666667 521.333333333 133 524 147 c 2
 538 215 l 1
 647 215 l 1
 633 147 l 2
 630.333333333 133 632.833333333 120.5 640.5 109.5 c 128
 648.166666667 98.5 659.333333333 93 674 93 c 2
 755 93 l 2
 769 93 780.666666667 98.3333333333 790 109 c 128
 799.333333333 119.666666667 805.666666667 132.333333333 809 147 c 2
 890 530 l 2
 895.333333333 556 881 573 847 581 c 1
 710 581 l 1
 729 676 l 1
 878 676 l 1
 920 670.666666667 953 654 977 626 c 1
 992.333333333 602.666666667 1000 579.333333333 1000 556 c 0
 1000 544 999.333333333 535.333333333 998 530 c 2
 911 117 l 2
563 -167 m 1
 454 -167 l 1
 483 -32 l 1
 592 -32 l 1
 563 -167 l 1
EndSplineSet
EndChar

StartChar: cha.imathra
Encoding: 144 -1 144
Width: 858
Flags: HW
LayerCount: 2
Fore
SplineSet
911 117 m 2
 903.666666667 83 888.333333333 56 865 36 c 1
 843 12.6666666667 818 1 790 1 c 2
 641 1 l 2
 619.666666667 1 600.833333333 7.66666666667 584.5 21 c 128
 568.166666667 34.3333333333 560 50.3333333333 560 69 c 1
 549.333333333 49 535 32.8333333333 517 20.5 c 128
 499 8.16666666667 480 2 460 2 c 2
 311 2 l 2
 280.333333333 2 255.333333333 12.6666666667 236 34 c 0
 222.666666667 49.3333333333 216 66.6666666667 216 86 c 0
 216 90.6666666667 216.666666667 98.3333333333 218 109 c 1
 311 554 l 2
 316.333333333 578 326.666666667 600 342 620 c 128
 357.333333333 640 374.666666667 654.666666667 394 664 c 1
 414 676 434 682 454 682 c 2
 649 682 l 1
 612 505 l 2
 606 475.666666667 592.333333333 450.333333333 571 429 c 128
 549.666666667 407.666666667 527 397 503 397 c 2
 426 397 l 1
 447 493 l 1
 475 493 l 1
 483 494.333333333 489.666666667 496.666666667 495 500 c 1
 501 506 504.333333333 511.666666667 505 517 c 2
 519 585 l 1
 473 585 l 2
 461 585 448.666666667 581 436 573 c 1
 425.333333333 563 418.666666667 552 416 540 c 2
 332 144 l 2
 329.333333333 128.666666667 331.666666667 117.333333333 339 110 c 1
 346.333333333 100 356.333333333 95 369 95 c 2
 451 95 l 2
 460.333333333 95 468.5 96.1666666667 475.5 98.5 c 128
 482.5 100.833333333 490 105 498 111 c 0
 512 121.666666667 520.333333333 134 523 148 c 2
 537 216 l 1
 646 216 l 1
 632 148 l 2
 629.333333333 134 631.833333333 121.5 639.5 110.5 c 128
 647.166666667 99.5 658.333333333 94 673 94 c 2
 754 94 l 2
 768 94 779.666666667 99.3333333333 789 110 c 128
 798.333333333 120.666666667 804.666666667 133.333333333 808 148 c 2
 914 650 l 2
 914.666666667 652.666666667 915 655.5 915 658.5 c 128
 915 663 915 663 915 664 c 0
 915 670 913.666666667 675.333333333 911 680 c 0
 905.666666667 688 899 692 891 692 c 2
 851 692 l 2
 840.333333333 692 831.166666667 688.333333333 823.5 681 c 128
 815.833333333 673.666666667 811.666666667 667 811 661 c 2
 803 619 l 1
 800.333333333 611 801.666666667 603 807 595 c 1
 813 589 820 586 828 586 c 2
 860 586 l 1
 841 491 l 1
 774 491 l 2
 743.333333333 491 719.666666667 500.666666667 703 520 c 0
 690.333333333 534 684 551 684 571 c 0
 684 576.333333333 684.666666667 583.666666667 686 593 c 2
 705 688 l 2
 707.666666667 702 712.5 714.833333333 719.5 726.5 c 128
 726.5 738.166666667 736 749 748 759 c 0
 772 778.333333333 796.333333333 788 821 788 c 2
 952 788 l 2
 968.666666667 788 984.666666667 782.666666667 1000 772 c 1
 1006 766 1011.33333333 759.5 1016 752.5 c 128
 1020.66666667 745.5 1023.83333333 736.5 1025.5 725.5 c 128
 1027.16666667 714.5 1028 706 1028 700 c 0
 1028 689.333333333 1026.66666667 677.666666667 1024 665 c 2
 911 117 l 2
561 -163 m 1
 452 -163 l 1
 481 -28 l 1
 590 -28 l 1
 561 -163 l 1
EndSplineSet
LCarets2: 1 0
EndChar

StartChar: cha.sub
Encoding: 145 -1 145
Width: 149
Flags: HW
AnchorPoint: "Sub" -310 156 mark 0
AnchorPoint: "Sub" 235 -369 basemark 0
LayerCount: 2
Fore
SplineSet
256 -235 m 1
 248 -275 233.5 -308.666666667 212.5 -336 c 128
 191.5 -363.333333333 171 -377 151 -377 c 2
 31 -377 l 2
 6.33333333333 -377 -13.1666666667 -370.833333333 -27.5 -358.5 c 128
 -41.8333333333 -346.166666667 -49 -330 -49 -310 c 1
 -58.3333333333 -329.333333333 -72.3333333333 -345.5 -91 -358.5 c 128
 -109.666666667 -371.5 -128.666666667 -378 -148 -378 c 2
 -283 -378 l 1
 -288 -376 l 1
 -311.333333333 -376 -329.333333333 -366 -342 -346 c 1
 -351.333333333 -333.333333333 -356 -318.333333333 -356 -301 c 0
 -356 -295.666666667 -355.333333333 -287.666666667 -354 -277 c 1
 -332 -168 l 1
 -324.666666667 -138.666666667 -310.333333333 -114.333333333 -289 -95 c 128
 -267.666666667 -75.6666666667 -243.666666667 -66 -217 -66 c 2
 -103 -66 l 1
 -123 -161 l 1
 -211 -161 l 2
 -218.333333333 -161 -224.666666667 -164.666666667 -230 -172 c 1
 -237.333333333 -178 -241.666666667 -186 -243 -196 c 2
 -255 -256 l 1
 -257.666666667 -265.333333333 -256.833333333 -273.5 -252.5 -280.5 c 128
 -248.166666667 -287.5 -243.333333333 -291 -238 -291 c 2
 -140 -291 l 2
 -126 -291 -113.166666667 -284.5 -101.5 -271.5 c 128
 -89.8333333333 -258.5 -81.6666666667 -242.333333333 -77 -223 c 2
 -70 -190 l 1
 19 -190 l 1
 11 -229 l 2
 9.66666666667 -237.666666667 9 -243.333333333 9 -246 c 0
 9 -254 11.6666666667 -263.333333333 17 -274 c 128
 22.3333333333 -284.666666667 32 -290 46 -290 c 2
 114 -290 l 2
 126.666666667 -290 139 -285 151 -275 c 128
 163 -265 170.666666667 -252.333333333 174 -237 c 2
 218 -25 l 2
 220.666666667 -12.3333333333 222 -0.666666666667 222 10 c 0
 222 30 218 48.3333333333 210 65 c 0
 198 91 177.333333333 106.666666667 148 112 c 1
 198 194 l 1
 228.666666667 186.666666667 251.666666667 173 267 153 c 1
 286.333333333 133 298.666666667 106.666666667 304 74 c 0
 306.666666667 57.3333333333 308 40.6666666667 308 24 c 0
 308 18 307.833333333 11.3333333333 307.5 4 c 128
 307.166666667 -3.33333333333 305.666666667 -14 303 -28 c 2
 256 -235 l 1
-31 -448 m 1
 -127 -448 l 1
 -118 -402 l 1
 -57 -342 l 1
 -22 -402 l 1
 -31 -448 l 1
EndSplineSet
LCarets2: 1 0
EndChar

StartChar: ja
Encoding: 146 3228 146
Width: 883
Flags: HW
LayerCount: 2
Fore
SplineSet
937 109 m 1
 931 87 922.666666667 68.3333333333 912 53 c 128
 901.333333333 37.6666666667 887 25.1666666667 869 15.5 c 128
 851 5.83333333333 834.333333333 1 819 1 c 2
 609 1 l 2
 591.666666667 1 577.666666667 7 567 19 c 1
 554.333333333 29.6666666667 548 44 548 62 c 1
 544.666666667 53.3333333333 540.5 45.5 535.5 38.5 c 128
 530.5 31.5 524 25 516 19 c 0
 501.333333333 7 485.333333333 1 468 1 c 2
 259 1 l 2
 230.333333333 1 207.666666667 10.3333333333 191 29 c 0
 179 41.6666666667 173 57.6666666667 173 77 c 0
 173 84.3333333333 173.333333333 90.3333333333 174 95 c 2
 211 267 l 1
 449 381 l 1
 473.666666667 400.333333333 488.333333333 418.666666667 493 436 c 1
 512 531 l 2
 514.666666667 545.666666667 512 558.333333333 504 569 c 1
 492 579 478.666666667 584 464 584 c 2
 401 584 l 1
 389 524 l 1
 388.333333333 514.666666667 401.333333333 510 428 510 c 2
 454 510 l 1
 432 407 l 1
 351 407 l 2
 326.333333333 407 306.333333333 416.333333333 291 435 c 1
 280.333333333 450.333333333 275 466.333333333 275 483 c 0
 275 485.666666667 275.666666667 491.666666667 277 501 c 2
 314 678 l 1
 528 678 l 2
 551.333333333 678 571.5 673.666666667 588.5 665 c 128
 605.5 656.333333333 617.666666667 644.666666667 625 630 c 1
 631 620.666666667 634 610 634 598 c 0
 634 594.666666667 633.333333333 588.333333333 632 579 c 1
 651.333333333 546.333333333 673.333333333 530 698 530 c 2
 835 530 l 2
 843 530 850.833333333 533 858.5 539 c 128
 866.166666667 545 870.333333333 550.666666667 871 556 c 2
 875 578 l 2
 877.666666667 590.666666667 872.666666667 597 860 597 c 2
 839 597 l 1
 860 692 l 1
 909 692 l 2
 927.666666667 692 943.333333333 688 956 680 c 1
 971.333333333 672 980.333333333 660.333333333 983 645 c 1
 987.666666667 634.333333333 990 624.333333333 990 615 c 0
 990 610.333333333 989.333333333 603.333333333 988 594 c 1
 974 531 l 2
 968.666666667 505 954.833333333 482.666666667 932.5 464 c 128
 910.166666667 445.333333333 886 436 860 436 c 2
 691 436 l 2
 660.333333333 436 633 449.333333333 609 476 c 1
 593 402 l 2
 585.666666667 368.666666667 566.666666667 341.333333333 536 320 c 1
 308 211 l 1
 294 144 l 2
 291.333333333 128.666666667 293.666666667 117.333333333 301 110 c 1
 308.333333333 100 318.333333333 95 331 95 c 2
 454 95 l 2
 466.666666667 95 478.333333333 100 489 110 c 128
 499.666666667 120 507.333333333 132.666666667 512 148 c 1
 520 190 l 1
 629 190 l 1
 622 157 l 2
 619.333333333 141.666666667 622 127.666666667 630 115 c 1
 642.666666667 102.333333333 656 96 670 96 c 2
 770 96 l 2
 785.333333333 96 799.666666667 102.666666667 813 116 c 128
 826.333333333 129.333333333 834.333333333 143.333333333 837 158 c 2
 855 246 l 2
 857.666666667 258.666666667 855.5 268.5 848.5 275.5 c 128
 841.5 282.5 831.666666667 286 819 286 c 2
 756 286 l 1
 775 381 l 1
 906 381 l 2
 929.333333333 381 947.333333333 370 960 348 c 1
 968 332.666666667 972 315.666666667 972 297 c 0
 972 291 971.333333333 281.666666667 970 269 c 1
 937 109 l 1
EndSplineSet
LCarets2: 1 0
EndChar

StartChar: ja.base
Encoding: 147 -1 147
Width: 719
Flags: HW
LayerCount: 2
Fore
SplineSet
942 123 m 2
 938.666666667 106.333333333 933.166666667 91 925.5 77 c 128
 917.833333333 63 907 49.6666666667 893 37 c 0
 866.333333333 13 838.333333333 1 809 1 c 2
 611 1 l 1
 593.666666667 2.33333333333 581.166666667 7.33333333333 573.5 16 c 128
 565.833333333 24.6666666667 560.5 32.1666666667 557.5 38.5 c 128
 554.5 44.8333333333 553 52.3333333333 553 61 c 1
 547 44.3333333333 535 29.8333333333 517 17.5 c 128
 499 5.16666666667 479.333333333 -1 458 -1 c 2
 260 -1 l 2
 232.666666667 -1 211.333333333 8.33333333333 196 27 c 1
 184 39.6666666667 178 55.6666666667 178 75 c 0
 178 82.3333333333 178.333333333 88.3333333333 179 93 c 2
 216 265 l 1
 437 379 l 1
 454.333333333 393 466 403 472 409 c 0
 488.666666667 426.333333333 498.666666667 443.333333333 502 460 c 2
 516 528 l 2
 516.666666667 531.333333333 517 535.666666667 517 541 c 0
 517 550.333333333 514.666666667 558.666666667 510 566 c 1
 502 576 491.666666667 581 479 581 c 2
 405 581 l 1
 398 548 l 2
 395.333333333 538 396.5 528.833333333 401.5 520.5 c 128
 406.5 512.166666667 411.666666667 508 417 508 c 2
 443 508 l 1
 421 405 l 1
 354 405 l 2
 329.333333333 405 309.333333333 414.333333333 294 433 c 1
 283.333333333 448.333333333 278 464.333333333 278 481 c 0
 278 483.666666667 278.666666667 489.666666667 280 499 c 2
 317 676 l 1
 528 676 l 2
 550 676 570 671.166666667 588 661.5 c 128
 606 651.833333333 619 637.666666667 627 619 c 0
 631.666666667 607 634 595.666666667 634 585 c 0
 634 581.666666667 633.333333333 574.666666667 632 564 c 1
 649.333333333 540.666666667 666.666666667 529 684 529 c 2
 815 529 l 2
 823 529 830.5 532.5 837.5 539.5 c 128
 844.5 546.5 848.333333333 554.666666667 849 564 c 1
 853 583 l 1
 702 583 l 1
 723 678 l 1
 877 678 l 2
 906.333333333 678 929.333333333 669.333333333 946 652 c 0
 958 639.333333333 964 623.666666667 964 605 c 0
 964 600.333333333 963.333333333 593.333333333 962 584 c 2
 951 530 l 2
 945.666666667 503.333333333 931.333333333 481 908 463 c 128
 884.666666667 445 860.666666667 436 836 436 c 2
 692 436 l 2
 664 436 637.666666667 449.333333333 613 476 c 1
 601 416 l 2
 595.666666667 391.333333333 571.666666667 364.333333333 529 335 c 1
 313 212 l 1
 299 145 l 2
 296.333333333 131 298.666666667 119.333333333 306 110 c 1
 311.333333333 100 320.333333333 95 333 95 c 2
 456 95 l 2
 470 95 482.333333333 100.333333333 493 111 c 1
 503.666666667 119.666666667 511.333333333 131.666666667 516 147 c 1
 524 189 l 1
 633 189 l 1
 626 156 l 2
 625.333333333 151.333333333 625 145 625 137 c 0
 625 127.666666667 626.666666667 120 630 114 c 0
 638 101.333333333 647 95 657 95 c 2
 774 95 l 2
 789.333333333 95 803.166666667 100.333333333 815.5 111 c 128
 827.833333333 121.666666667 835.666666667 134.333333333 839 149 c 2
 861 254 l 1
 861.666666667 262.666666667 858.333333333 270 851 276 c 128
 843.666666667 282 833 285 819 285 c 2
 759 285 l 1
 778 380 l 1
 901 380 l 2
 929 380 950 370.333333333 964 351 c 0
 973.333333333 339 978 324.333333333 978 307 c 0
 978 302.333333333 977.333333333 293.666666667 976 281 c 1
 942 123 l 2
EndSplineSet
EndChar

StartChar: ja.imathra
Encoding: 148 -1 148
Width: 894
Flags: HW
LayerCount: 2
Fore
SplineSet
947 109 m 1
 939.666666667 78.3333333333 923.166666667 52.6666666667 897.5 32 c 128
 871.833333333 11.3333333333 844.333333333 1 815 1 c 2
 603 1 l 2
 587.666666667 1 574.666666667 7 564 19 c 1
 551.333333333 29.6666666667 545 44 545 62 c 1
 541.666666667 53.3333333333 537.5 45.5 532.5 38.5 c 128
 527.5 31.5 521 25 513 19 c 0
 497.666666667 7 481.666666667 1 465 1 c 2
 267 1 l 2
 236.333333333 1 211.666666667 11.6666666667 193 33 c 0
 180.333333333 47 174 64.6666666667 174 86 c 0
 174 90.6666666667 174.666666667 98.3333333333 176 109 c 1
 206 254 l 1
 459 395 l 1
 475.666666667 410.333333333 486.333333333 428 491 448 c 2
 510 539 l 2
 510.666666667 541.666666667 511 544.5 511 547.5 c 128
 511 552 511 552 511 553 c 0
 511 560.333333333 509 567.166666667 505 573.5 c 128
 501 579.833333333 492.666666667 583 480 583 c 2
 398 583 l 1
 389 537 l 1
 389 527.666666667 390.833333333 520.666666667 394.5 516 c 128
 398.166666667 511.333333333 403.666666667 509 411 509 c 2
 437 509 l 1
 415 406 l 1
 348 406 l 2
 324 406 304.333333333 415.333333333 289 434 c 0
 277 448.666666667 271 464.666666667 271 482 c 0
 271 484.666666667 271.666666667 490.666666667 273 500 c 2
 310 677 l 1
 521 677 l 2
 556.333333333 677 584.833333333 668.666666667 606.5 652 c 128
 628.166666667 635.333333333 636.666666667 615 632 591 c 1
 666 572.333333333 700 563 734 563 c 2
 776 563 l 1
 804 691 l 1
 809.333333333 719 822.833333333 741.833333333 844.5 759.5 c 128
 866.166666667 777.166666667 890 786 916 786 c 2
 984 786 l 2
 1012.66666667 786 1033 775.333333333 1045 754 c 1
 1054.33333333 741.333333333 1059 725.333333333 1059 706 c 0
 1059 700.666666667 1058.33333333 691.666666667 1057 679 c 1
 1034 570 l 1
 1026.66666667 539.333333333 1010.16666667 513.5 984.5 492.5 c 128
 958.833333333 471.5 931.666666667 461 903 461 c 2
 731 461 l 2
 683.666666667 461 643 470.333333333 609 489 c 1
 591 407 l 1
 585.666666667 378.333333333 573 358.666666667 553 348 c 2
 306 211 l 1
 291 136 l 2
 288.333333333 126 290 116.666666667 296 108 c 128
 302 99.3333333333 310.333333333 95 321 95 c 2
 449 95 l 2
 461.666666667 95 474 99.6666666667 486 109 c 128
 498 118.333333333 505.333333333 130.333333333 508 145 c 2
 517 191 l 1
 626 191 l 1
 619 158 l 2
 618.333333333 153.333333333 618 147 618 139 c 0
 618 129.666666667 619.666666667 122 623 116 c 0
 631 103.333333333 640 97 650 97 c 2
 787 97 l 2
 794.333333333 97 801 98.1666666667 807 100.5 c 128
 813 102.833333333 819 107 825 113 c 0
 835.666666667 123.666666667 842.666666667 136 846 150 c 2
 865 241 l 2
 867.666666667 253.666666667 865 264.666666667 857 274 c 1
 847 282 835 286 821 286 c 2
 753 286 l 1
 772 381 l 1
 895 381 l 2
 915 381 932.666666667 376.166666667 948 366.5 c 128
 963.333333333 356.833333333 972.666666667 345 976 331 c 1
 980.666666667 323 983 313 983 301 c 0
 983 293 982.666666667 286.666666667 982 282 c 2
 947 109 l 1
940 602 m 1
 955 670 l 1
 957.666666667 687.333333333 952 696 938 696 c 2
 920 696 l 2
 912 696 905.333333333 693.333333333 900 688 c 1
 894 684.666666667 890.333333333 679 889 671 c 2
 866 561 l 1
 908 561 l 2
 915.333333333 561 922.666666667 565.166666667 930 573.5 c 128
 937.333333333 581.833333333 940.666666667 591.333333333 940 602 c 1
EndSplineSet
LCarets2: 1 0
EndChar

StartChar: ja.sub
Encoding: 149 -1 149
Width: 180
Flags: HW
AnchorPoint: "Sub" -370 -8 mark 0
AnchorPoint: "Sub" 286 -405 basemark 0
LayerCount: 2
Fore
SplineSet
331 -114 m 1
 325.666666667 -140 313.333333333 -160.666666667 294 -176 c 1
 275.333333333 -193.333333333 254 -202 230 -202 c 2
 26 -202 l 2
 -22 -202 -67 -177 -109 -127 c 1
 -55 -67 l 1
 -7.66666666667 -103 22 -121 34 -121 c 2
 197 -121 l 2
 207.666666667 -121 216.666666667 -118 224 -112 c 1
 230 -108.666666667 234.666666667 -103 238 -95 c 1
 246 -55 l 2
 248.666666667 -42.3333333333 242.333333333 -29 227 -15 c 1
 292 41 l 1
 325.333333333 13 342 -15 342 -43 c 0
 342 -48.3333333333 341.666666667 -52.3333333333 341 -55 c 2
 331 -114 l 1
298 -306 m 1
 292.666666667 -334 280 -358.166666667 260 -378.5 c 128
 240 -398.833333333 218.333333333 -409 195 -409 c 2
 32 -409 l 2
 10.6666666667 -409 -8 -402 -24 -388 c 128
 -40 -374 -48 -358.333333333 -48 -341 c 1
 -79.3333333333 -386.333333333 -115 -409 -155 -409 c 2
 -346 -409 l 2
 -372.666666667 -409 -394.333333333 -401.666666667 -411 -387 c 0
 -423 -376.333333333 -429 -363.666666667 -429 -349 c 0
 -429 -343 -428.666666667 -338.333333333 -428 -335 c 2
 -413 -263 l 2
 -407.666666667 -239.666666667 -396.666666667 -220.333333333 -380 -205 c 1
 -360 -189.666666667 -340.666666667 -182 -322 -182 c 2
 -254 -182 l 2
 -248 -182 -241.5 -179.666666667 -234.5 -175 c 128
 -227.5 -170.333333333 -224 -165.333333333 -224 -160 c 1
 -220 -142 l 2
 -217.333333333 -132.666666667 -222.333333333 -128 -235 -128 c 2
 -372 -128 l 1
 -353 -37 l 1
 -190 -37 l 2
 -166 -37 -146.666666667 -44.3333333333 -132 -59 c 1
 -123.333333333 -73 -119 -86.3333333333 -119 -99 c 0
 -119 -105 -119.333333333 -109.333333333 -120 -112 c 2
 -138 -200 l 1
 -142.666666667 -216.666666667 -153.333333333 -231.166666667 -170 -243.5 c 128
 -186.666666667 -255.833333333 -205 -262 -225 -262 c 2
 -293 -262 l 2
 -311.666666667 -262 -321.666666667 -268 -323 -280 c 1
 -330 -308 l 1
 -330 -313.333333333 -328 -318 -324 -322 c 128
 -320 -326 -314.333333333 -328 -307 -328 c 2
 -158 -328 l 2
 -142.666666667 -328 -127.833333333 -322.166666667 -113.5 -310.5 c 128
 -99.1666666667 -298.833333333 -89.6666666667 -283.666666667 -85 -265 c 2
 -78 -233 l 1
 18 -233 l 1
 11 -265 l 2
 10.3333333333 -268.333333333 10 -273 10 -279 c 0
 10 -288.333333333 14.3333333333 -298.5 23 -309.5 c 128
 31.6666666667 -320.5 43.6666666667 -326 59 -326 c 2
 169 -326 l 2
 175 -326 181.166666667 -323.666666667 187.5 -319 c 128
 193.833333333 -314.333333333 197.333333333 -308 198 -300 c 1
 213 -232 l 1
 309 -232 l 1
 298 -306 l 1
EndSplineSet
LCarets2: 1 0
EndChar

StartChar: jha.sub
Encoding: 154 -1 154
Width: 197
Flags: HW
AnchorPoint: "Sub" -401 -37 mark 0
AnchorPoint: "Sub" 308 -383 basemark 0
LayerCount: 2
Fore
SplineSet
343 -264 m 1
 335.666666667 -296.666666667 319 -324 293 -346 c 1
 269 -369.333333333 241.333333333 -381 210 -381 c 2
 115 -381 l 2
 93.6666666667 -381 79 -369.333333333 71 -346 c 1
 53.6666666667 -369.333333333 28.6666666667 -381 -4 -381 c 2
 -86 -381 l 2
 -106 -381 -122 -372.333333333 -134 -355 c 1
 -151.333333333 -372.333333333 -174 -381 -202 -381 c 2
 -351 -381 l 2
 -384.333333333 -381 -409.666666667 -369.333333333 -427 -346 c 0
 -439 -330.666666667 -445 -311.333333333 -445 -288 c 0
 -445 -283.333333333 -444.333333333 -275.666666667 -443 -265 c 1
 -417 -138 l 2
 -411 -108.666666667 -393.666666667 -83.3333333333 -365 -62 c 128
 -336.333333333 -40.6666666667 -305.333333333 -30 -272 -30 c 2
 -149 -30 l 2
 -116.333333333 -30 -90.3333333333 -41 -71 -63 c 1
 -57.6666666667 -79.6666666667 -51 -98.6666666667 -51 -120 c 0
 -51 -124.666666667 -51.6666666667 -132.333333333 -53 -143 c 1
 -78 -260 l 1
 -79.3333333333 -270.666666667 -76.5 -279.833333333 -69.5 -287.5 c 128
 -62.5 -295.166666667 -54 -299 -44 -299 c 2
 -4 -299 l 2
 4 -299 11.8333333333 -295.5 19.5 -288.5 c 128
 27.1666666667 -281.5 32.3333333333 -273 35 -263 c 2
 57 -154 l 1
 60.3333333333 -141.333333333 57 -128.5 47 -115.5 c 128
 37 -102.5 23.3333333333 -93.3333333333 6 -88 c 1
 81 -28 l 1
 109.666666667 -38 129.5 -53 140.5 -73 c 128
 151.5 -93 157 -111.333333333 157 -128 c 0
 157 -132.666666667 156.333333333 -139.666666667 155 -149 c 2
 130 -272 l 1
 127.333333333 -279.333333333 128.5 -285.666666667 133.5 -291 c 128
 138.5 -296.333333333 143.666666667 -299 149 -299 c 2
 199 -299 l 2
 211 -299 221.333333333 -295.333333333 230 -288 c 1
 240.666666667 -275.333333333 246.333333333 -266 247 -260 c 2
 268 -164 l 1
 269.333333333 -147.333333333 264.666666667 -131.666666667 254 -117 c 1
 239.333333333 -101.666666667 222 -91 202 -85 c 1
 274 -31 l 1
 306.666666667 -43 331.333333333 -59.6666666667 348 -81 c 1
 360.666666667 -99.6666666667 367 -117.333333333 367 -134 c 0
 367 -138.666666667 366.333333333 -144.666666667 365 -152 c 2
 343 -264 l 1
101 -412 m 1
 5 -412 l 1
 7 -398 l 1
 62 -372 l 1
 102 -398 l 1
 101 -412 l 1
-173 -254 m 2
 -155 -166 l 2
 -152.333333333 -151.333333333 -154.833333333 -138.666666667 -162.5 -128 c 128
 -170.166666667 -117.333333333 -181.666666667 -112 -197 -112 c 2
 -274 -112 l 2
 -286.666666667 -112 -298.333333333 -116.333333333 -309 -125 c 128
 -319.666666667 -133.666666667 -326.333333333 -144.333333333 -329 -157 c 2
 -348 -253 l 2
 -350.666666667 -267 -347.833333333 -278.666666667 -339.5 -288 c 128
 -331.166666667 -297.333333333 -319.666666667 -302 -305 -302 c 2
 -231 -302 l 2
 -217.666666667 -302 -205.166666667 -297.166666667 -193.5 -287.5 c 128
 -181.833333333 -277.833333333 -175 -266.666666667 -173 -254 c 2
EndSplineSet
LCarets2: 1 0
EndChar

StartChar: jha.part
Encoding: 155 -1 155
Width: 410
Flags: HW
LayerCount: 2
Fore
SplineSet
466 131 m 1
 458 95.6666666667 440.833333333 65 414.5 39 c 128
 388.166666667 13 359.666666667 0 329 0 c 2
 166 0 l 2
 115.333333333 0 73.3333333333 34.3333333333 40 103 c 1
 73 259 l 1
 85.6666666667 209 106 169.333333333 134 140 c 1
 163.333333333 110.666666667 193.666666667 96 225 96 c 2
 285 96 l 2
 304.333333333 96 320.333333333 102.333333333 333 115 c 0
 341 122.333333333 347 129.666666667 351 137 c 128
 355 144.333333333 358.333333333 153 361 163 c 2
 438 527 l 2
 438.666666667 529.666666667 439 532.5 439 535.5 c 128
 439 540 439 540 439 541 c 0
 439 551 436.666666667 559.666666667 432 567 c 1
 422.666666667 579 410.666666667 585 396 585 c 2
 273 585 l 1
 294 680 l 1
 450 680 l 2
 486 680 513.666666667 665.333333333 533 636 c 1
 545 616 551 592.666666667 551 566 c 0
 551 554 549.666666667 541 547 527 c 2
 466 131 l 1
395 -192 m 1
 285 -192 l 1
 314 -55 l 1
 424 -55 l 1
 395 -192 l 1
EndSplineSet
EndChar

StartChar: nya
Encoding: 157 3230 157
Width: 1104
Flags: HW
LayerCount: 2
Fore
SplineSet
1241 487 m 1
 1235.66666667 460.333333333 1223 436.333333333 1203 415 c 128
 1183 393.666666667 1161 383 1137 383 c 2
 1069 383 l 1
 1089 479 l 1
 1103 479 l 2
 1120.33333333 479 1131.66666667 492.333333333 1137 519 c 2
 1145 559 l 2
 1148.33333333 577.666666667 1136.66666667 587 1110 587 c 2
 1061 587 l 2
 1045.66666667 587 1030.83333333 580.5 1016.5 567.5 c 128
 1002.16666667 554.5 992.666666667 538.333333333 988 519 c 2
 956 370 l 2
 950 341.333333333 938.833333333 314 922.5 288 c 128
 906.166666667 262 883.666666667 237.333333333 855 214 c 1
 840 139 l 2
 837.333333333 129 839.5 119.666666667 846.5 111 c 128
 853.5 102.333333333 861.666666667 98 871 98 c 2
 913 98 l 1
 894 3 l 1
 812 3 l 2
 782.666666667 3 759.666666667 13.6666666667 743 35 c 0
 731 49.6666666667 725 67 725 87 c 0
 725 91.6666666667 725.666666667 99.3333333333 727 110 c 1
 741 178 l 1
 634 178 l 2
 607.333333333 178 586.666666667 186.666666667 572 204 c 1
 561.333333333 219.333333333 556 234.333333333 556 249 c 0
 556 252.333333333 556.666666667 257.666666667 558 265 c 2
 573 339 l 2
 576.333333333 357.666666667 587.666666667 374 607 388 c 1
 628.333333333 400.666666667 650 407 672 407 c 2
 789 407 l 2
 801.666666667 407 813.333333333 401.666666667 824 391 c 128
 834.666666667 380.333333333 841.333333333 365.666666667 844 347 c 1
 884 538 l 2
 886.666666667 552.666666667 883 563.833333333 873 571.5 c 128
 863 579.166666667 849.333333333 583 832 583 c 2
 772 583 l 2
 753.333333333 583 736.166666667 577.166666667 720.5 565.5 c 128
 704.833333333 553.833333333 695.666666667 541.666666667 693 529 c 2
 679 461 l 1
 570 461 l 1
 582 524 l 2
 585.333333333 539.333333333 581.666666667 553 571 565 c 128
 560.333333333 577 545.333333333 583 526 583 c 2
 437 583 l 2
 429.666666667 583 421.666666667 579.5 413 572.5 c 128
 404.333333333 565.5 398.666666667 555.666666667 396 543 c 2
 382 475 l 2
 380.666666667 465.666666667 382.333333333 456.666666667 387 448 c 128
 391.666666667 439.333333333 398.666666667 435 408 435 c 2
 443 435 l 1
 420 325 l 1
 343 325 l 2
 317 325 296.333333333 336.666666667 281 360 c 0
 271 375.333333333 266 393 266 413 c 0
 266 425 266.666666667 434 268 440 c 2
 294 568 l 1
 301.333333333 598.666666667 317 624 341 644 c 1
 363 665.333333333 388.333333333 676 417 676 c 2
 576 676 l 2
 600 676 619.666666667 669.666666667 635 657 c 0
 641 652.333333333 645.5 645.833333333 648.5 637.5 c 128
 651.5 629.166666667 653 619.666666667 653 609 c 1
 667.666666667 630.333333333 684.333333333 646.333333333 703 657 c 1
 721.666666667 669.666666667 741.666666667 676 763 676 c 2
 891 676 l 2
 908.333333333 676 923.166666667 670.166666667 935.5 658.5 c 128
 947.833333333 646.833333333 955.666666667 632.666666667 959 616 c 1
 969.666666667 634.666666667 984 649.333333333 1002 660 c 128
 1020 670.666666667 1039 676 1059 676 c 2
 1187 676 l 2
 1211 676 1230 666.333333333 1244 647 c 0
 1253.33333333 634.333333333 1258 618.666666667 1258 600 c 0
 1258 590 1257.33333333 582.333333333 1256 577 c 2
 1241 487 l 1
757 282 m 1
 758.333333333 290 755.166666667 296.5 747.5 301.5 c 128
 739.833333333 306.5 729 309 715 309 c 2
 673 309 l 2
 661 309 654.666666667 307.333333333 654 304 c 2
 652 290 l 2
 650.666666667 284 653 279.333333333 659 276 c 1
 663.666666667 271.333333333 669.666666667 269 677 269 c 2
 719 269 l 2
 724.333333333 269 737 273.333333333 757 282 c 1
EndSplineSet
LCarets2: 1 0
EndChar

StartChar: nya.sub
Encoding: 158 -1 158
Width: 224
Flags: HW
AnchorPoint: "Sub" -416 -22 mark 0
AnchorPoint: "Sub" 321 -374 basemark 0
LayerCount: 2
Fore
SplineSet
362 -218 m 1
 356.666666667 -240 345.333333333 -260.666666667 328 -280 c 1
 309.333333333 -296.666666667 290 -305 270 -305 c 2
 210 -305 l 1
 226 -230 l 1
 254 -230 l 2
 260 -230 265.333333333 -228 270 -224 c 1
 278 -206 l 1
 294 -127 l 1
 295.333333333 -116.333333333 296 -109.333333333 296 -106 c 0
 296 -94 291.333333333 -88 282 -88 c 2
 210 -88 l 2
 200 -88 190.666666667 -91.8333333333 182 -99.5 c 128
 173.333333333 -107.166666667 165.333333333 -118.666666667 158 -134 c 1
 130 -261 l 2
 124.666666667 -287.666666667 108.333333333 -310 81 -328 c 128
 53.6666666667 -346 23.3333333333 -355 -10 -355 c 1
 -11.3333333333 -360.333333333 -9.66666666667 -365.5 -5 -370.5 c 128
 -0.333333333333 -375.5 4.33333333333 -378 9 -378 c 2
 46 -378 l 1
 34 -439 l 1
 -27 -439 l 2
 -45.6666666667 -439 -61.3333333333 -432.666666667 -74 -420 c 1
 -86 -410 -90.6666666667 -396.333333333 -88 -379 c 1
 -83 -356 l 1
 -127 -356 l 2
 -143.666666667 -356 -158.333333333 -351 -171 -341 c 1
 -180.333333333 -331.666666667 -184.333333333 -320.666666667 -183 -308 c 1
 -171 -251 l 1
 -166.333333333 -235.666666667 -158 -223 -146 -213 c 1
 -131.333333333 -203.666666667 -115.666666667 -199 -99 -199 c 2
 -38 -199 l 2
 -20 -199 -6.33333333333 -203.666666667 3 -213 c 1
 11.6666666667 -225 14.3333333333 -238 11 -252 c 2
 4 -284 l 1
 28.6666666667 -284 42.3333333333 -275.666666667 45 -259 c 1
 75 -117 l 1
 75.6666666667 -109.666666667 72.3333333333 -103 65 -97 c 1
 57.6666666667 -92.3333333333 46.6666666667 -90 32 -90 c 2
 -67 -90 l 2
 -81.6666666667 -90 -95.3333333333 -94 -108 -102 c 1
 -120.666666667 -112 -128.333333333 -123.333333333 -131 -136 c 2
 -135 -154 l 1
 -220 -154 l 1
 -215 -129 l 2
 -212.333333333 -117 -214.666666667 -107 -222 -99 c 1
 -229.333333333 -93 -240.333333333 -90 -255 -90 c 2
 -309 -90 l 2
 -314.333333333 -90 -320.666666667 -92.6666666667 -328 -98 c 1
 -335.333333333 -107.333333333 -339.333333333 -116 -340 -124 c 1
 -356 -203 l 2
 -356.666666667 -208.333333333 -352.666666667 -213.5 -344 -218.5 c 128
 -335.333333333 -223.5 -325 -226 -313 -226 c 1
 -331 -308 l 1
 -354.333333333 -308 -375.5 -303 -394.5 -293 c 128
 -413.5 -283 -426.666666667 -270.333333333 -434 -255 c 1
 -440 -245 -443 -234 -443 -222 c 0
 -443 -217.333333333 -442.333333333 -211.333333333 -441 -204 c 2
 -420 -101 l 2
 -414.666666667 -77 -402.5 -56.6666666667 -383.5 -40 c 128
 -364.5 -23.3333333333 -345 -15 -325 -15 c 2
 -219 -15 l 2
 -200.333333333 -15 -185 -21 -173 -33 c 128
 -161 -45 -156.333333333 -59.3333333333 -159 -76 c 1
 -153 -68 -148.666666667 -62.3333333333 -146 -59 c 0
 -138 -48.3333333333 -130 -40 -122 -34 c 0
 -106.666666667 -23.3333333333 -93.6666666667 -18 -83 -18 c 2
 85 -18 l 2
 121 -18 142.666666667 -30 150 -54 c 1
 174 -30 197 -18 219 -18 c 2
 329 -18 l 2
 350.333333333 -18 366 -25.6666666667 376 -41 c 1
 383.333333333 -51 387 -62.3333333333 387 -75 c 0
 387 -79.6666666667 386.333333333 -86.6666666667 385 -96 c 2
 362 -218 l 1
-71 -279 m 1
 -70 -267 l 1
 -67.3333333333 -257 -72.3333333333 -252 -85 -252 c 0
 -97 -252 -103.666666667 -255.666666667 -105 -263 c 2
 -110 -288 l 2
 -111.333333333 -296 -104.333333333 -300 -89 -300 c 0
 -81 -300 -75 -293 -71 -279 c 1
EndSplineSet
LCarets2: 1 0
EndChar

StartChar: tta
Encoding: 159 3231 159
Width: 877
Flags: HW
LayerCount: 2
Fore
SplineSet
933 109 m 2
 927 78.3333333333 912.833333333 52.6666666667 890.5 32 c 128
 868.166666667 11.3333333333 843 1 815 1 c 2
 649 1 l 2
 625 1 606 8.66666666667 592 24 c 1
 575.333333333 39.3333333333 567 58.6666666667 567 82 c 1
 557.666666667 58.6666666667 541.833333333 39.1666666667 519.5 23.5 c 128
 497.166666667 7.83333333333 475 0 453 0 c 2
 312 0 l 2
 278.666666667 0 252 11.6666666667 232 35 c 0
 219.333333333 50.3333333333 213 69.6666666667 213 93 c 0
 213 97.6666666667 213.666666667 105.333333333 215 116 c 1
 271 380 l 2
 276.333333333 406.666666667 305 434 357 462 c 1
 318.333333333 490 300.666666667 515.666666667 304 539 c 1
 330 662 l 2
 336 693.333333333 352.666666667 720.166666667 380 742.5 c 128
 407.333333333 764.833333333 436.333333333 776 467 776 c 2
 570 776 l 1
 551 680 l 1
 475 680 l 2
 467 680 458.833333333 677 450.5 671 c 128
 442.166666667 665 437.666666667 658 437 650 c 1
 418 558 l 2
 416.666666667 548.666666667 418.333333333 537.666666667 423 525 c 1
 428.333333333 515.666666667 436.333333333 508.666666667 447 504 c 1
 598 504 l 1
 565 349 l 1
 557 317.666666667 541.333333333 290.333333333 518 267 c 1
 490 243.666666667 462.666666667 232 436 232 c 2
 376 232 l 1
 397 327 l 1
 430 327 l 2
 436 327 441.5 329.5 446.5 334.5 c 128
 451.5 339.5 454.666666667 346 456 354 c 2
 467 408 l 1
 411 408 l 1
 391.666666667 398 380.333333333 384.666666667 377 368 c 2
 330 145 l 2
 327.333333333 131 329 119.166666667 335 109.5 c 128
 341 99.8333333333 349 95 359 95 c 2
 447 95 l 2
 467 95 484.666666667 101.333333333 500 114 c 0
 508 120 515 126.833333333 521 134.5 c 128
 527 142.166666667 531.666666667 151 535 161 c 1
 546 215 l 1
 656 215 l 1
 645 161 l 1
 645 141.666666667 649.666666667 125.666666667 659 113 c 1
 669.666666667 100.333333333 682 94 696 94 c 2
 798 94 l 2
 808 94 817.666666667 99.3333333333 827 110 c 1
 832.333333333 117.333333333 836.166666667 123.333333333 838.5 128 c 128
 840.833333333 132.666666667 842.666666667 139 844 147 c 2
 879 312 l 2
 881.666666667 324 880 333.666666667 874 341 c 1
 870.666666667 348.333333333 862 352 848 352 c 2
 766 352 l 1
 785 447 l 1
 839 447 l 2
 853.666666667 447 867.333333333 452.333333333 880 463 c 1
 894 472.333333333 902.333333333 484.666666667 905 500 c 2
 933 631 l 1
 933.666666667 639 931.666666667 647 927 655 c 1
 919.666666667 660.333333333 910.666666667 663 900 663 c 2
 832 663 l 1
 851 758 l 1
 974 758 l 2
 998 758 1015.33333333 748 1026 728 c 1
 1032 715.333333333 1035 700.333333333 1035 683 c 0
 1035 669 1034.33333333 658.333333333 1033 651 c 2
 997 482 l 2
 993.666666667 464.666666667 985 449 971 435 c 128
 957 421 939.333333333 411.333333333 918 406 c 1
 940 406 956 397.333333333 966 380 c 0
 973.333333333 368 977 355 977 341 c 0
 977 337.666666667 976.333333333 330.666666667 975 320 c 1
 933 109 l 2
EndSplineSet
LCarets2: 1 0
EndChar

StartChar: tta.base
Encoding: 160 -1 160
Width: 732
Flags: HW
LayerCount: 2
Fore
SplineSet
947 112 m 2
 943.666666667 96.6666666667 938.5 82.8333333333 931.5 70.5 c 128
 924.5 58.1666666667 915.666666667 47 905 37 c 0
 881.666666667 15.6666666667 856.666666667 5 830 5 c 1
 828 3 l 1
 651 3 l 2
 627.666666667 3 609 10.6666666667 595 26 c 1
 579.666666667 41.3333333333 572 60.6666666667 572 84 c 1
 562.666666667 60.6666666667 547.333333333 41.3333333333 526 26 c 1
 502 10.6666666667 479.333333333 3 458 3 c 2
 314 3 l 2
 280.666666667 3 253.333333333 12.6666666667 232 32 c 1
 218 47.3333333333 211 64.6666666667 211 84 c 0
 211 88.6666666667 211.666666667 95.6666666667 213 105 c 2
 271 383 l 2
 276.333333333 409.666666667 305 437 357 465 c 1
 339.666666667 475.666666667 326.333333333 489.833333333 317 507.5 c 128
 307.666666667 525.166666667 304.333333333 540.333333333 307 553 c 2
 333 676 l 2
 339 706.666666667 354.5 733.333333333 379.5 756 c 128
 404.5 778.666666667 431 790 459 790 c 2
 573 790 l 1
 554 695 l 1
 480 695 l 2
 465.333333333 695 452.666666667 690.666666667 442 682 c 128
 431.333333333 673.333333333 424.666666667 663 422 651 c 2
 403 559 l 1
 401.666666667 549 404.666666667 539 412 529 c 1
 422 519 433.333333333 512.333333333 446 509 c 1
 597 509 l 1
 565 354 l 2
 559 322.666666667 542.333333333 295.333333333 515 272 c 128
 487.666666667 248.666666667 458.333333333 237 427 237 c 2
 377 237 l 1
 396 332 l 1
 432 332 l 2
 438 332 443.333333333 335.666666667 448 343 c 1
 460 373 l 1
 468 413 l 1
 412 413 l 1
 392 403 380.666666667 389.666666667 378 373 c 1
 329 148 l 2
 326.333333333 137.333333333 328.5 126.666666667 335.5 116 c 128
 342.5 105.333333333 350.666666667 100 360 100 c 2
 451 100 l 2
 467.666666667 100 484.833333333 106.5 502.5 119.5 c 128
 520.166666667 132.5 531.666666667 148.666666667 537 168 c 1
 555 250 l 1
 665 250 l 1
 647 168 l 1
 647 148.666666667 652 132.5 662 119.5 c 128
 672 106.5 684.333333333 100 699 100 c 2
 790 100 l 2
 804 100 816.333333333 105.833333333 827 117.5 c 128
 837.666666667 129.166666667 844.333333333 141.333333333 847 154 c 2
 882 319 l 2
 884.666666667 331.666666667 881.333333333 341.5 872 348.5 c 128
 862.666666667 355.5 850.666666667 359 836 359 c 2
 768 359 l 1
 789 454 l 1
 843 454 l 2
 857.666666667 454 871.5 460.166666667 884.5 472.5 c 128
 897.5 484.833333333 906.333333333 501 911 521 c 2
 916 543 l 2
 918.666666667 557 916.5 568.333333333 909.5 577 c 128
 902.5 585.666666667 892.666666667 590 880 590 c 2
 791 590 l 1
 810 683 l 1
 943 683 l 1
 975.666666667 680.333333333 999.333333333 666 1014 640 c 1
 1024.66666667 623.333333333 1030 604.333333333 1030 583 c 0
 1030 573 1028.66666667 561.666666667 1026 549 c 2
 1012 489 l 1
 1009.33333333 473.666666667 1001 458.666666667 987 444 c 128
 973 429.333333333 956.333333333 419.333333333 937 414 c 1
 947 414 955.833333333 411.666666667 963.5 407 c 128
 971.166666667 402.333333333 978 395.333333333 984 386 c 128
 990 376.666666667 993 364.333333333 993 349 c 0
 993 345.666666667 992.333333333 338.666666667 991 328 c 1
 947 112 l 2
EndSplineSet
EndChar

